{
.appVersion = "3204";
classes = (
{
automatic = 1;

glyphs = (
{
glyphname = A;
lastChange = "2023-08-23 07:32:01 +0000";
layers = (
{
anchors = (
{
name = bottom;
position = "{582, 0}";
},
{
name = ogonek;
position = "{1108, 0}";
},
{
name = top;
position = "{582, 1474}";
}
);
guideLines = (
{
angle = 67.5;
position = "{46, -220}";
}
);
layerId = "AB099EFE-E788-4EFC-8633-CF147CB782A6";
paths = (
{
closed = 1;
nodes = (
"122 0 LINE",
"286 496 LINE",
"296 518 LINE",
"578 1366 LINE",
"586 1366 LINE",
"868 518 LINE",
"878 496 LINE",
"1042 0 LINE",
"1108 0 LINE",
"608 1474 LINE",
"556 1474 LINE",
"56 0 LINE"
);
},
{
closed = 1;
nodes = (
"908 476 LINE",
"908 536 LINE",
"256 536 LINE",
"256 476 LINE"
);
}
);
width = 1164;
},
{
anchors = (
{
name = bottom;
position = "{656, 0}";
},
{
name = ogonek;
position = "{1320, 0}";
},
{
name = top;
position = "{656, 1474}";
}
);
guideLines = (
{
angle = 67.5;
position = "{-86, -200}";
}
);
layerId = "2D8F7115-C311-411E-929D-56333CF7FFB2";
paths = (
{
closed = 1;
nodes = (
"378 0 LINE",
"480 362 LINE",
"498 504 LINE",
"652 1036 LINE",
"660 1036 LINE",
"814 504 LINE",
"832 362 LINE",
"934 0 LINE",
"1312 0 LINE",
"836 1474 LINE",
"476 1474 LINE",
"0 0 LINE"
);
},
{
closed = 1;
nodes = (
"996 272 LINE",
"996 572 LINE",
"314 572 LINE",
"314 272 LINE"
);
}
);
width = 1312;
},
{
anchors = (
{
name = bottom;
position = "{612, 0}";
},
{
name = ogonek;
position = "{1198, 0}";
},
{
name = top;
position = "{612, 1474}";
}
);
layerId = "FD1CEFBD-BAB1-4C2A-A598-30E93F9A29F6";
paths = (
{
closed = 1;
nodes = (
"212 0 LINE",
"358 442 LINE",
"380 504 LINE",
"608 1220 LINE",
"616 1220 LINE",
"844 504 LINE",
"866 442 LINE",
"1012 0 LINE",
"1196 0 LINE",
"692 1474 LINE",
"532 1474 LINE",
"28 0 LINE"
);
},
{
closed = 1;
nodes = (
"948 390 LINE",
"948 550 LINE",
"276 550 LINE",
"276 390 LINE"
);
}
);
width = 1224;
}
);
leftKerningGroup = LAT_A_UC;
rightKerningGroup = LAT_A_UC;
unicode = 0041;
},
{
glyphname = AE;
lastChange = "2021-01-27 11:27:30 +0000";
layers = (
{
anchors = (
{
name = bottom;
position = "{964, 0}";
},
{
name = top;
position = "{992, 1474}";
}
);
layerId = "AB099EFE-E788-4EFC-8633-CF147CB782A6";
paths = (
{
closed = 1;
nodes = (
"100 0 LINE",
"338 496 LINE",
"758 1390 LINE",
"802 1390 LINE",
"792 1474 LINE",
"740 1474 LINE",
"32 0 LINE"
);
},
{
closed = 1;
nodes = (
"852 476 LINE",
"852 536 LINE",
"310 536 LINE",
"310 476 LINE"
);
},
{
closed = 1;
nodes = (
"1476 0 LINE",
"1476 60 LINE",
"918 60 LINE",
"818 1414 LINE",
"1476 1414 LINE",
"1476 1474 LINE",
"754 1474 LINE",
"826 500 LINE",
"864 0 LINE"
);
},
{
closed = 1;
nodes = (
"1392 726 LINE",
"1392 786 LINE",
"850 786 LINE",
"858 726 LINE"
);
}
);
width = 1612;
},
{
anchors = (
{
name = bottom;
position = "{964, 0}";
},
{
name = top;
position = "{956, 1474}";
}
);
background = {
components = (
{
name = A;
transform = "{1, 0, 0.03492, 1, -8, 0}";
}
);
};
layerId = "2D8F7115-C311-411E-929D-56333CF7FFB2";
paths = (
{
closed = 1;
nodes = (
"372 0 LINE",
"534 480 LINE",
"742 1156 LINE",
"774 1156 LINE",
"770 1474 LINE",
"504 1474 LINE",
"-8 0 LINE"
);
},
{
closed = 1;
nodes = (
"964 272 LINE",
"964 572 LINE",
"354 572 LINE",
"354 272 LINE"
);
},
{
closed = 1;
nodes = (
"1492 0 LINE",
"1492 328 LINE",
"1102 328 LINE",
"1072 1146 LINE",
"1492 1146 LINE",
"1492 1474 LINE",
"742 1474 LINE",
"774 450 LINE",
"790 0 LINE"
);
},
{
closed = 1;
nodes = (
"1420 586 LINE",
"1420 902 LINE",
"1052 902 LINE",
"1072 586 LINE"
);
}
);
width = 1564;
},
{
anchors = (
{
name = bottom;
position = "{966, 0}";
},
{
name = top;
position = "{982, 1474}";
}
);
layerId = "FD1CEFBD-BAB1-4C2A-A598-30E93F9A29F6";
paths = (
{
closed = 1;
nodes = (
"204 0 LINE",
"412 492 LINE",
"754 1306 LINE",
"790 1306 LINE",
"780 1474 LINE",
"668 1474 LINE",
"20 0 LINE"
);
},
{
closed = 1;
nodes = (
"906 390 LINE",
"906 550 LINE",
"328 550 LINE",
"328 390 LINE"
);
},
{
closed = 1;
nodes = (
"1484 0 LINE",
"1484 160 LINE",
"988 160 LINE",
"916 1314 LINE",
"1484 1314 LINE",
"1484 1474 LINE",
"754 1474 LINE",
"810 484 LINE",
"836 0 LINE"
);
},
{
closed = 1;
nodes = (
"1408 670 LINE",
"1408 830 LINE",
"928 830 LINE",
"942 670 LINE"
);
}
);
width = 1596;
}
);
leftKerningGroup = LAT_AE_UC;
rightKerningGroup = LAT_E_UC;
rightMetricsKey = E;
unicode = 00C6;
},
{
glyphname = B;
lastChange = "2023-05-23 02:56:02 +0000";
layers = (
{
anchors = (
{
name = bottom;
position = "{520, 0}";
},
{
name = center;
position = "{224, 422}";
},
{
name = top;
position = "{516, 1474}";
}
);
layerId = "AB099EFE-E788-4EFC-8633-CF147CB782A6";
paths = (
{
closed = 1;
nodes = (
"538 0 LINE SMOOTH",
"788 0 OFFCURVE",
"952 156 OFFCURVE",
"952 390 CURVE SMOOTH",
"952 590 OFFCURVE",
"834 734 OFFCURVE",
"652 770 CURVE",
"656 758 LINE",
"784 816 OFFCURVE",
"858 944 OFFCURVE",
"858 1104 CURVE SMOOTH",
"858 1322 OFFCURVE",
"720 1474 OFFCURVE",
"502 1474 CURVE SMOOTH",
"212 1474 LINE",
"212 1414 LINE",
"502 1414 LINE SMOOTH",
"680 1414 OFFCURVE",
"794 1290 OFFCURVE",
"794 1098 CURVE SMOOTH",
"794 914 OFFCURVE",
"678 786 OFFCURVE",
"524 786 CURVE SMOOTH",
"212 786 LINE",
"212 726 LINE",
"520 726 LINE SMOOTH",
"742 726 OFFCURVE",
"888 598 OFFCURVE",
"888 392 CURVE SMOOTH",
"888 192 OFFCURVE",
"750 60 OFFCURVE",
"538 60 CURVE SMOOTH",
"242 60 LINE",
"242 0 LINE"
);
},
{
closed = 1;
nodes = (
"250 0 LINE",
"250 1474 LINE",
"186 1474 LINE",
"186 0 LINE"
);
}
);
width = 1076;
},
{
anchors = (
{
name = bottom;
position = "{616, 0}";
},
{
name = center;
position = "{288, 462}";
},
{
name = top;
position = "{538, 1474}";
}
);
layerId = "2D8F7115-C311-411E-929D-56333CF7FFB2";
paths = (
{
closed = 1;
nodes = (
"716 0 LINE SMOOTH",
"966 0 OFFCURVE",
"1136 182 OFFCURVE",
"1136 424 CURVE SMOOTH",
"1136 618 OFFCURVE",
"1026 768 OFFCURVE",
"824 806 CURVE",
"812 716 LINE",
"946 768 OFFCURVE",
"1050 924 OFFCURVE",
"1050 1094 CURVE SMOOTH",
"1050 1322 OFFCURVE",
"866 1474 OFFCURVE",
"598 1474 CURVE SMOOTH",
"448 1474 LINE",
"448 1154 LINE",
"578 1154 LINE SMOOTH",
"650 1154 OFFCURVE",
"710 1100 OFFCURVE",
"710 1020 CURVE SMOOTH",
"710 936 OFFCURVE",
"650 876 OFFCURVE",
"578 876 CURVE SMOOTH",
"448 876 LINE",
"448 612 LINE",
"642 612 LINE SMOOTH",
"718 612 OFFCURVE",
"778 556 OFFCURVE",
"778 466 CURVE SMOOTH",
"778 382 OFFCURVE",
"724 320 OFFCURVE",
"642 320 CURVE SMOOTH",
"442 320 LINE",
"442 0 LINE"
);
},
{
closed = 1;
nodes = (
"468 0 LINE",
"468 1474 LINE",
"104 1474 LINE",
"104 0 LINE"
);
}
);
width = 1184;
},
{
anchors = (
{
name = bottom;
position = "{550, 0}";
},
{
name = center;
position = "{242, 426}";
},
{
name = top;
position = "{536, 1474}";
}
);
hints = (
{
horizontal = 1;
origin = "{0, 22}";
type = Delta;
settings = {
deltaV = {
"{100, 370, 0, 0, 0, 0}" = {
"12" = -1;
};
};
};
},
{
horizontal = 1;
origin = "{0, 23}";
type = Delta;
settings = {
deltaV = {
"{100, 370, 0, 0, 0, 0}" = {
"12" = -1;
};
};
};
},
{
horizontal = 1;
origin = "{0, 24}";
type = Delta;
settings = {
deltaV = {
"{100, 370, 0, 0, 0, 0}" = {
"12" = -1;
};
};
};
},
{
horizontal = 1;
origin = "{0, 25}";
type = Delta;
settings = {
deltaV = {
"{100, 370, 0, 0, 0, 0}" = {
"12" = -1;
};
};
};
},
{
horizontal = 1;
origin = "{0, 23, 1, 1}";
type = Delta;
settings = {
deltaV = {
"{100, 370, 0, 0, 0, 0}" = {
"12" = -1;
};
};
};
},
{
horizontal = 1;
origin = "{0, 25, 1, 1}";
type = Delta;
settings = {
deltaV = {
"{100, 370, 0, 0, 0, 0}" = {
"12" = -1;
};
};
};
}
);
layerId = "FD1CEFBD-BAB1-4C2A-A598-30E93F9A29F6";
paths = (
{
closed = 1;
nodes = (
"572 0 LINE SMOOTH",
"834 0 OFFCURVE",
"1004 162 OFFCURVE",
"1004 400 CURVE SMOOTH",
"1004 594 OFFCURVE",
"902 744 OFFCURVE",
"722 794 CURVE",
"722 750 LINE",
"842 800 OFFCURVE",
"922 940 OFFCURVE",
"922 1100 CURVE SMOOTH",
"922 1330 OFFCURVE",
"754 1474 OFFCURVE",
"500 1474 CURVE SMOOTH",
"296 1474 LINE",
"296 1314 LINE",
"504 1314 LINE SMOOTH",
"652 1314 OFFCURVE",
"750 1224 OFFCURVE",
"750 1072 CURVE SMOOTH",
"750 928 OFFCURVE",
"658 828 OFFCURVE",
"518 828 CURVE SMOOTH",
"296 828 LINE",
"296 672 LINE",
"558 672 LINE SMOOTH",
"722 672 OFFCURVE",
"832 572 OFFCURVE",
"832 416 CURVE SMOOTH",
"832 264 OFFCURVE",
"732 160 OFFCURVE",
"578 160 CURVE SMOOTH",
"314 160 LINE",
"314 0 LINE"
);
},
{
closed = 1;
nodes = (
"328 0 LINE",
"328 1474 LINE",
"156 1474 LINE",
"156 0 LINE"
);
}
);
width = 1100;
}
);
leftKerningGroup = LAT_H_UC;
leftMetricsKey = H;
rightKerningGroup = LAT_B_UC;
unicode = 0042;
},
{
glyphname = C;
lastChange = "2023-05-23 02:56:02 +0000";
layers = (
{
anchors = (
{
name = base;
position = "{744, 0}";
},
{
name = bottom;
position = "{710, 0}";
},
{
name = cedilla;
position = "{712, 0}";
},
{
name = top;
position = "{710, 1474}";
}
);
guideLines = (
{
angle = 112.5;
position = "{968, 720}";
},
{
angle = 67.5;
position = "{968, 720}";
}
);
layerId = "AB099EFE-E788-4EFC-8633-CF147CB782A6";
paths = (
{
closed = 1;
nodes = (
"832 -16 OFFCURVE",
"984 50 OFFCURVE",
"1080 156 CURVE",
"1052 220 LINE",
"972 110 OFFCURVE",
"830 44 OFFCURVE",
"688 44 CURVE SMOOTH",
"380 44 OFFCURVE",
"180 316 OFFCURVE",
"180 736 CURVE SMOOTH",
"180 1157 OFFCURVE",
"382 1430 OFFCURVE",
"694 1430 CURVE SMOOTH",
"832 1430 OFFCURVE",
"970 1368 OFFCURVE",
"1050 1272 CURVE",
"1076 1336 LINE",
"984 1426 OFFCURVE",
"840 1490 OFFCURVE",
"690 1490 CURVE SMOOTH",
"342 1490 OFFCURVE",
"116 1194 OFFCURVE",
"116 736 CURVE SMOOTH",
"116 279 OFFCURVE",
"338 -16 OFFCURVE",
"682 -16 CURVE SMOOTH"
);
}
);
width = 1168;
},
{
anchors = (
{
name = base;
position = "{712, 0}";
},
{
name = bottom;
position = "{706, 0}";
},
{
name = cedilla;
position = "{730, 0}";
},
{
name = top;
position = "{696, 1474}";
}
);
guideLines = (
{
angle = 112.5;
position = "{846, 740}";
},
{
angle = 67.5;
position = "{846, 740}";
}
);
layerId = "2D8F7115-C311-411E-929D-56333CF7FFB2";
paths = (
{
closed = 1;
nodes = (
"860 -16 OFFCURVE",
"996 18 OFFCURVE",
"1110 92 CURVE",
"976 416 LINE",
"930 354 OFFCURVE",
"830 320 OFFCURVE",
"736 320 CURVE SMOOTH",
"530 320 OFFCURVE",
"396 484 OFFCURVE",
"396 740 CURVE SMOOTH",
"396 992 OFFCURVE",
"524 1154 OFFCURVE",
"722 1154 CURVE SMOOTH",
"814 1154 OFFCURVE",
"914 1124 OFFCURVE",
"968 1056 CURVE",
"1104 1380 LINE",
"990 1454 OFFCURVE",
"850 1490 OFFCURVE",
"708 1490 CURVE SMOOTH",
"298 1490 OFFCURVE",
"32 1194 OFFCURVE",
"32 740 CURVE SMOOTH",
"32 282 OFFCURVE",
"304 -16 OFFCURVE",
"722 -16 CURVE SMOOTH"
);
}
);
width = 1146;
},
{
anchors = (
{
name = base;
position = "{736, 0}";
},
{
name = bottom;
position = "{710, 0}";
},
{
name = cedilla;
position = "{722, 0}";
},
{
name = top;
position = "{708, 1474}";
}
);
guideLines = (
{
angle = 112.5;
position = "{884, 740}";
},
{
angle = 67.5;
position = "{884, 740}";
}
);
layerId = "FD1CEFBD-BAB1-4C2A-A598-30E93F9A29F6";
paths = (
{
closed = 1;
nodes = (
"850 -16 OFFCURVE",
"1008 42 OFFCURVE",
"1112 136 CURVE",
"1042 302 LINE",
"968 210 OFFCURVE",
"844 144 OFFCURVE",
"720 144 CURVE SMOOTH",
"440 144 OFFCURVE",
"260 380 OFFCURVE",
"260 738 CURVE SMOOTH",
"260 1096 OFFCURVE",
"444 1330 OFFCURVE",
"730 1330 CURVE SMOOTH",
"846 1330 OFFCURVE",
"970 1274 OFFCURVE",
"1042 1192 CURVE",
"1110 1356 LINE",
"1014 1436 OFFCURVE",
"854 1490 OFFCURVE",
"716 1490 CURVE SMOOTH",
"332 1490 OFFCURVE",
"84 1194 OFFCURVE",
"84 738 CURVE SMOOTH",
"84 280 OFFCURVE",
"330 -16 OFFCURVE",
"708 -16 CURVE SMOOTH"
);
}
);
width = 1182;
}
);
leftKerningGroup = LAT_O_UC;
leftMetricsKey = O;
rightKerningGroup = LAT_C_UC;
unicode = 0043;
},
{
glyphname = D;
lastChange = "2023-05-23 02:56:02 +0000";
layers = (
{
anchors = (
{
name = bottom;
position = "{612, 0}";
},
{
name = center;
position = "{218, 758}";
},
{
name = top;
position = "{610, 1474}";
}
);
layerId = "AB099EFE-E788-4EFC-8633-CF147CB782A6";
paths = (
{
closed = 1;
nodes = (
"536 0 LINE SMOOTH",
"918 0 OFFCURVE",
"1140 298 OFFCURVE",
"1140 746 CURVE SMOOTH",
"1140 1192 OFFCURVE",
"918 1474 OFFCURVE",
"536 1474 CURVE SMOOTH",
"186 1474 LINE",
"186 0 LINE"
);
},
{
closed = 1;
nodes = (
"250 1414 LINE",
"530 1414 LINE SMOOTH",
"876 1414 OFFCURVE",
"1076 1158 OFFCURVE",
"1076 746 CURVE SMOOTH",
"1076 336 OFFCURVE",
"878 60 OFFCURVE",
"530 60 CURVE SMOOTH",
"250 60 LINE"
);
}
);
width = 1256;
},
{
anchors = (
{
name = bottom;
position = "{590, 0}";
},
{
name = center;
position = "{286, 738}";
},
{
name = top;
position = "{594, 1474}";
}
);
layerId = "2D8F7115-C311-411E-929D-56333CF7FFB2";
paths = (
{
closed = 1;
nodes = (
"578 0 LINE SMOOTH",
"970 0 OFFCURVE",
"1238 310 OFFCURVE",
"1238 740 CURVE SMOOTH",
"1238 1182 OFFCURVE",
"956 1474 OFFCURVE",
"548 1474 CURVE SMOOTH",
"104 1474 LINE",
"104 0 LINE"
);
},
{
closed = 1;
nodes = (
"468 1146 LINE",
"592 1146 LINE SMOOTH",
"760 1146 OFFCURVE",
"874 984 OFFCURVE",
"874 742 CURVE SMOOTH",
"874 498 OFFCURVE",
"760 328 OFFCURVE",
"592 328 CURVE SMOOTH",
"468 328 LINE"
);
}
);
width = 1270;
},
{
anchors = (
{
name = bottom;
position = "{604, 0}";
},
{
name = center;
position = "{244, 750}";
},
{
name = top;
position = "{604, 1474}";
}
);
layerId = "FD1CEFBD-BAB1-4C2A-A598-30E93F9A29F6";
paths = (
{
closed = 1;
nodes = (
"548 0 LINE SMOOTH",
"918 0 OFFCURVE",
"1180 304 OFFCURVE",
"1180 750 CURVE SMOOTH",
"1180 1180 OFFCURVE",
"914 1476 OFFCURVE",
"536 1476 CURVE SMOOTH",
"156 1476 LINE",
"156 0 LINE"
);
},
{
closed = 1;
nodes = (
"332 1316 LINE",
"538 1316 LINE SMOOTH",
"822 1316 OFFCURVE",
"1004 1086 OFFCURVE",
"1004 750 CURVE SMOOTH",
"1004 400 OFFCURVE",
"822 160 OFFCURVE",
"538 160 CURVE SMOOTH",
"332 160 LINE"
);
}
);
width = 1264;
}
);
leftKerningGroup = LAT_H_UC;
leftMetricsKey = H;
rightKerningGroup = LAT_O_UC;
rightMetricsKey = O;
unicode = 0044;
},
{
glyphname = E;
lastChange = "2023-05-23 06:57:45 +0000";
layers = (
{
anchors = (
{
name = bottom;
position = "{532, 0}";
},
{
name = cedilla;
position = "{522, 0}";
},
{
name = ogonek;
position = "{858, 0}";
},
{
name = top;
position = "{522, 1474}";
},
{
name = topleft;
position = "{44, 1474}";
}
);
hints = (
{
horizontal = 1;
origin = "{0, 11}";
target = "{0, 2}";
type = TTStem;
options = 4;
},
{
horizontal = 1;
origin = "{0, 3}";
target = "{0, 6}";
type = TTStem;
options = 1;
},
{
horizontal = 1;
origin = "{0, 10}";
target = "{0, 7}";
type = TTStem;
options = 4;
},
{
horizontal = 1;
origin = "{0, 4}";
type = Anchor;
options = 1;
},
{
horizontal = 1;
origin = "{0, 3}";
type = Anchor;
options = 1;
},
{
horizontal = 1;
origin = "{0, 4}";
type = Anchor;
options = 1;
},
{
horizontal = 1;
origin = "{0, 5}";
type = Anchor;
options = 1;
},
{
horizontal = 1;
origin = "{0, 6}";
type = Anchor;
options = 1;
}
);
layerId = "AB099EFE-E788-4EFC-8633-CF147CB782A6";
paths = (
{
closed = 1;
nodes = (
"858 0 LINE",
"858 60 LINE",
"250 60 LINE",
"250 726 LINE",
"778 726 LINE",
"778 786 LINE",
"250 786 LINE",
"250 1414 LINE",
"858 1414 LINE",
"858 1474 LINE",
"186 1474 LINE",
"186 0 LINE"
);
}
);
width = 994;
},
{
anchors = (
{
name = bottom;
position = "{518, 0}";
},
{
name = cedilla;
position = "{518, 0}";
},
{
name = ogonek;
position = "{906, 0}";
},
{
name = top;
position = "{518, 1474}";
},
{
name = topleft;
position = "{16, 1474}";
}
);
hints = (
{
horizontal = 1;
origin = "{0, 11}";
target = "{0, 2}";
type = TTStem;
options = 4;
},
{
horizontal = 1;
origin = "{0, 3}";
target = "{0, 6}";
type = TTStem;
options = 1;
},
{
horizontal = 1;
origin = "{0, 10}";
target = "{0, 7}";
type = TTStem;
options = 4;
},
{
horizontal = 1;
origin = "{0, 4}";
type = Anchor;
options = 1;
},
{
horizontal = 1;
origin = "{0, 3}";
type = Anchor;
options = 1;
},
{
horizontal = 1;
origin = "{0, 4}";
type = Anchor;
options = 1;
},
{
horizontal = 1;
origin = "{0, 5}";
type = Anchor;
options = 1;
},
{
horizontal = 1;
origin = "{0, 6}";
type = Anchor;
options = 1;
}
);
layerId = "2D8F7115-C311-411E-929D-56333CF7FFB2";
paths = (
{
closed = 1;
nodes = (
"906 0 LINE",
"906 328 LINE",
"468 328 LINE",
"468 586 LINE",
"832 586 LINE",
"832 902 LINE",
"468 902 LINE",
"468 1146 LINE",
"906 1146 LINE",
"906 1474 LINE",
"104 1474 LINE",
"104 0 LINE"
);
}
);
width = 978;
},
{
anchors = (
{
name = bottom;
position = "{522, 0}";
},
{
name = cedilla;
position = "{514, 0}";
},
{
name = ogonek;
position = "{862, 0}";
},
{
name = top;
position = "{514, 1474}";
},
{
name = topleft;
position = "{38, 1474}";
}
);
hints = (
{
horizontal = 1;
origin = "{0, 11}";
target = "{0, 2}";
type = TTStem;
options = 4;
},
{
horizontal = 1;
origin = "{0, 3}";
target = "{0, 6}";
type = TTStem;
options = 1;
},
{
horizontal = 1;
origin = "{0, 10}";
target = "{0, 7}";
type = TTStem;
options = 4;
},
{
horizontal = 1;
origin = "{0, 4}";
type = Anchor;
options = 1;
},
{
horizontal = 1;
origin = "{0, 3}";
type = Anchor;
options = 1;
},
{
horizontal = 1;
origin = "{0, 4}";
type = Anchor;
options = 1;
},
{
horizontal = 1;
origin = "{0, 5}";
type = Anchor;
options = 1;
},
{
horizontal = 1;
origin = "{0, 6}";
type = Anchor;
options = 1;
}
);
layerId = "FD1CEFBD-BAB1-4C2A-A598-30E93F9A29F6";
paths = (
{
closed = 1;
nodes = (
"862 0 LINE",
"862 160 LINE",
"332 160 LINE",
"332 670 LINE",
"790 670 LINE",
"790 830 LINE",
"332 830 LINE",
"332 1314 LINE",
"862 1314 LINE",
"862 1474 LINE",
"156 1474 LINE",
"156 0 LINE"
);
}
);
width = 974;
}
);
leftKerningGroup = LAT_H_UC;
leftMetricsKey = H;
rightKerningGroup = LAT_E_UC;
unicode = 0045;
},
{
glyphname = Schwa;
lastChange = "2023-05-23 02:56:02 +0000";
layers = (
{
anchors = (
{
name = bottom;
position = "{648, 0}";
},
{
name = top;
position = "{648, 1474}";
}
);
layerId = "AB099EFE-E788-4EFC-8633-CF147CB782A6";
paths = (
{
closed = 1;
nodes = (
"938 -16 OFFCURVE",
"1178 312 OFFCURVE",
"1178 748 CURVE SMOOTH",
"1178 1170 OFFCURVE",
"968 1490 OFFCURVE",
"628 1490 CURVE SMOOTH",
"466 1490 OFFCURVE",
"298 1418 OFFCURVE",
"216 1336 CURVE",
"244 1272 LINE",
"320 1366 OFFCURVE",
"482 1430 OFFCURVE",
"622 1430 CURVE SMOOTH",
"928 1430 OFFCURVE",
"1114 1126 OFFCURVE",
"1114 738 CURVE SMOOTH",
"1114 332 OFFCURVE",
"894 44 OFFCURVE",
"608 44 CURVE SMOOTH",
"314 44 OFFCURVE",
"180 346 OFFCURVE",
"180 698 CURVE",
"1138 698 LINE",
"1138 758 LINE",
"116 758 LINE",
"116 704 LINE SMOOTH",
"116 274 OFFCURVE",
"294 -16 OFFCURVE",
"606 -16 CURVE SMOOTH"
);
}
);
width = 1294;
},
{
anchors = (
{
name = bottom;
position = "{648, 0}";
},
{
name = top;
position = "{654, 1474}";
}
);
layerId = "2D8F7115-C311-411E-929D-56333CF7FFB2";
paths = (
{
closed = 1;
nodes = (
"1030 -16 OFFCURVE",
"1288 276 OFFCURVE",
"1288 728 CURVE SMOOTH",
"1288 1190 OFFCURVE",
"1020 1490 OFFCURVE",
"616 1490 CURVE SMOOTH",
"462 1490 OFFCURVE",
"308 1446 OFFCURVE",
"194 1378 CURVE",
"330 1060 LINE",
"380 1106 OFFCURVE",
"472 1154 OFFCURVE",
"598 1154 CURVE SMOOTH",
"804 1154 OFFCURVE",
"924 1026 OFFCURVE",
"924 734 CURVE SMOOTH",
"924 454 OFFCURVE",
"816 320 OFFCURVE",
"652 320 CURVE SMOOTH",
"516 320 OFFCURVE",
"418 414 OFFCURVE",
"418 568 CURVE",
"962 568 LINE",
"962 872 LINE",
"60 872 LINE",
"60 622 LINE SMOOTH",
"60 246 OFFCURVE",
"286 -16 OFFCURVE",
"648 -16 CURVE SMOOTH"
);
}
);
width = 1320;
},
{
anchors = (
{
name = bottom;
position = "{636, 0}";
},
{
name = top;
position = "{648, 1474}";
}
);
layerId = "FD1CEFBD-BAB1-4C2A-A598-30E93F9A29F6";
paths = (
{
closed = 1;
nodes = (
"968 -16 OFFCURVE",
"1222 292 OFFCURVE",
"1222 732 CURVE SMOOTH",
"1222 1182 OFFCURVE",
"960 1490 OFFCURVE",
"608 1490 CURVE SMOOTH",
"458 1490 OFFCURVE",
"306 1434 OFFCURVE",
"200 1352 CURVE",
"268 1188 LINE",
"354 1274 OFFCURVE",
"470 1330 OFFCURVE",
"596 1330 CURVE SMOOTH",
"860 1330 OFFCURVE",
"1046 1088 OFFCURVE",
"1046 734 CURVE SMOOTH",
"1046 386 OFFCURVE",
"864 144 OFFCURVE",
"622 144 CURVE SMOOTH",
"398 144 OFFCURVE",
"260 350 OFFCURVE",
"260 640 CURVE",
"1072 640 LINE",
"1072 800 LINE",
"88 800 LINE",
"88 674 LINE SMOOTH",
"88 264 OFFCURVE",
"296 -16 OFFCURVE",
"624 -16 CURVE SMOOTH"
);
}
);
width = 1306;
}
);
leftKerningGroup = LAT_SCHWA_UC;
rightKerningGroup = LAT_O_UC;
rightMetricsKey = O;
unicode = 018F;
},
{
glyphname = F;
lastChange = "2023-05-23 02:56:02 +0000";
layers = (
{
anchors = (
{
name = bottom;
position = "{218, 0}";
},
{
name = center;
position = "{218, 376}";
},
{
name = top;
position = "{540, 1474}";
}
);
layerId = "AB099EFE-E788-4EFC-8633-CF147CB782A6";
paths = (
{
closed = 1;
nodes = (
"250 0 LINE",
"250 726 LINE",
"768 726 LINE",
"768 786 LINE",
"250 786 LINE",
"250 1414 LINE",
"836 1414 LINE",
"836 1474 LINE",
"186 1474 LINE",
"186 0 LINE"
);
}
);
width = 920;
},
{
anchors = (
{
name = bottom;
position = "{288, 0}";
},
{
name = center;
position = "{288, 292}";
},
{
name = top;
position = "{560, 1474}";
}
);
layerId = "2D8F7115-C311-411E-929D-56333CF7FFB2";
paths = (
{
closed = 1;
nodes = (
"468 0 LINE",
"468 524 LINE",
"832 524 LINE",
"832 852 LINE",
"468 852 LINE",
"468 1146 LINE",
"906 1146 LINE",
"906 1474 LINE",
"104 1474 LINE",
"104 0 LINE"
);
}
);
width = 938;
},
{
anchors = (
{
name = bottom;
position = "{244, 0}";
},
{
name = center;
position = "{244, 346}";
},
{
name = top;
position = "{542, 1474}";
}
);
layerId = "FD1CEFBD-BAB1-4C2A-A598-30E93F9A29F6";
paths = (
{
closed = 1;
nodes = (
"332 0 LINE",
"332 650 LINE",
"778 650 LINE",
"778 810 LINE",
"332 810 LINE",
"332 1314 LINE",
"850 1314 LINE",
"850 1474 LINE",
"156 1474 LINE",
"156 0 LINE"
);
}
);
width = 918;
}
);
leftKerningGroup = LAT_H_UC;
leftMetricsKey = H;
rightKerningGroup = LAT_F_UC;
unicode = 0046;
},
{
glyphname = G;
lastChange = "2023-05-23 02:56:02 +0000";
layers = (
{
anchors = (
{
name = bottom;
position = "{676, 0}";
},
{
name = hook;
position = "{1090, 1336}";
},
{
name = top;
position = "{674, 1474}";
}
);
layerId = "AB099EFE-E788-4EFC-8633-CF147CB782A6";
paths = (
{
closed = 1;
nodes = (
"1002 -16 OFFCURVE",
"1176 272 OFFCURVE",
"1176 704 CURVE SMOOTH",
"1176 758 LINE",
"654 758 LINE",
"654 698 LINE",
"1112 698 LINE",
"1112 346 OFFCURVE",
"984 44 OFFCURVE",
"674 44 CURVE SMOOTH",
"384 44 OFFCURVE",
"180 314 OFFCURVE",
"180 730 CURVE SMOOTH",
"180 1156 OFFCURVE",
"392 1430 OFFCURVE",
"704 1430 CURVE SMOOTH",
"846 1430 OFFCURVE",
"980 1374 OFFCURVE",
"1062 1272 CURVE",
"1090 1336 LINE",
"1008 1418 OFFCURVE",
"868 1490 OFFCURVE",
"696 1490 CURVE SMOOTH",
"350 1490 OFFCURVE",
"116 1196 OFFCURVE",
"116 738 CURVE SMOOTH",
"116 280 OFFCURVE",
"348 -16 OFFCURVE",
"676 -16 CURVE SMOOTH"
);
}
);
width = 1308;
},
{
anchors = (
{
name = bottom;
position = "{702, 0}";
},
{
name = hook;
position = "{1126, 1378}";
},
{
name = top;
position = "{678, 1474}";
}
);
layerId = "2D8F7115-C311-411E-929D-56333CF7FFB2";
paths = (
{
closed = 1;
nodes = (
"1034 -16 OFFCURVE",
"1260 246 OFFCURVE",
"1260 622 CURVE SMOOTH",
"1260 872 LINE",
"658 872 LINE",
"658 568 LINE",
"902 568 LINE",
"902 418 OFFCURVE",
"812 320 OFFCURVE",
"680 320 CURVE SMOOTH",
"510 320 OFFCURVE",
"396 484 OFFCURVE",
"396 734 CURVE SMOOTH",
"396 994 OFFCURVE",
"516 1154 OFFCURVE",
"718 1154 CURVE SMOOTH",
"812 1154 OFFCURVE",
"942 1114 OFFCURVE",
"990 1056 CURVE",
"1126 1378 LINE",
"1012 1446 OFFCURVE",
"858 1490 OFFCURVE",
"704 1490 CURVE SMOOTH",
"300 1490 OFFCURVE",
"32 1190 OFFCURVE",
"32 728 CURVE SMOOTH",
"32 276 OFFCURVE",
"290 -16 OFFCURVE",
"672 -16 CURVE SMOOTH"
);
}
);
width = 1304;
},
{
anchors = (
{
name = bottom;
position = "{684, 0}";
},
{
name = hook;
position = "{1106, 1352}";
},
{
name = top;
position = "{674, 1474}";
}
);
layerId = "FD1CEFBD-BAB1-4C2A-A598-30E93F9A29F6";
paths = (
{
closed = 1;
nodes = (
"1010 -16 OFFCURVE",
"1218 264 OFFCURVE",
"1218 674 CURVE SMOOTH",
"1218 800 LINE",
"656 800 LINE",
"656 640 LINE",
"1046 640 LINE",
"1046 352 OFFCURVE",
"908 144 OFFCURVE",
"682 144 CURVE SMOOTH",
"426 144 OFFCURVE",
"260 376 OFFCURVE",
"260 734 CURVE SMOOTH",
"260 1094 OFFCURVE",
"438 1330 OFFCURVE",
"712 1330 CURVE SMOOTH",
"836 1330 OFFCURVE",
"962 1274 OFFCURVE",
"1038 1188 CURVE",
"1106 1352 LINE",
"1004 1430 OFFCURVE",
"856 1490 OFFCURVE",
"698 1490 CURVE SMOOTH",
"326 1490 OFFCURVE",
"84 1192 OFFCURVE",
"84 732 CURVE SMOOTH",
"84 278 OFFCURVE",
"320 -16 OFFCURVE",
"680 -16 CURVE SMOOTH"
);
}
);
width = 1310;
}
);
leftKerningGroup = LAT_O_UC;
leftMetricsKey = O;
rightKerningGroup = LAT_G_UC;
unicode = 0047;
},
{
glyphname = H;
lastChange = "2023-05-23 02:56:02 +0000";
layers = (
{
anchors = (
{
name = bottom;
position = "{622, 0}";
},
{
name = center;
position = "{622, 1086}";
},
{
name = top;
position = "{622, 1474}";
}
);
layerId = "AB099EFE-E788-4EFC-8633-CF147CB782A6";
paths = (
{
closed = 1;
nodes = (
"250 0 LINE",
"250 726 LINE",
"996 726 LINE",
"996 0 LINE",
"1060 0 LINE",
"1060 1474 LINE",
"996 1474 LINE",
"996 786 LINE",
"250 786 LINE",
"250 1474 LINE",
"186 1474 LINE",
"186 0 LINE"
);
}
);
width = 1246;
},
{
anchors = (
{
name = bottom;
position = "{668, 0}";
},
{
name = center;
position = "{668, 1182}";
},
{
name = top;
position = "{668, 1474}";
}
);
layerId = "2D8F7115-C311-411E-929D-56333CF7FFB2";
paths = (
{
closed = 1;
nodes = (
"468 0 LINE",
"468 578 LINE",
"868 578 LINE",
"868 0 LINE",
"1232 0 LINE",
"1232 1474 LINE",
"868 1474 LINE",
"868 906 LINE",
"468 906 LINE",
"468 1474 LINE",
"104 1474 LINE",
"104 0 LINE"
);
}
);
width = 1336;
},
{
anchors = (
{
name = bottom;
position = "{646, 0}";
},
{
name = center;
position = "{646, 1120}";
},
{
name = top;
position = "{646, 1474}";
}
);
layerId = "FD1CEFBD-BAB1-4C2A-A598-30E93F9A29F6";
paths = (
{
closed = 1;
nodes = (
"332 0 LINE",
"332 674 LINE",
"952 674 LINE",
"952 0 LINE",
"1128 0 LINE",
"1128 1474 LINE",
"952 1474 LINE",
"952 834 LINE",
"332 834 LINE",
"332 1474 LINE",
"156 1474 LINE",
"156 0 LINE"
);
}
);
width = 1284;
}
);
leftKerningGroup = LAT_H_UC;
rightKerningGroup = LAT_H_UC;
unicode = 0048;
},
{
glyphname = I;
lastChange = "2022-02-10 04:44:59 +0000";
layers = (
{
anchors = (
{
name = bottom;
position = "{226, 0}";
},
{
name = ogonek;
position = "{258, 0}";
},
{
name = top;
position = "{226, 1474}";
}
);
layerId = "AB099EFE-E788-4EFC-8633-CF147CB782A6";
paths = (
{
closed = 1;
nodes = (
"258 0 LINE",
"258 1474 LINE",
"194 1474 LINE",
"194 0 LINE"
);
}
);
width = 454;
},
{
anchors = (
{
name = bottom;
position = "{308, 0}";
},
{
name = ogonek;
position = "{490, 0}";
},
{
name = top;
position = "{308, 1474}";
}
);
layerId = "2D8F7115-C311-411E-929D-56333CF7FFB2";
paths = (
{
closed = 1;
nodes = (
"490 0 LINE",
"490 1474 LINE",
"126 1474 LINE",
"126 0 LINE"
);
}
);
width = 616;
},
{
anchors = (
{
name = bottom;
position = "{258, 0}";
},
{
name = ogonek;
position = "{346, 0}";
},
{
name = top;
position = "{258, 1474}";
}
);
layerId = "FD1CEFBD-BAB1-4C2A-A598-30E93F9A29F6";
paths = (
{
closed = 1;
nodes = (
"346 0 LINE",
"346 1474 LINE",
"170 1474 LINE",
"170 0 LINE"
);
}
);
width = 518;
}
);
leftKerningGroup = LAT_H_UC;
rightKerningGroup = LAT_H_UC;
unicode = 0049;
},
{
color = 10;
glyphname = I.ss03;
lastChange = "2023-05-23 02:56:02 +0000";
layers = (
{
anchors = (
{
name = bottom;
position = "{330, 0}";
},
{
name = ogonek;
position = "{518, 0}";
},
{
name = top;
position = "{330, 1474}";
}
);
layerId = "AB099EFE-E788-4EFC-8633-CF147CB782A6";
paths = (
{
closed = 1;
nodes = (
"364 0 LINE",
"364 1474 LINE",
"300 1474 LINE",
"300 0 LINE"
);
},
{
closed = 1;
nodes = (
"518 0 LINE",
"518 60 LINE",
"146 60 LINE",
"146 0 LINE"
);
},
{
closed = 1;
nodes = (
"518 1416 LINE",
"518 1474 LINE",
"146 1474 LINE",
"146 1416 LINE"
);
}
);
width = 664;
},
{
anchors = (
{
name = bottom;
position = "{448, 0}";
},
{
name = ogonek;
position = "{796, 0}";
},
{
name = top;
position = "{448, 1474}";
}
);
layerId = "2D8F7115-C311-411E-929D-56333CF7FFB2";
paths = (
{
closed = 1;
nodes = (
"630 0 LINE",
"630 1474 LINE",
"266 1474 LINE",
"266 0 LINE"
);
},
{
closed = 1;
nodes = (
"796 0 LINE",
"796 320 LINE",
"96 320 LINE",
"96 0 LINE"
);
},
{
closed = 1;
nodes = (
"796 1154 LINE",
"796 1474 LINE",
"96 1474 LINE",
"96 1154 LINE"
);
}
);
width = 894;
},
{
anchors = (
{
name = bottom;
position = "{374, 0}";
},
{
name = ogonek;
position = "{626, 0}";
},
{
name = top;
position = "{374, 1474}";
}
);
layerId = "FD1CEFBD-BAB1-4C2A-A598-30E93F9A29F6";
paths = (
{
closed = 1;
nodes = (
"462 0 LINE",
"462 1474 LINE",
"286 1474 LINE",
"286 0 LINE"
);
},
{
closed = 1;
nodes = (
"626 0 LINE",
"626 160 LINE",
"124 160 LINE",
"124 0 LINE"
);
},
{
closed = 1;
nodes = (
"626 1314 LINE",
"626 1474 LINE",
"124 1474 LINE",
"124 1314 LINE"
);
}
);
width = 750;
}
);
leftKerningGroup = LAT_ISS03_UC;
rightKerningGroup = LAT_ISS03_UC;
},
{
glyphname = J;
lastChange = "2023-05-23 02:56:02 +0000";
layers = (
{
anchors = (
{
name = bottom;
position = "{388, 0}";
},
{
name = top;
position = "{610, 1474}";
}
);
layerId = "AB099EFE-E788-4EFC-8633-CF147CB782A6";
paths = (
{
closed = 1;
nodes = (
"532 -16 OFFCURVE",
"654 122 OFFCURVE",
"654 322 CURVE SMOOTH",
"654 1474 LINE",
"590 1474 LINE",
"590 318 LINE SMOOTH",
"590 156 OFFCURVE",
"494 44 OFFCURVE",
"360 44 CURVE SMOOTH",
"222 44 OFFCURVE",
"122 162 OFFCURVE",
"120 346 CURVE",
"56 346 LINE",
"60 126 OFFCURVE",
"186 -16 OFFCURVE",
"360 -16 CURVE SMOOTH"
);
}
);
width = 840;
},
{
anchors = (
{
name = bottom;
position = "{522, 0}";
},
{
name = top;
position = "{724, 1474}";
}
);
layerId = "2D8F7115-C311-411E-929D-56333CF7FFB2";
paths = (
{
closed = 1;
nodes = (
"750 -16 OFFCURVE",
"914 144 OFFCURVE",
"914 424 CURVE SMOOTH",
"914 1474 LINE",
"550 1474 LINE",
"550 422 LINE SMOOTH",
"550 352 OFFCURVE",
"516 312 OFFCURVE",
"462 312 CURVE SMOOTH",
"390 312 OFFCURVE",
"358 380 OFFCURVE",
"358 510 CURVE",
"20 510 LINE",
"20 166 OFFCURVE",
"166 -16 OFFCURVE",
"468 -16 CURVE SMOOTH"
);
}
);
width = 1018;
},
{
anchors = (
{
name = bottom;
position = "{424, 0}";
},
{
name = top;
position = "{656, 1474}";
}
);
layerId = "FD1CEFBD-BAB1-4C2A-A598-30E93F9A29F6";
paths = (
{
closed = 1;
nodes = (
"608 -16 OFFCURVE",
"750 128 OFFCURVE",
"750 352 CURVE SMOOTH",
"750 1474 LINE",
"574 1474 LINE",
"574 328 LINE SMOOTH",
"574 210 OFFCURVE",
"502 144 OFFCURVE",
"402 144 CURVE SMOOTH",
"282 144 OFFCURVE",
"216 242 OFFCURVE",
"212 426 CURVE",
"40 426 LINE",
"46 148 OFFCURVE",
"178 -16 OFFCURVE",
"398 -16 CURVE SMOOTH"
);
}
);
width = 906;
}
);
leftKerningGroup = LAT_J_UC;
rightKerningGroup = LAT_U_UC;
rightMetricsKey = H;
unicode = 004A;
},
{
glyphname = K;
lastChange = "2023-05-23 02:56:02 +0000";
layers = (
{
anchors = (
{
name = bottom;
position = "{530, 0}";
},
{
name = top;
position = "{528, 1474}";
}
);
layerId = "AB099EFE-E788-4EFC-8633-CF147CB782A6";
paths = (
{
closed = 1;
nodes = (
"250 0 LINE",
"250 708 LINE",
"278 708 LINE",
"246 734 LINE",
"852 0 LINE",
"940 0 LINE",
"306 762 LINE",
"306 716 LINE",
"902 1474 LINE",
"814 1474 LINE",
"246 742 LINE",
"278 766 LINE",
"250 766 LINE",
"250 1474 LINE",
"186 1474 LINE",
"186 0 LINE"
);
}
);
width = 1016;
},
{
anchors = (
{
name = bottom;
position = "{642, 0}";
},
{
name = top;
position = "{604, 1474}";
}
);
guideLines = (
{
angle = 120;
position = "{650, 0}";
}
);
layerId = "2D8F7115-C311-411E-929D-56333CF7FFB2";
paths = (
{
closed = 1;
nodes = (
"468 0 LINE",
"468 638 LINE",
"552 638 LINE",
"442 692 LINE",
"838 0 LINE",
"1252 0 LINE",
"748 844 LINE",
"748 646 LINE",
"1242 1474 LINE",
"818 1474 LINE",
"442 774 LINE",
"552 828 LINE",
"468 828 LINE",
"468 1474 LINE",
"104 1474 LINE",
"104 0 LINE"
);
}
);
width = 1248;
},
{
anchors = (
{
name = bottom;
position = "{574, 0}";
},
{
name = top;
position = "{558, 1474}";
}
);
layerId = "FD1CEFBD-BAB1-4C2A-A598-30E93F9A29F6";
paths = (
{
closed = 1;
nodes = (
"332 0 LINE",
"332 682 LINE",
"382 682 LINE",
"318 718 LINE",
"844 0 LINE",
"1058 0 LINE",
"470 794 LINE",
"470 690 LINE",
"1030 1474 LINE",
"814 1474 LINE",
"318 754 LINE",
"382 790 LINE",
"332 790 LINE",
"332 1474 LINE",
"156 1474 LINE",
"156 0 LINE"
);
}
);
width = 1102;
}
);
leftKerningGroup = LAT_H_UC;
leftMetricsKey = H;
rightKerningGroup = LAT_K_UC;
unicode = 004B;
},
{
glyphname = L;
lastChange = "2023-05-23 02:56:02 +0000";
layers = (
{
anchors = (
{
name = bottom;
position = "{522, 0}";
},
{
name = center;
position = "{218, 738}";
},
{
name = dot;
position = "{668, 738}";
},
{
name = top;
position = "{218, 1474}";
},
{
name = topright;
position = "{664, 1474}";
}
);
layerId = "AB099EFE-E788-4EFC-8633-CF147CB782A6";
paths = (
{
closed = 1;
nodes = (
"834 0 LINE",
"834 60 LINE",
"250 60 LINE",
"250 1474 LINE",
"186 1474 LINE",
"186 0 LINE"
);
}
);
width = 894;
},
{
anchors = (
{
name = bottom;
position = "{494, 0}";
},
{
name = center;
position = "{284, 758}";
},
{
name = dot;
position = "{754, 754}";
},
{
name = top;
position = "{296, 1474}";
},
{
name = topright;
position = "{522, 1474}";
}
);
layerId = "2D8F7115-C311-411E-929D-56333CF7FFB2";
paths = (
{
closed = 1;
nodes = (
"866 0 LINE",
"866 328 LINE",
"468 328 LINE",
"468 1474 LINE",
"104 1474 LINE",
"104 0 LINE"
);
}
);
width = 876;
},
{
anchors = (
{
name = bottom;
position = "{512, 0}";
},
{
name = center;
position = "{244, 746}";
},
{
name = dot;
position = "{698, 746}";
},
{
name = top;
position = "{246, 1474}";
},
{
name = topright;
position = "{610, 1474}";
}
);
layerId = "FD1CEFBD-BAB1-4C2A-A598-30E93F9A29F6";
paths = (
{
closed = 1;
nodes = (
"846 0 LINE",
"846 160 LINE",
"332 160 LINE",
"332 1474 LINE",
"156 1474 LINE",
"156 0 LINE"
);
}
);
width = 890;
}
);
leftKerningGroup = LAT_H_UC;
leftMetricsKey = H;
rightKerningGroup = LAT_L_UC;
unicode = 004C;
},
{
glyphname = M;
lastChange = "2023-05-23 04:56:02 +0000";
layers = (
{
anchors = (
{
name = bottom;
position = "{698, 0}";
},
{
name = top;
position = "{698, 1474}";
}
);
layerId = "AB099EFE-E788-4EFC-8633-CF147CB782A6";
paths = (
{
closed = 1;
nodes = (
"250 0 LINE",
"250 1076 LINE",
"250 1320 LINE",
"258 1320 LINE",
"440 866 LINE",
"680 274 LINE",
"716 274 LINE",
"956 866 LINE",
"1138 1320 LINE",
"1146 1320 LINE",
"1146 1076 LINE",
"1146 0 LINE",
"1210 0 LINE",
"1210 1474 LINE",
"1134 1474 LINE",
"702 390 LINE",
"694 390 LINE",
"262 1474 LINE",
"186 1474 LINE",
"186 0 LINE"
);
}
);
width = 1396;
},
{
anchors = (
{
name = bottom;
position = "{796, 0}";
},
{
name = top;
position = "{796, 1474}";
}
);
layerId = "2D8F7115-C311-411E-929D-56333CF7FFB2";
paths = (
{
closed = 1;
nodes = (
"468 0 LINE",
"468 422 LINE",
"460 778 LINE",
"468 778 LINE",
"584 588 LINE",
"756 330 LINE",
"836 330 LINE",
"1008 588 LINE",
"1124 778 LINE",
"1132 778 LINE",
"1124 422 LINE",
"1124 0 LINE",
"1488 0 LINE",
"1488 1474 LINE",
"1220 1474 LINE",
"800 820 LINE",
"794 820 LINE",
"372 1474 LINE",
"104 1474 LINE",
"104 0 LINE"
);
}
);
width = 1592;
},
{
anchors = (
{
name = bottom;
position = "{736, 0}";
},
{
name = top;
position = "{736, 1474}";
}
);
layerId = "FD1CEFBD-BAB1-4C2A-A598-30E93F9A29F6";
paths = (
{
closed = 1;
nodes = (
"332 0 LINE",
"332 770 LINE",
"324 1070 LINE",
"332 1070 LINE",
"444 826 LINE",
"704 300 LINE",
"768 300 LINE",
"1028 826 LINE",
"1140 1070 LINE",
"1148 1070 LINE",
"1140 770 LINE",
"1140 0 LINE",
"1316 0 LINE",
"1316 1474 LINE",
"1174 1474 LINE",
"740 570 LINE",
"732 570 LINE",
"298 1474 LINE",
"156 1474 LINE",
"156 0 LINE"
);
}
);
width = 1472;
}
);
leftKerningGroup = LAT_H_UC;
leftMetricsKey = H;
rightKerningGroup = LAT_H_UC;
rightMetricsKey = H;
unicode = 004D;
},
{
glyphname = N;
lastChange = "2023-05-23 02:56:02 +0000";
layers = (
{
anchors = (
{
name = bottom;
position = "{616, 0}";
},
{
name = leghookright;
position = "{1038, 0}";
},
{
name = top;
position = "{628, 1474}";
}
);
layerId = "AB099EFE-E788-4EFC-8633-CF147CB782A6";
paths = (
{
closed = 1;
nodes = (
"250 0 LINE",
"250 946 LINE",
"250 1322 LINE",
"258 1322 LINE",
"402 1068 LINE",
"1016 0 LINE",
"1068 0 LINE",
"1068 1474 LINE",
"1004 1474 LINE",
"1004 538 LINE",
"1004 152 LINE",
"996 152 LINE",
"852 406 LINE",
"238 1474 LINE",
"186 1474 LINE",
"186 0 LINE"
);
}
);
width = 1254;
},
{
anchors = (
{
name = bottom;
position = "{682, 0}";
},
{
name = leghookright;
position = "{1090, 0}";
},
{
name = top;
position = "{686, 1474}";
}
);
layerId = "2D8F7115-C311-411E-929D-56333CF7FFB2";
paths = (
{
closed = 1;
nodes = (
"468 0 LINE",
"468 524 LINE",
"462 854 LINE",
"468 854 LINE",
"540 716 LINE",
"982 0 LINE",
"1266 0 LINE",
"1266 1474 LINE",
"902 1474 LINE",
"902 950 LINE",
"912 642 LINE",
"904 642 LINE",
"832 774 LINE",
"386 1474 LINE",
"104 1474 LINE",
"104 0 LINE"
);
}
);
width = 1370;
},
{
anchors = (
{
name = bottom;
position = "{646, 0}";
},
{
name = leghookright;
position = "{1050, 0}";
},
{
name = top;
position = "{648, 1474}";
}
);
layerId = "FD1CEFBD-BAB1-4C2A-A598-30E93F9A29F6";
paths = (
{
closed = 1;
nodes = (
"332 0 LINE",
"332 722 LINE",
"328 1104 LINE",
"336 1104 LINE",
"456 904 LINE",
"1012 0 LINE",
"1136 0 LINE",
"1136 1474 LINE",
"960 1474 LINE",
"960 752 LINE",
"964 370 LINE",
"956 370 LINE",
"836 570 LINE",
"282 1474 LINE",
"156 1474 LINE",
"156 0 LINE"
);
}
);
width = 1292;
}
);
leftKerningGroup = LAT_H_UC;
leftMetricsKey = H;
rightKerningGroup = LAT_H_UC;
rightMetricsKey = H;
unicode = 004E;
},
{
glyphname = O;
lastChange = "2023-05-23 05:17:54 +0000";
layers = (
{
anchors = (
{
name = bottom;
position = "{652, 0}";
},
{
name = center;
position = "{654, 738}";
},
{
name = horn;
position = "{900, 1410}";
},
{
name = ogonek;
position = "{756, 0}";
},
{
name = top;
position = "{652, 1474}";
},
{
name = topleft;
position = "{80, 1474}";
},
{
name = topright;
position = "{1226, 1474}";
}
);
layerId = "AB099EFE-E788-4EFC-8633-CF147CB782A6";
paths = (
{
closed = 1;
nodes = (
"972 -16 OFFCURVE",
"1192 290 OFFCURVE",
"1192 738 CURVE SMOOTH",
"1192 1184 OFFCURVE",
"972 1490 OFFCURVE",
"652 1490 CURVE SMOOTH",
"334 1490 OFFCURVE",
"116 1182 OFFCURVE",
"116 738 CURVE SMOOTH",
"116 292 OFFCURVE",
"334 -16 OFFCURVE",
"652 -16 CURVE SMOOTH"
);
},
{
closed = 1;
nodes = (
"372 44 OFFCURVE",
"180 328 OFFCURVE",
"180 738 CURVE SMOOTH",
"180 1146 OFFCURVE",
"372 1430 OFFCURVE",
"652 1430 CURVE SMOOTH",
"934 1430 OFFCURVE",
"1128 1148 OFFCURVE",
"1128 738 CURVE SMOOTH",
"1128 326 OFFCURVE",
"934 44 OFFCURVE",
"652 44 CURVE SMOOTH"
);
}
);
width = 1308;
},
{
anchors = (
{
name = bottom;
position = "{662, 0}";
},
{
name = center;
position = "{662, 738}";
},
{
name = horn;
position = "{916, 1426}";
},
{
name = ogonek;
position = "{792, 0}";
},
{
name = top;
position = "{662, 1474}";
},
{
name = topleft;
position = "{-10, 1474}";
},
{
name = topright;
position = "{1338, 1474}";
}
);
layerId = "2D8F7115-C311-411E-929D-56333CF7FFB2";
paths = (
{
closed = 1;
nodes = (
"1042 -16 OFFCURVE",
"1290 280 OFFCURVE",
"1290 738 CURVE SMOOTH",
"1290 1194 OFFCURVE",
"1042 1490 OFFCURVE",
"660 1490 CURVE SMOOTH",
"280 1490 OFFCURVE",
"32 1194 OFFCURVE",
"32 738 CURVE SMOOTH",
"32 280 OFFCURVE",
"280 -16 OFFCURVE",
"660 -16 CURVE SMOOTH"
);
},
{
closed = 1;
nodes = (
"500 320 OFFCURVE",
"396 482 OFFCURVE",
"396 738 CURVE SMOOTH",
"396 994 OFFCURVE",
"500 1154 OFFCURVE",
"660 1154 CURVE SMOOTH",
"822 1154 OFFCURVE",
"926 992 OFFCURVE",
"926 738 CURVE SMOOTH",
"926 484 OFFCURVE",
"822 320 OFFCURVE",
"660 320 CURVE SMOOTH"
);
}
);
width = 1322;
},
{
anchors = (
{
name = bottom;
position = "{654, 0}";
},
{
name = center;
position = "{658, 738}";
},
{
name = horn;
position = "{900, 1422}";
},
{
name = ogonek;
position = "{764, 0}";
},
{
name = top;
position = "{654, 1474}";
},
{
name = topleft;
position = "{48, 1470}";
},
{
name = topright;
position = "{1262, 1470}";
}
);
layerId = "FD1CEFBD-BAB1-4C2A-A598-30E93F9A29F6";
paths = (
{
closed = 1;
nodes = (
"1004 -16 OFFCURVE",
"1230 280 OFFCURVE",
"1230 738 CURVE SMOOTH",
"1230 1195 OFFCURVE",
"1004 1490 OFFCURVE",
"656 1490 CURVE SMOOTH",
"309 1490 OFFCURVE",
"84 1195 OFFCURVE",
"84 738 CURVE SMOOTH",
"84 280 OFFCURVE",
"309 -16 OFFCURVE",
"656 -16 CURVE SMOOTH"
);
},
{
closed = 1;
nodes = (
"416 144 OFFCURVE",
"260 377 OFFCURVE",
"260 738 CURVE SMOOTH",
"260 1097 OFFCURVE",
"416 1330 OFFCURVE",
"656 1330 CURVE SMOOTH",
"896 1330 OFFCURVE",
"1052 1097 OFFCURVE",
"1054 738 CURVE SMOOTH",
"1056 377 OFFCURVE",
"900 144 OFFCURVE",
"658 144 CURVE SMOOTH"
);
}
);
width = 1314;
}
);
leftKerningGroup = LAT_O_UC;
rightKerningGroup = LAT_O_UC;
unicode = 004F;
},
{
glyphname = OE;
lastChange = "2023-05-23 02:56:02 +0000";
layers = (
{
anchors = (
{
name = bottom;
position = "{956, 0}";
},
{
name = top;
position = "{956, 1474}";
}
);
background = {
components = (
{
name = O;
transform = "{1, 0, 0, 1, -6, 0}";
},
{
name = E;
transform = "{1, 0, 0, 1, 940, 0}";
}
);
};
layerId = "AB099EFE-E788-4EFC-8633-CF147CB782A6";
paths = (
{
closed = 1;
nodes = (
"882 -16 OFFCURVE",
"1075 176 OFFCURVE",
"1126 456 CURVE",
"1098 456 LINE",
"1098 0 LINE",
"1764 0 LINE",
"1764 60 LINE",
"1162 60 LINE",
"1162 726 LINE",
"1688 726 LINE",
"1688 786 LINE",
"1162 786 LINE",
"1162 1414 LINE",
"1764 1414 LINE",
"1764 1474 LINE",
"1098 1474 LINE",
"1098 1018 LINE",
"1126 1018 LINE",
"1076 1298 OFFCURVE",
"883 1490 OFFCURVE",
"652 1490 CURVE SMOOTH",
"334 1490 OFFCURVE",
"116 1184 OFFCURVE",
"116 738 CURVE SMOOTH",
"116 291 OFFCURVE",
"334 -16 OFFCURVE",
"652 -16 CURVE SMOOTH"
);
},
{
closed = 1;
nodes = (
"374 44 OFFCURVE",
"180 327 OFFCURVE",
"180 740 CURVE SMOOTH",
"180 1149 OFFCURVE",
"374 1430 OFFCURVE",
"656 1430 CURVE SMOOTH",
"918 1430 OFFCURVE",
"1098 1150 OFFCURVE",
"1098 742 CURVE SMOOTH",
"1098 328 OFFCURVE",
"918 44 OFFCURVE",
"656 44 CURVE SMOOTH"
);
}
);
width = 1900;
},
{
anchors = (
{
name = bottom;
position = "{890, 0}";
},
{
name = top;
position = "{890, 1474}";
}
);
background = {
components = (
{
name = O;
transform = "{1, 0, 0, 1, -22, 0}";
},
{
name = E;
transform = "{1, 0, 0, 1, 910, 0}";
}
);
};
layerId = "2D8F7115-C311-411E-929D-56333CF7FFB2";
paths = (
{
closed = 1;
nodes = (
"830 -16 OFFCURVE",
"954 108 OFFCURVE",
"1020 310 CURVE",
"930 310 LINE",
"930 0 LINE",
"1682 0 LINE",
"1682 328 LINE",
"1246 328 LINE",
"1246 586 LINE",
"1612 586 LINE",
"1612 902 LINE",
"1246 902 LINE",
"1246 1146 LINE",
"1682 1146 LINE",
"1682 1474 LINE",
"930 1474 LINE",
"930 1166 LINE",
"1020 1166 LINE",
"952 1374 OFFCURVE",
"826 1490 OFFCURVE",
"610 1490 CURVE SMOOTH",
"266 1490 OFFCURVE",
"32 1196 OFFCURVE",
"32 738 CURVE SMOOTH",
"32 278 OFFCURVE",
"266 -16 OFFCURVE",
"608 -16 CURVE SMOOTH"
);
},
{
closed = 1;
nodes = (
"490 320 OFFCURVE",
"396 482 OFFCURVE",
"396 738 CURVE SMOOTH",
"396 994 OFFCURVE",
"490 1154 OFFCURVE",
"662 1154 CURVE SMOOTH",
"836 1154 OFFCURVE",
"928 992 OFFCURVE",
"928 738 CURVE SMOOTH",
"928 484 OFFCURVE",
"836 320 OFFCURVE",
"662 320 CURVE SMOOTH"
);
}
);
width = 1754;
},
{
anchors = (
{
name = bottom;
position = "{956, 0}";
},
{
name = top;
position = "{956, 1474}";
}
);
background = {
components = (
{
name = O;
},
{
name = E;
transform = "{1, 0, 0, 1, 886, 0}";
}
);
};
layerId = "FD1CEFBD-BAB1-4C2A-A598-30E93F9A29F6";
paths = (
{
closed = 1;
nodes = (
"856 -16 OFFCURVE",
"1060 140 OFFCURVE",
"1122 404 CURVE",
"1054 404 LINE",
"1054 0 LINE",
"1748 0 LINE",
"1748 160 LINE",
"1214 160 LINE",
"1214 670 LINE",
"1674 670 LINE",
"1674 830 LINE",
"1214 830 LINE",
"1214 1314 LINE",
"1748 1314 LINE",
"1748 1474 LINE",
"1054 1474 LINE",
"1054 1076 LINE",
"1122 1076 LINE",
"1058 1344 OFFCURVE",
"866 1490 OFFCURVE",
"640 1490 CURVE SMOOTH",
"304 1490 OFFCURVE",
"84 1172 OFFCURVE",
"84 740 CURVE SMOOTH",
"84 306 OFFCURVE",
"306 -16 OFFCURVE",
"634 -16 CURVE SMOOTH"
);
},
{
closed = 1;
nodes = (
"398 144 OFFCURVE",
"260 396 OFFCURVE",
"260 738 CURVE SMOOTH",
"260 1084 OFFCURVE",
"398 1330 OFFCURVE",
"652 1330 CURVE SMOOTH",
"904 1330 OFFCURVE",
"1054 1084 OFFCURVE",
"1054 738 CURVE SMOOTH",
"1054 396 OFFCURVE",
"904 144 OFFCURVE",
"652 144 CURVE SMOOTH"
);
}
);
width = 1860;
}
);
leftKerningGroup = LAT_O_UC;
leftMetricsKey = O;
rightKerningGroup = LAT_E_UC;
rightMetricsKey = E;
unicode = 0152;
},
{
glyphname = P;
lastChange = "2023-05-23 02:56:02 +0000";
layers = (
{
anchors = (
{
name = bottom;
position = "{218, 0}";
},
{
name = top;
position = "{568, 1474}";
}
);
layerId = "AB099EFE-E788-4EFC-8633-CF147CB782A6";
paths = (
{
closed = 1;
nodes = (
"524 666 LINE SMOOTH",
"748 666 OFFCURVE",
"894 854 OFFCURVE",
"894 1078 CURVE SMOOTH",
"894 1320 OFFCURVE",
"730 1474 OFFCURVE",
"512 1474 CURVE SMOOTH",
"222 1474 LINE",
"222 1414 LINE",
"506 1414 LINE SMOOTH",
"696 1414 OFFCURVE",
"830 1286 OFFCURVE",
"830 1078 CURVE SMOOTH",
"830 868 OFFCURVE",
"698 726 OFFCURVE",
"514 726 CURVE SMOOTH",
"222 726 LINE",
"222 666 LINE"
);
},
{
closed = 1;
nodes = (
"250 0 LINE",
"250 1474 LINE",
"186 1474 LINE",
"186 0 LINE"
);
}
);
width = 998;
},
{
anchors = (
{
name = bottom;
position = "{288, 0}";
},
{
name = top;
position = "{588, 1474}";
}
);
layerId = "2D8F7115-C311-411E-929D-56333CF7FFB2";
paths = (
{
closed = 1;
nodes = (
"590 454 LINE SMOOTH",
"882 454 OFFCURVE",
"1088 662 OFFCURVE",
"1088 976 CURVE SMOOTH",
"1088 1278 OFFCURVE",
"902 1474 OFFCURVE",
"584 1474 CURVE SMOOTH",
"402 1474 LINE",
"402 1146 LINE",
"564 1146 LINE SMOOTH",
"666 1146 OFFCURVE",
"728 1076 OFFCURVE",
"728 964 CURVE SMOOTH",
"728 856 OFFCURVE",
"668 782 OFFCURVE",
"574 782 CURVE SMOOTH",
"402 782 LINE",
"402 454 LINE"
);
},
{
closed = 1;
nodes = (
"468 0 LINE",
"468 1474 LINE",
"104 1474 LINE",
"104 0 LINE"
);
}
);
width = 1112;
},
{
anchors = (
{
name = bottom;
position = "{244, 0}";
},
{
name = top;
position = "{574, 1474}";
}
);
layerId = "FD1CEFBD-BAB1-4C2A-A598-30E93F9A29F6";
paths = (
{
closed = 1;
nodes = (
"534 588 LINE SMOOTH",
"794 588 OFFCURVE",
"964 776 OFFCURVE",
"964 1036 CURVE SMOOTH",
"964 1298 OFFCURVE",
"790 1474 OFFCURVE",
"526 1474 CURVE SMOOTH",
"288 1474 LINE",
"288 1314 LINE",
"514 1314 LINE SMOOTH",
"684 1314 OFFCURVE",
"788 1202 OFFCURVE",
"788 1034 CURVE SMOOTH",
"788 868 OFFCURVE",
"686 748 OFFCURVE",
"524 748 CURVE SMOOTH",
"288 748 LINE",
"288 588 LINE"
);
},
{
closed = 1;
nodes = (
"332 0 LINE",
"332 1474 LINE",
"156 1474 LINE",
"156 0 LINE"
);
}
);
width = 1040;
}
);
leftKerningGroup = LAT_H_UC;
leftMetricsKey = H;
rightKerningGroup = LAT_P_UC;
unicode = 0050;
},
{
glyphname = Thorn;
lastChange = "2023-05-23 02:56:02 +0000";
layers = (
{
layerId = "AB099EFE-E788-4EFC-8633-CF147CB782A6";
paths = (
{
closed = 1;
nodes = (
"546 328 LINE SMOOTH",
"776 328 OFFCURVE",
"916 500 OFFCURVE",
"916 742 CURVE SMOOTH",
"916 984 OFFCURVE",
"776 1138 OFFCURVE",
"546 1138 CURVE SMOOTH",
"230 1138 LINE",
"230 1078 LINE",
"552 1078 LINE SMOOTH",
"740 1078 OFFCURVE",
"852 950 OFFCURVE",
"852 742 CURVE SMOOTH",
"852 532 OFFCURVE",
"740 388 OFFCURVE",
"552 388 CURVE SMOOTH",
"230 388 LINE",
"230 328 LINE"
);
},
{
closed = 1;
nodes = (
"250 0 LINE",
"250 1474 LINE",
"186 1474 LINE",
"186 0 LINE"
);
}
);
width = 1022;
},
{
layerId = "2D8F7115-C311-411E-929D-56333CF7FFB2";
paths = (
{
closed = 1;
nodes = (
"590 228 LINE SMOOTH",
"882 227 OFFCURVE",
"1088 435 OFFCURVE",
"1088 750 CURVE SMOOTH",
"1088 1051 OFFCURVE",
"902 1247 OFFCURVE",
"584 1248 CURVE SMOOTH",
"402 1248 LINE",
"402 920 LINE",
"564 920 LINE SMOOTH",
"666 919 OFFCURVE",
"728 849 OFFCURVE",
"728 738 CURVE SMOOTH",
"728 629 OFFCURVE",
"668 555 OFFCURVE",
"574 556 CURVE SMOOTH",
"402 556 LINE",
"402 228 LINE"
);
},
{
closed = 1;
nodes = (
"468 0 LINE",
"468 1474 LINE",
"104 1474 LINE",
"104 0 LINE"
);
}
);
width = 1116;
},
{
background = {
paths = (
{
closed = 1;
nodes = (
"332 0 LINE",
"332 1474 LINE",
"156 1474 LINE",
"156 0 LINE"
);
}
);
};
layerId = "FD1CEFBD-BAB1-4C2A-A598-30E93F9A29F6";
paths = (
{
closed = 1;
nodes = (
"546 294 LINE SMOOTH",
"806 294 OFFCURVE",
"976 483 OFFCURVE",
"976 742 CURVE SMOOTH",
"976 1004 OFFCURVE",
"802 1180 OFFCURVE",
"538 1180 CURVE SMOOTH",
"288 1180 LINE",
"288 1020 LINE",
"526 1020 LINE SMOOTH",
"696 1020 OFFCURVE",
"800 908 OFFCURVE",
"800 740 CURVE SMOOTH",
"800 574 OFFCURVE",
"698 454 OFFCURVE",
"536 454 CURVE SMOOTH",
"288 454 LINE",
"288 294 LINE"
);
},
{
closed = 1;
nodes = (
"332 0 LINE",
"332 1474 LINE",
"156 1474 LINE",
"156 0 LINE"
);
}
);
width = 1060;
}
);
leftKerningGroup = LAT_H_UC;
leftMetricsKey = H;
rightKerningGroup = LAT_THORN_UC;
unicode = 00DE;
},
{
glyphname = Q;
lastChange = "2023-05-23 02:56:02 +0000";
layers = (
{
anchors = (
{
name = bottom;
position = "{716, 0}";
},
{
name = center;
position = "{658, 738}";
},
{
name = horn;
position = "{906, 1410}";
},
{
name = ogonek;
position = "{760, 0}";
},
{
name = top;
position = "{710, 1474}";
},
{
name = topleft;
position = "{80, 1474}";
},
{
name = topright;
position = "{1234, 1474}";
}
);
layerId = "AB099EFE-E788-4EFC-8633-CF147CB782A6";
paths = (
{
closed = 1;
nodes = (
"972 -16 OFFCURVE",
"1192 290 OFFCURVE",
"1192 738 CURVE SMOOTH",
"1192 1184 OFFCURVE",
"972 1490 OFFCURVE",
"652 1490 CURVE SMOOTH",
"334 1490 OFFCURVE",
"116 1182 OFFCURVE",
"116 738 CURVE SMOOTH",
"116 292 OFFCURVE",
"334 -16 OFFCURVE",
"652 -16 CURVE SMOOTH"
);
},
{
closed = 1;
nodes = (
"1126 0 LINE",
"1018 170 LINE",
"1004 186 LINE",
"790 548 LINE",
"718 548 LINE",
"958 150 LINE",
"970 136 LINE",
"1054 0 LINE"
);
},
{
closed = 1;
nodes = (
"372 44 OFFCURVE",
"180 328 OFFCURVE",
"180 738 CURVE SMOOTH",
"180 1146 OFFCURVE",
"372 1430 OFFCURVE",
"652 1430 CURVE SMOOTH",
"934 1430 OFFCURVE",
"1128 1148 OFFCURVE",
"1128 738 CURVE SMOOTH",
"1128 326 OFFCURVE",
"934 44 OFFCURVE",
"652 44 CURVE SMOOTH"
);
}
);
width = 1316;
},
{
anchors = (
{
name = bottom;
position = "{688, 0}";
},
{
name = center;
position = "{676, 738}";
},
{
name = horn;
position = "{936, 1426}";
},
{
name = ogonek;
position = "{810, 0}";
},
{
name = top;
position = "{690, 1474}";
},
{
name = topleft;
position = "{-12, 1474}";
},
{
name = topright;
position = "{1364, 1474}";
}
);
layerId = "2D8F7115-C311-411E-929D-56333CF7FFB2";
paths = (
{
closed = 1;
nodes = (
"1044 -16 OFFCURVE",
"1318 280 OFFCURVE",
"1318 738 CURVE SMOOTH",
"1318 1196 OFFCURVE",
"1064 1490 OFFCURVE",
"674 1490 CURVE SMOOTH",
"284 1490 OFFCURVE",
"32 1194 OFFCURVE",
"32 738 CURVE SMOOTH",
"32 282 OFFCURVE",
"284 -16 OFFCURVE",
"674 -16 CURVE SMOOTH"
);
},
{
closed = 1;
nodes = (
"1376 0 LINE",
"1156 302 LINE",
"956 454 LINE",
"844 640 LINE",
"496 640 LINE",
"726 324 LINE",
"892 204 LINE",
"1034 0 LINE"
);
},
{
closed = 1;
nodes = (
"502 308 OFFCURVE",
"396 476 OFFCURVE",
"396 738 CURVE SMOOTH",
"396 1000 OFFCURVE",
"502 1154 OFFCURVE",
"674 1154 CURVE SMOOTH",
"848 1154 OFFCURVE",
"954 1000 OFFCURVE",
"954 738 CURVE SMOOTH",
"954 438 OFFCURVE",
"848 308 OFFCURVE",
"674 308 CURVE SMOOTH"
);
}
);
width = 1404;
},
{
anchors = (
{
name = bottom;
position = "{706, 0}";
},
{
name = center;
position = "{662, 738}";
},
{
name = horn;
position = "{908, 1422}";
},
{
name = ogonek;
position = "{770, 0}";
},
{
name = top;
position = "{706, 1474}";
},
{
name = topleft;
position = "{48, 1470}";
},
{
name = topright;
position = "{1274, 1470}";
}
);
layerId = "FD1CEFBD-BAB1-4C2A-A598-30E93F9A29F6";
paths = (
{
closed = 1;
nodes = (
"1012 -16 OFFCURVE",
"1242 280 OFFCURVE",
"1242 738 CURVE SMOOTH",
"1242 1194 OFFCURVE",
"1014 1490 OFFCURVE",
"662 1490 CURVE SMOOTH",
"312 1490 OFFCURVE",
"84 1194 OFFCURVE",
"84 738 CURVE SMOOTH",
"84 280 OFFCURVE",
"312 -16 OFFCURVE",
"662 -16 CURVE SMOOTH"
);
},
{
closed = 1;
nodes = (
"1234 0 LINE",
"1074 224 LINE",
"1000 290 LINE",
"812 596 LINE",
"624 596 LINE",
"876 216 LINE",
"942 160 LINE",
"1050 0 LINE"
);
},
{
closed = 1;
nodes = (
"420 144 OFFCURVE",
"260 378 OFFCURVE",
"260 738 CURVE SMOOTH",
"260 1096 OFFCURVE",
"418 1330 OFFCURVE",
"662 1330 CURVE SMOOTH",
"904 1330 OFFCURVE",
"1064 1096 OFFCURVE",
"1066 738 CURVE SMOOTH",
"1068 378 OFFCURVE",
"908 144 OFFCURVE",
"664 144 CURVE SMOOTH"
);
}
);
width = 1326;
}
);
leftKerningGroup = LAT_O_UC;
leftMetricsKey = O;
rightKerningGroup = LAT_Q_UC;
unicode = 0051;
},
{
glyphname = R;
lastChange = "2021-01-27 04:56:52 +0000";
layers = (
{
anchors = (
{
name = bottom;
position = "{564, 0}";
},
{
name = top;
position = "{504, 1474}";
}
);
guideLines = (
{
angle = 120;
position = "{670, -20}";
},
{
angle = 67.5;
position = "{258, -18}";
}
);
layerId = "AB099EFE-E788-4EFC-8633-CF147CB782A6";
paths = (
{
closed = 1;
nodes = (
"510 666 LINE SMOOTH",
"728 666 OFFCURVE",
"870 854 OFFCURVE",
"870 1078 CURVE SMOOTH",
"870 1320 OFFCURVE",
"712 1474 OFFCURVE",
"502 1474 CURVE SMOOTH",
"220 1474 LINE",
"220 1414 LINE",
"494 1414 LINE SMOOTH",
"678 1414 OFFCURVE",
"806 1286 OFFCURVE",
"806 1078 CURVE SMOOTH",
"806 868 OFFCURVE",
"680 726 OFFCURVE",
"500 726 CURVE SMOOTH",
"220 726 LINE",
"220 666 LINE"
);
},
{
closed = 1;
nodes = (
"250 0 LINE",
"250 1474 LINE",
"186 1474 LINE",
"186 0 LINE"
);
},
{
closed = 1;
nodes = (
"954 0 LINE",
"548 716 LINE",
"504 672 LINE",
"882 0 LINE"
);
}
);
width = 1052;
},
{
anchors = (
{
name = bottom;
position = "{610, 0}";
},
{
name = top;
position = "{558, 1474}";
}
);
guideLines = (
{
angle = 120;
position = "{672, 0}";
}
);
layerId = "2D8F7115-C311-411E-929D-56333CF7FFB2";
paths = (
{
closed = 1;
nodes = (
"502 486 LINE SMOOTH",
"856 486 OFFCURVE",
"1072 720 OFFCURVE",
"1072 1018 CURVE SMOOTH",
"1072 1316 OFFCURVE",
"864 1474 OFFCURVE",
"606 1474 CURVE SMOOTH",
"366 1474 LINE",
"366 1146 LINE",
"554 1146 LINE SMOOTH",
"658 1146 OFFCURVE",
"712 1084 OFFCURVE",
"712 978 CURVE SMOOTH",
"712 858 OFFCURVE",
"646 786 OFFCURVE",
"558 786 CURVE SMOOTH",
"366 786 LINE",
"366 486 LINE"
);
},
{
closed = 1;
nodes = (
"468 0 LINE",
"468 1474 LINE",
"104 1474 LINE",
"104 0 LINE"
);
},
{
closed = 1;
nodes = (
"1182 0 LINE",
"816 754 LINE",
"560 538 LINE",
"786 0 LINE"
);
}
);
width = 1224;
},
{
anchors = (
{
name = bottom;
position = "{580, 0}";
},
{
name = top;
position = "{530, 1474}";
}
);
hints = (
{
horizontal = 1;
origin = "{0, 0}";
type = Delta;
settings = {
deltaV = {
"{100, 88, 0, 0, 0, 0}" = {
"12" = 3;
};
};
};
},
{
horizontal = 1;
origin = "{0, 17}";
type = Delta;
settings = {
deltaV = {
"{100, 88, 0, 0, 0, 0}" = {
"12" = 3;
};
};
};
},
{
horizontal = 1;
origin = "{0, 16}";
type = Delta;
settings = {
deltaV = {
"{100, 88, 0, 0, 0, 0}" = {
"12" = 3;
};
};
};
},
{
horizontal = 1;
origin = "{0, 15}";
type = Delta;
settings = {
deltaV = {
"{100, 88, 0, 0, 0, 0}" = {
"12" = 3;
};
};
};
},
{
horizontal = 1;
origin = "{1, 0}";
type = Delta;
settings = {
deltaV = {
"{100, 88, 0, 0, 0, 0}" = {
"12" = 3;
};
};
};
},
{
horizontal = 1;
origin = "{0, 10, 1, 0}";
type = Delta;
settings = {
deltaV = {
"{100, 88, 0, 0, 0, 0}" = {
"12" = 3;
};
};
};
},
{
horizontal = 1;
origin = "{0, 13, 2, 1}";
type = Delta;
settings = {
deltaV = {
"{100, 88, 0, 0, 0, 0}" = {
"12" = 3;
};
};
};
},
{
horizontal = 1;
origin = "{0, 13, 2, 3}";
type = Delta;
settings = {
deltaV = {
"{100, 88, 0, 0, 0, 0}" = {
"12" = 3;
};
};
};
}
);
layerId = "FD1CEFBD-BAB1-4C2A-A598-30E93F9A29F6";
paths = (
{
closed = 1;
nodes = (
"510 600 LINE SMOOTH",
"778 600 OFFCURVE",
"956 792 OFFCURVE",
"956 1058 CURVE SMOOTH",
"956 1308 OFFCURVE",
"790 1474 OFFCURVE",
"544 1474 CURVE SMOOTH",
"274 1474 LINE",
"274 1314 LINE",
"516 1314 LINE SMOOTH",
"676 1314 OFFCURVE",
"780 1208 OFFCURVE",
"780 1044 CURVE SMOOTH",
"780 874 OFFCURVE",
"680 756 OFFCURVE",
"526 756 CURVE SMOOTH",
"274 756 LINE",
"274 600 LINE"
);
},
{
closed = 1;
nodes = (
"332 0 LINE",
"332 1474 LINE",
"156 1474 LINE",
"156 0 LINE"
);
},
{
closed = 1;
nodes = (
"1036 0 LINE",
"632 734 LINE",
"500 628 LINE",
"840 0 LINE"
);
}
);
width = 1124;
}
);
leftKerningGroup = LAT_H_UC;
leftMetricsKey = H;
rightKerningGroup = LAT_R_UC;
unicode = 0052;
},
{
glyphname = S;
lastChange = "2023-02-10 04:45:00 +0000";
layers = (
{
anchors = (
{
name = bottom;
position = "{482, 0}";
},
{
name = cedilla;
position = "{462, 0}";
},
{
name = top;
position = "{456, 1478}";
}
);
background = {
paths = (
{
closed = 1;
nodes = (
"694 -16 OFFCURVE",
"858 144 OFFCURVE",
"858 378 CURVE SMOOTH",
"858 588 OFFCURVE",
"728 704 OFFCURVE",
"496 794 CURVE SMOOTH",
"268 882 OFFCURVE",
"178 984 OFFCURVE",
"178 1138 CURVE SMOOTH",
"178 1308 OFFCURVE",
"284 1426 OFFCURVE",
"444 1426 CURVE SMOOTH",
"576 1426 OFFCURVE",
"702 1344 OFFCURVE",
"760 1242 CURVE",
"790 1304 LINE",
"720 1418 OFFCURVE",
"584 1486 OFFCURVE",
"448 1486 CURVE SMOOTH",
"248 1486 OFFCURVE",
"114 1346 OFFCURVE",
"114 1148 CURVE SMOOTH",
"114 964 OFFCURVE",
"228 836 OFFCURVE",
"428 756 CURVE SMOOTH",
"668 660 OFFCURVE",
"794 582 OFFCURVE",
"794 384 CURVE SMOOTH",
"794 180 OFFCURVE",
"660 44 OFFCURVE",
"486 44 CURVE SMOOTH",
"328 44 OFFCURVE",
"186 156 OFFCURVE",
"114 320 CURVE",
"82 242 LINE",
"160 86 OFFCURVE",
"322 -16 OFFCURVE",
"488 -16 CURVE SMOOTH"
);
}
);
};
guideLines = (
{
angle = 67.5;
position = "{120, 300}";
}
);
layerId = "AB099EFE-E788-4EFC-8633-CF147CB782A6";
paths = (
{
closed = 1;
nodes = (
"700 -16 OFFCURVE",
"864 148 OFFCURVE",
"864 378 CURVE SMOOTH",
"864 592 OFFCURVE",
"726 696 OFFCURVE",
"504 794 CURVE SMOOTH",
"289 889 OFFCURVE",
"184 976 OFFCURVE",
"184 1142 CURVE SMOOTH",
"184 1308 OFFCURVE",
"290 1430 OFFCURVE",
"450 1430 CURVE SMOOTH",
"580 1430 OFFCURVE",
"708 1348 OFFCURVE",
"766 1266 CURVE",
"796 1328 LINE",
"726 1422 OFFCURVE",
"588 1490 OFFCURVE",
"452 1490 CURVE SMOOTH",
"254 1490 OFFCURVE",
"120 1348 OFFCURVE",
"120 1152 CURVE SMOOTH",
"120 956 OFFCURVE",
"252 840 OFFCURVE",
"448 752 CURVE SMOOTH",
"672 652 OFFCURVE",
"800 582 OFFCURVE",
"800 382 CURVE SMOOTH",
"800 184 OFFCURVE",
"666 44 OFFCURVE",
"490 44 CURVE SMOOTH",
"336 44 OFFCURVE",
"192 155 OFFCURVE",
"120 300 CURVE",
"88 224 LINE",
"166 87 OFFCURVE",
"330 -16 OFFCURVE",
"492 -16 CURVE SMOOTH"
);
}
);
userData = {
RMXScaler = {
height = 139;
width = 140;
};
};
width = 948;
},
{
anchors = (
{
name = bottom;
position = "{542, 0}";
},
{
name = cedilla;
position = "{566, 0}";
},
{
name = top;
position = "{510, 1474}";
}
);
background = {
paths = (
{
closed = 1;
nodes = (
"794 -16 OFFCURVE",
"996 198 OFFCURVE",
"992 454 CURVE SMOOTH",
"988 730 OFFCURVE",
"802 824 OFFCURVE",
"700 862 CURVE SMOOTH",
"652 880 OFFCURVE",
"430 938 OFFCURVE",
"430 1054 CURVE SMOOTH",
"430 1116 OFFCURVE",
"458 1164 OFFCURVE",
"514 1164 CURVE SMOOTH",
"562 1164 OFFCURVE",
"610 1094 OFFCURVE",
"630 1036 CURVE",
"966 1176 LINE",
"904 1356 OFFCURVE",
"748 1490 OFFCURVE",
"512 1490 CURVE SMOOTH",
"236 1490 OFFCURVE",
"62 1312 OFFCURVE",
"62 1062 CURVE SMOOTH",
"62 816 OFFCURVE",
"232 688 OFFCURVE",
"396 626 CURVE SMOOTH",
"492 590 OFFCURVE",
"622 558 OFFCURVE",
"622 444 CURVE SMOOTH",
"622 376 OFFCURVE",
"584 320 OFFCURVE",
"534 320 CURVE SMOOTH",
"452 320 OFFCURVE",
"396 418 OFFCURVE",
"372 504 CURVE",
"18 356 LINE",
"80 148 OFFCURVE",
"308 -16 OFFCURVE",
"524 -16 CURVE SMOOTH"
);
}
);
};
guideLines = (
{
angle = 22.5;
position = "{310, 288}";
},
{
angle = 90;
position = "{78, -108}";
},
{
angle = 90;
position = "{530, -108}";
}
);
layerId = "2D8F7115-C311-411E-929D-56333CF7FFB2";
paths = (
{
closed = 1;
nodes = (
"804 -16 OFFCURVE",
"1012 164 OFFCURVE",
"1012 438 CURVE SMOOTH",
"1012 678 OFFCURVE",
"844 810 OFFCURVE",
"632 886 CURVE SMOOTH",
"498 934 OFFCURVE",
"440 980 OFFCURVE",
"440 1042 CURVE SMOOTH",
"440 1106 OFFCURVE",
"504 1144 OFFCURVE",
"576 1144 CURVE SMOOTH",
"664 1144 OFFCURVE",
"792 1080 OFFCURVE",
"838 1016 CURVE",
"970 1334 LINE",
"852 1438 OFFCURVE",
"696 1490 OFFCURVE",
"556 1490 CURVE SMOOTH",
"290 1490 OFFCURVE",
"80 1316 OFFCURVE",
"80 1056 CURVE SMOOTH",
"80 804 OFFCURVE",
"286 668 OFFCURVE",
"456 608 CURVE SMOOTH",
"588 562 OFFCURVE",
"652 512 OFFCURVE",
"652 442 CURVE SMOOTH",
"652 382 OFFCURVE",
"612 328 OFFCURVE",
"516 328 CURVE SMOOTH",
"398 328 OFFCURVE",
"268 412 OFFCURVE",
"184 510 CURVE",
"44 172 LINE",
"160 68 OFFCURVE",
"354 -16 OFFCURVE",
"536 -16 CURVE SMOOTH"
);
}
);
userData = {
RMXScaler = {
height = 137;
weight = 160;
width = 140;
};
};
width = 1056;
},
{
anchors = (
{
name = bottom;
position = "{510, 0}";
},
{
name = cedilla;
position = "{510, 0}";
},
{
name = top;
position = "{498, 1474}";
}
);
background = {
paths = (
{
closed = 1;
nodes = (
"730 -16 OFFCURVE",
"906 150 OFFCURVE",
"906 402 CURVE SMOOTH",
"906 654 OFFCURVE",
"732 778 OFFCURVE",
"540 838 CURVE SMOOTH",
"388 886 OFFCURVE",
"282 962 OFFCURVE",
"282 1104 CURVE SMOOTH",
"282 1228 OFFCURVE",
"364 1314 OFFCURVE",
"488 1314 CURVE SMOOTH",
"606 1314 OFFCURVE",
"710 1236 OFFCURVE",
"784 1134 CURVE",
"860 1306 LINE",
"768 1420 OFFCURVE",
"630 1490 OFFCURVE",
"486 1490 CURVE SMOOTH",
"260 1490 OFFCURVE",
"106 1334 OFFCURVE",
"106 1110 CURVE SMOOTH",
"106 888 OFFCURVE",
"256 740 OFFCURVE",
"460 676 CURVE SMOOTH",
"624 624 OFFCURVE",
"726 552 OFFCURVE",
"726 406 CURVE SMOOTH",
"726 260 OFFCURVE",
"624 160 OFFCURVE",
"500 160 CURVE SMOOTH",
"380 160 OFFCURVE",
"244 252 OFFCURVE",
"152 394 CURVE",
"62 222 LINE",
"168 86 OFFCURVE",
"336 -16 OFFCURVE",
"510 -16 CURVE SMOOTH"
);
}
);
};
guideLines = (
{
angle = 67.5;
position = "{792, 1098}";
}
);
layerId = "FD1CEFBD-BAB1-4C2A-A598-30E93F9A29F6";
paths = (
{
closed = 1;
nodes = (
"728 -16 OFFCURVE",
"912 152 OFFCURVE",
"912 402 CURVE SMOOTH",
"912 642 OFFCURVE",
"742 756 OFFCURVE",
"550 830 CURVE SMOOTH",
"388 892 OFFCURVE",
"286 970 OFFCURVE",
"286 1112 CURVE SMOOTH",
"286 1232 OFFCURVE",
"368 1326 OFFCURVE",
"492 1326 CURVE SMOOTH",
"600 1326 OFFCURVE",
"714 1256 OFFCURVE",
"796 1150 CURVE",
"864 1314 LINE",
"774 1420 OFFCURVE",
"632 1490 OFFCURVE",
"488 1490 CURVE SMOOTH",
"268 1490 OFFCURVE",
"110 1336 OFFCURVE",
"110 1116 CURVE SMOOTH",
"110 912 OFFCURVE",
"246 774 OFFCURVE",
"464 688 CURVE SMOOTH",
"634 622 OFFCURVE",
"736 546 OFFCURVE",
"736 404 CURVE SMOOTH",
"736 256 OFFCURVE",
"626 148 OFFCURVE",
"496 148 CURVE SMOOTH",
"364 148 OFFCURVE",
"234 258 OFFCURVE",
"156 374 CURVE",
"80 194 LINE",
"170 82 OFFCURVE",
"334 -16 OFFCURVE",
"504 -16 CURVE SMOOTH"
);
}
);
userData = {
RMXScaler = {
height = 139;
width = 140;
};
};
width = 1000;
}
);
leftKerningGroup = LAT_S_UC;
rightKerningGroup = LAT_S_UC;
unicode = 0053;
userData = {
RMXScaler = {
source = s;
};
};
},
{
glyphname = Germandbls;
lastChange = "2023-05-23 02:56:02 +0000";
layers = (
{
layerId = "AB099EFE-E788-4EFC-8633-CF147CB782A6";
paths = (
{
closed = 1;
nodes = (
"850 -16 OFFCURVE",
"1028 190 OFFCURVE",
"1028 458 CURVE SMOOTH",
"1028 714 OFFCURVE",
"872 906 OFFCURVE",
"642 892 CURVE",
"674 860 LINE",
"874 1414 LINE",
"874 1430 LINE",
"778 1476 OFFCURVE",
"633 1490 OFFCURVE",
"562 1490 CURVE SMOOTH",
"296 1490 OFFCURVE",
"174 1362 OFFCURVE",
"174 1126 CURVE SMOOTH",
"174 0 LINE",
"238 0 LINE",
"238 1132 LINE SMOOTH",
"238 1326 OFFCURVE",
"334 1430 OFFCURVE",
"550 1430 CURVE SMOOTH",
"625 1430 OFFCURVE",
"765 1412 OFFCURVE",
"814 1386 CURVE",
"810 1420 LINE",
"610 864 LINE",
"610 836 LINE",
"644 836 LINE SMOOTH",
"833 836 OFFCURVE",
"964 688 OFFCURVE",
"964 460 CURVE SMOOTH",
"964 208 OFFCURVE",
"800 44 OFFCURVE",
"618 44 CURVE SMOOTH",
"566 44 OFFCURVE",
"498 60 OFFCURVE",
"450 80 CURVE",
"450 16 LINE",
"488 -4 OFFCURVE",
"556 -16 OFFCURVE",
"612 -16 CURVE SMOOTH"
);
}
);
width = 1152;
},
{
layerId = "2D8F7115-C311-411E-929D-56333CF7FFB2";
paths = (
{
closed = 1;
nodes = (
"1048 -16 OFFCURVE",
"1248 178 OFFCURVE",
"1248 486 CURVE SMOOTH",
"1248 720 OFFCURVE",
"1132 904 OFFCURVE",
"948 934 CURVE",
"952 768 LINE",
"1158 1342 LINE",
"1158 1376 LINE",
"1066 1438 OFFCURVE",
"854 1490 OFFCURVE",
"662 1490 CURVE SMOOTH",
"306 1490 OFFCURVE",
"94 1312 OFFCURVE",
"94 1022 CURVE SMOOTH",
"94 0 LINE",
"458 0 LINE",
"458 976 LINE SMOOTH",
"458 1098 OFFCURVE",
"528 1174 OFFCURVE",
"668 1174 CURVE SMOOTH",
"742 1174 OFFCURVE",
"782 1152 OFFCURVE",
"796 1138 CURVE",
"774 1218 LINE",
"636 740 LINE",
"636 678 LINE",
"718 678 LINE SMOOTH",
"824 678 OFFCURVE",
"888 604 OFFCURVE",
"888 490 CURVE SMOOTH",
"888 376 OFFCURVE",
"824 308 OFFCURVE",
"716 308 CURVE SMOOTH",
"690 308 OFFCURVE",
"640 312 OFFCURVE",
"598 318 CURVE",
"598 -12 LINE",
"648 -16 OFFCURVE",
"680 -16 OFFCURVE",
"740 -16 CURVE SMOOTH"
);
}
);
width = 1296;
},
{
layerId = "FD1CEFBD-BAB1-4C2A-A598-30E93F9A29F6";
paths = (
{
closed = 1;
nodes = (
"925 -16 OFFCURVE",
"1112 186 OFFCURVE",
"1112 470 CURVE SMOOTH",
"1112 716 OFFCURVE",
"970 905 OFFCURVE",
"758 908 CURVE",
"780 826 LINE",
"986 1388 LINE",
"986 1410 LINE",
"894 1462 OFFCURVE",
"717 1490 OFFCURVE",
"600 1490 CURVE SMOOTH",
"300 1490 OFFCURVE",
"144 1343 OFFCURVE",
"144 1088 CURVE SMOOTH",
"144 0 LINE",
"320 0 LINE",
"320 1074 LINE SMOOTH",
"320 1240 OFFCURVE",
"412 1328 OFFCURVE",
"598 1330 CURVE SMOOTH",
"674 1330 OFFCURVE",
"774 1314 OFFCURVE",
"806 1290 CURVE",
"792 1344 LINE",
"618 818 LINE",
"618 776 LINE",
"672 776 LINE SMOOTH",
"830 776 OFFCURVE",
"936 656 OFFCURVE",
"936 470 CURVE SMOOTH",
"936 272 OFFCURVE",
"809 144 OFFCURVE",
"660 144 CURVE SMOOTH",
"618 144 OFFCURVE",
"568 155 OFFCURVE",
"506 172 CURVE",
"506 6 LINE",
"551 -7 OFFCURVE",
"603 -16 OFFCURVE",
"660 -16 CURVE SMOOTH"
);
}
);
width = 1208;
}
);
leftKerningGroup = LAT_GERMANDBLS_UC;
rightKerningGroup = LAT_GERMANDBLS_UC;
rightMetricsKey = B;
unicode = 1E9E;
},
{
glyphname = T;
lastChange = "2023-05-23 02:56:02 +0000";
layers = (
{
anchors = (
{
name = bottom;
position = "{464, 0}";
},
{
name = cedilla;
position = "{464, 0}";
},
{
name = center;
position = "{464, 738}";
},
{
name = top;
position = "{464, 1474}";
}
);
layerId = "AB099EFE-E788-4EFC-8633-CF147CB782A6";
paths = (
{
closed = 1;
nodes = (
"496 0 LINE",
"496 1432 LINE",
"432 1432 LINE",
"432 0 LINE"
);
},
{
closed = 1;
nodes = (
"850 1414 LINE",
"850 1474 LINE",
"78 1474 LINE",
"78 1414 LINE"
);
}
);
width = 928;
},
{
anchors = (
{
name = bottom;
position = "{496, 0}";
},
{
name = cedilla;
position = "{496, 0}";
},
{
name = center;
position = "{496, 672}";
},
{
name = top;
position = "{496, 1474}";
}
);
layerId = "2D8F7115-C311-411E-929D-56333CF7FFB2";
paths = (
{
closed = 1;
nodes = (
"678 0 LINE",
"678 1200 LINE",
"314 1200 LINE",
"314 0 LINE"
);
},
{
closed = 1;
nodes = (
"964 1146 LINE",
"964 1474 LINE",
"28 1474 LINE",
"28 1146 LINE"
);
}
);
width = 992;
},
{
anchors = (
{
name = bottom;
position = "{480, 0}";
},
{
name = cedilla;
position = "{482, 0}";
},
{
name = center;
position = "{482, 712}";
},
{
name = top;
position = "{482, 1474}";
}
);
layerId = "FD1CEFBD-BAB1-4C2A-A598-30E93F9A29F6";
paths = (
{
closed = 1;
nodes = (
"570 0 LINE",
"570 1348 LINE",
"394 1348 LINE",
"394 0 LINE"
);
},
{
closed = 1;
nodes = (
"900 1314 LINE",
"900 1474 LINE",
"64 1474 LINE",
"64 1314 LINE"
);
}
);
width = 964;
}
);
leftKerningGroup = LAT_T_UC;
rightKerningGroup = LAT_T_UC;
unicode = 0054;
},
{
glyphname = U;
lastChange = "2023-05-23 02:56:02 +0000";
layers = (
{
anchors = (
{
name = bottom;
position = "{602, 0}";
},
{
name = horn;
position = "{984, 1474}";
},
{
name = ogonek;
position = "{714, 0}";
},
{
name = top;
position = "{602, 1474}";
}
);
layerId = "AB099EFE-E788-4EFC-8633-CF147CB782A6";
paths = (
{
closed = 1;
nodes = (
"852 -16 OFFCURVE",
"1014 158 OFFCURVE",
"1014 424 CURVE SMOOTH",
"1014 1474 LINE",
"950 1474 LINE",
"950 424 LINE SMOOTH",
"950 194 OFFCURVE",
"814 44 OFFCURVE",
"602 44 CURVE SMOOTH",
"388 44 OFFCURVE",
"250 194 OFFCURVE",
"250 424 CURVE SMOOTH",
"250 1474 LINE",
"186 1474 LINE",
"186 424 LINE SMOOTH",
"186 158 OFFCURVE",
"350 -16 OFFCURVE",
"602 -16 CURVE SMOOTH"
);
}
);
width = 1200;
},
{
anchors = (
{
name = bottom;
position = "{630, 0}";
},
{
name = horn;
position = "{1074, 1474}";
},
{
name = ogonek;
position = "{752, 0}";
},
{
name = top;
position = "{630, 1474}";
}
);
layerId = "2D8F7115-C311-411E-929D-56333CF7FFB2";
paths = (
{
closed = 1;
nodes = (
"950 -16 OFFCURVE",
"1156 190 OFFCURVE",
"1156 508 CURVE SMOOTH",
"1156 1474 LINE",
"792 1474 LINE",
"792 496 LINE SMOOTH",
"792 380 OFFCURVE",
"728 312 OFFCURVE",
"630 312 CURVE SMOOTH",
"532 312 OFFCURVE",
"468 382 OFFCURVE",
"468 496 CURVE SMOOTH",
"468 1474 LINE",
"104 1474 LINE",
"104 508 LINE SMOOTH",
"104 192 OFFCURVE",
"310 -16 OFFCURVE",
"630 -16 CURVE SMOOTH"
);
}
);
width = 1260;
},
{
anchors = (
{
name = bottom;
position = "{612, 0}";
},
{
name = horn;
position = "{1020, 1474}";
},
{
name = ogonek;
position = "{730, 0}";
},
{
name = top;
position = "{612, 1474}";
}
);
layerId = "FD1CEFBD-BAB1-4C2A-A598-30E93F9A29F6";
paths = (
{
closed = 1;
nodes = (
"892 -16 OFFCURVE",
"1070 172 OFFCURVE",
"1070 458 CURVE SMOOTH",
"1070 1474 LINE",
"894 1474 LINE",
"894 458 LINE SMOOTH",
"894 270 OFFCURVE",
"784 144 OFFCURVE",
"612 144 CURVE SMOOTH",
"442 144 OFFCURVE",
"332 270 OFFCURVE",
"332 458 CURVE SMOOTH",
"332 1474 LINE",
"156 1474 LINE",
"156 458 LINE SMOOTH",
"156 172 OFFCURVE",
"336 -16 OFFCURVE",
"612 -16 CURVE SMOOTH"
);
}
);
width = 1226;
}
);
leftKerningGroup = LAT_U_UC;
leftMetricsKey = H;
rightKerningGroup = LAT_U_UC;
rightMetricsKey = H;
unicode = 0055;
},
{
glyphname = V;
lastChange = "2023-05-23 02:56:02 +0000";
layers = (
{
anchors = (
{
name = bottom;
position = "{594, 0}";
},
{
name = top;
position = "{594, 1474}";
}
);
layerId = "AB099EFE-E788-4EFC-8633-CF147CB782A6";
paths = (
{
closed = 1;
nodes = (
"620 0 LINE",
"1120 1474 LINE",
"1054 1474 LINE",
"760 596 LINE",
"598 108 LINE",
"590 108 LINE",
"428 596 LINE",
"134 1474 LINE",
"68 1474 LINE",
"568 0 LINE"
);
}
);
width = 1188;
},
{
anchors = (
{
name = bottom;
position = "{652, 0}";
},
{
name = top;
position = "{656, 1474}";
}
);
background = {
components = (
{
name = A;
transform = "{1, 0, 0, -1, 4, 1474}";
}
);
};
layerId = "2D8F7115-C311-411E-929D-56333CF7FFB2";
paths = (
{
closed = 1;
nodes = (
"836 0 LINE",
"1320 1474 LINE",
"932 1474 LINE",
"766 910 LINE",
"660 520 LINE",
"652 520 LINE",
"546 910 LINE",
"380 1474 LINE",
"-8 1474 LINE",
"476 0 LINE"
);
}
);
width = 1312;
},
{
anchors = (
{
name = bottom;
position = "{618, 0}";
},
{
name = top;
position = "{616, 1474}";
}
);
background = {
components = (
{
name = A;
transform = "{1, 0, 0, -1, 6, 1474}";
}
);
};
layerId = "FD1CEFBD-BAB1-4C2A-A598-30E93F9A29F6";
paths = (
{
closed = 1;
nodes = (
"696 0 LINE",
"1200 1474 LINE",
"1016 1474 LINE",
"770 726 LINE",
"620 270 LINE",
"612 270 LINE",
"462 726 LINE",
"216 1474 LINE",
"32 1474 LINE",
"536 0 LINE"
);
}
);
width = 1232;
}
);
leftKerningGroup = LAT_V_UC;
rightKerningGroup = LAT_V_UC;
unicode = 0056;
},
{
glyphname = W;
lastChange = "2023-05-23 02:56:02 +0000";
layers = (
{
anchors = (
{
name = bottom;
position = "{804, 0}";
},
{
name = top;
position = "{804, 1474}";
}
);
layerId = "AB099EFE-E788-4EFC-8633-CF147CB782A6";
paths = (
{
closed = 1;
nodes = (
"492 0 LINE",
"802 1212 LINE",
"806 1212 LINE",
"1118 0 LINE",
"1194 0 LINE",
"1536 1474 LINE",
"1470 1474 LINE",
"1202 280 LINE",
"1160 82 LINE",
"1152 82 LINE",
"824 1376 LINE",
"784 1376 LINE",
"456 82 LINE",
"450 82 LINE",
"410 280 LINE",
"140 1474 LINE",
"72 1474 LINE",
"414 0 LINE"
);
}
);
width = 1608;
},
{
anchors = (
{
name = bottom;
position = "{912, 0}";
},
{
name = top;
position = "{912, 1474}";
}
);
background = {
paths = (
{
closed = 1;
nodes = (
"368 0 LINE",
"658 0 LINE",
"898 638 LINE",
"906 638 LINE",
"1144 0 LINE",
"1440 0 LINE",
"1808 1474 LINE",
"1428 1474 LINE",
"1314 880 LINE",
"1238 512 LINE",
"1230 512 LINE",
"974 1306 LINE",
"828 1306 LINE",
"572 512 LINE",
"566 512 LINE",
"490 880 LINE",
"380 1474 LINE",
"-4 1474 LINE"
);
}
);
};
layerId = "2D8F7115-C311-411E-929D-56333CF7FFB2";
paths = (
{
closed = 1;
nodes = (
"688 0 LINE",
"908 596 LINE",
"916 596 LINE",
"1136 0 LINE",
"1428 0 LINE",
"1832 1474 LINE",
"1458 1474 LINE",
"1334 958 LINE",
"1256 592 LINE",
"1248 592 LINE",
"982 1298 LINE",
"842 1298 LINE",
"576 592 LINE",
"568 592 LINE",
"490 958 LINE",
"366 1474 LINE",
"-8 1474 LINE",
"396 0 LINE"
);
}
);
width = 1824;
},
{
anchors = (
{
name = bottom;
position = "{832, 0}";
},
{
name = top;
position = "{832, 1474}";
}
);
layerId = "FD1CEFBD-BAB1-4C2A-A598-30E93F9A29F6";
paths = (
{
closed = 1;
nodes = (
"556 0 LINE",
"828 888 LINE",
"836 888 LINE",
"1108 0 LINE",
"1264 0 LINE",
"1632 1474 LINE",
"1452 1474 LINE",
"1254 620 LINE",
"1178 288 LINE",
"1170 288 LINE",
"870 1326 LINE",
"794 1326 LINE",
"494 288 LINE",
"486 288 LINE",
"410 620 LINE",
"212 1474 LINE",
"32 1474 LINE",
"400 0 LINE"
);
}
);
width = 1664;
}
);
leftKerningGroup = LAT_W_UC;
rightKerningGroup = LAT_W_UC;
unicode = 0057;
},
{
color = 9;
glyphname = W.ss03;
lastChange = "2023-05-23 02:56:02 +0000";
layers = (
{
anchors = (
{
name = bottom;
position = "{798, 0}";
},
{
name = top;
position = "{796, 1474}";
}
);
layerId = "AB099EFE-E788-4EFC-8633-CF147CB782A6";
paths = (
{
closed = 1;
nodes = (
"482 0 LINE",
"620 600 LINE",
"794 1352 LINE",
"800 1352 LINE",
"972 600 LINE",
"1112 0 LINE",
"1188 0 LINE",
"1532 1474 LINE",
"1464 1474 LINE",
"1266 592 LINE",
"1156 78 LINE",
"1148 78 LINE",
"1030 592 LINE",
"822 1474 LINE",
"772 1474 LINE",
"564 592 LINE",
"446 78 LINE",
"438 78 LINE",
"326 592 LINE",
"130 1474 LINE",
"62 1474 LINE",
"402 0 LINE"
);
}
);
width = 1594;
},
{
anchors = (
{
name = bottom;
position = "{886, 0}";
},
{
name = top;
position = "{886, 1474}";
}
);
layerId = "2D8F7115-C311-411E-929D-56333CF7FFB2";
paths = (
{
closed = 1;
nodes = (
"664 0 LINE",
"804 478 LINE",
"882 758 LINE",
"890 758 LINE",
"964 478 LINE",
"1108 0 LINE",
"1490 0 LINE",
"1760 1474 LINE",
"1348 1474 LINE",
"1296 916 LINE",
"1262 534 LINE",
"1254 534 LINE",
"1176 832 LINE",
"1006 1474 LINE",
"766 1474 LINE",
"596 838 LINE",
"518 534 LINE",
"510 534 LINE",
"476 916 LINE",
"424 1474 LINE",
"12 1474 LINE",
"282 0 LINE"
);
}
);
width = 1772;
},
{
anchors = (
{
name = bottom;
position = "{826, 0}";
},
{
name = top;
position = "{822, 1474}";
}
);
layerId = "FD1CEFBD-BAB1-4C2A-A598-30E93F9A29F6";
paths = (
{
closed = 1;
nodes = (
"550 0 LINE",
"676 480 LINE",
"820 1094 LINE",
"826 1094 LINE",
"970 480 LINE",
"1096 0 LINE",
"1268 0 LINE",
"1606 1474 LINE",
"1426 1474 LINE",
"1258 688 LINE",
"1180 274 LINE",
"1172 274 LINE",
"1068 708 LINE",
"876 1474 LINE",
"770 1474 LINE",
"576 708 LINE",
"472 274 LINE",
"466 274 LINE",
"386 688 LINE",
"224 1474 LINE",
"38 1474 LINE",
"378 0 LINE"
);
}
);
width = 1644;
}
);
leftKerningGroup = LAT_W_UC;
rightKerningGroup = LAT_W_UC;
},
{
glyphname = X;
lastChange = "2023-05-23 03:09:47 +0000";
layers = (
{
anchors = (
{
name = bottom;
position = "{550, 0}";
},
{
name = top;
position = "{550, 1474}";
}
);
layerId = "AB099EFE-E788-4EFC-8633-CF147CB782A6";
paths = (
{
closed = 1;
nodes = (
"1004 0 LINE",
"596 734 LINE",
"596 742 LINE",
"556 784 LINE",
"548 784 LINE",
"170 1474 LINE",
"96 1474 LINE",
"504 738 LINE",
"504 730 LINE",
"544 690 LINE",
"552 690 LINE",
"928 0 LINE"
);
},
{
closed = 1;
nodes = (
"172 0 LINE",
"548 690 LINE",
"556 690 LINE",
"596 730 LINE",
"596 738 LINE",
"1004 1474 LINE",
"932 1474 LINE",
"552 784 LINE",
"544 784 LINE",
"504 742 LINE",
"504 734 LINE",
"96 0 LINE"
);
}
);
width = 1100;
},
{
anchors = (
{
name = bottom;
position = "{652, 0}";
},
{
name = top;
position = "{652, 1474}";
}
);
layerId = "2D8F7115-C311-411E-929D-56333CF7FFB2";
paths = (
{
closed = 1;
nodes = (
"1292 0 LINE",
"904 734 LINE",
"904 738 LINE",
"656 972 LINE",
"650 972 LINE",
"440 1474 LINE",
"18 1474 LINE",
"400 742 LINE",
"400 738 LINE",
"646 466 LINE",
"652 466 LINE",
"860 0 LINE"
);
},
{
closed = 1;
nodes = (
"438 0 LINE",
"650 466 LINE",
"656 466 LINE",
"904 738 LINE",
"904 742 LINE",
"1284 1474 LINE",
"858 1474 LINE",
"652 972 LINE",
"646 972 LINE",
"400 738 LINE",
"400 734 LINE",
"10 0 LINE"
);
}
);
width = 1302;
},
{
anchors = (
{
name = bottom;
position = "{580, 0}";
},
{
name = top;
position = "{580, 1474}";
}
);
layerId = "FD1CEFBD-BAB1-4C2A-A598-30E93F9A29F6";
paths = (
{
closed = 1;
nodes = (
"1096 0 LINE",
"700 734 LINE",
"700 742 LINE",
"586 872 LINE",
"578 872 LINE",
"270 1474 LINE",
"70 1474 LINE",
"460 742 LINE",
"460 734 LINE",
"574 600 LINE",
"584 600 LINE",
"896 0 LINE"
);
},
{
closed = 1;
nodes = (
"264 0 LINE",
"578 600 LINE",
"586 600 LINE",
"700 734 LINE",
"700 742 LINE",
"1090 1474 LINE",
"890 1474 LINE",
"584 872 LINE",
"574 872 LINE",
"460 742 LINE",
"460 734 LINE",
"64 0 LINE"
);
}
);
width = 1160;
}
);
leftKerningGroup = LAT_X_UC;
rightKerningGroup = LAT_X_UC;
unicode = 0058;
},
{
glyphname = Y;
lastChange = "2023-05-23 02:56:02 +0000";
layers = (
{
anchors = (
{
name = bottom;
position = "{538, 0}";
},
{
name = top;
position = "{538, 1474}";
}
);
layerId = "AB099EFE-E788-4EFC-8633-CF147CB782A6";
paths = (
{
closed = 1;
nodes = (
"570 0 LINE",
"570 680 LINE",
"1004 1474 LINE",
"932 1474 LINE",
"704 1042 LINE",
"540 748 LINE",
"534 748 LINE",
"370 1042 LINE",
"142 1474 LINE",
"70 1474 LINE",
"506 680 LINE",
"506 0 LINE"
);
}
);
width = 1074;
},
{
anchors = (
{
name = bottom;
position = "{596, 0}";
},
{
name = top;
position = "{596, 1474}";
}
);
layerId = "2D8F7115-C311-411E-929D-56333CF7FFB2";
paths = (
{
closed = 1;
nodes = (
"778 0 LINE",
"778 554 LINE",
"1210 1474 LINE",
"792 1474 LINE",
"706 1206 LINE",
"600 904 LINE",
"594 904 LINE",
"488 1206 LINE",
"402 1474 LINE",
"-16 1474 LINE",
"414 554 LINE",
"414 0 LINE"
);
}
);
width = 1194;
},
{
anchors = (
{
name = bottom;
position = "{562, 0}";
},
{
name = top;
position = "{562, 1474}";
}
);
layerId = "FD1CEFBD-BAB1-4C2A-A598-30E93F9A29F6";
paths = (
{
closed = 1;
nodes = (
"650 0 LINE",
"650 636 LINE",
"1086 1474 LINE",
"884 1474 LINE",
"708 1104 LINE",
"568 810 LINE",
"560 810 LINE",
"418 1104 LINE",
"242 1474 LINE",
"40 1474 LINE",
"474 636 LINE",
"474 0 LINE"
);
}
);
width = 1126;
}
);
leftKerningGroup = LAT_Y_UC;
rightKerningGroup = LAT_Y_UC;
unicode = 0059;
},
{
glyphname = Z;
lastChange = "2023-05-23 02:56:02 +0000";
layers = (
{
anchors = (
{
name = bottom;
position = "{568, 0}";
},
{
name = top;
position = "{562, 1474}";
}
);
guideLines = (
{
angle = 58;
position = "{320, 92}";
}
);
layerId = "AB099EFE-E788-4EFC-8633-CF147CB782A6";
paths = (
{
closed = 1;
nodes = (
"954 0 LINE",
"954 60 LINE",
"218 60 LINE",
"218 68 LINE",
"934 1438 LINE",
"934 1474 LINE",
"176 1474 LINE",
"176 1414 LINE",
"850 1414 LINE",
"850 1406 LINE",
"132 36 LINE",
"132 0 LINE"
);
}
);
width = 1086;
},
{
anchors = (
{
name = bottom;
position = "{530, 0}";
},
{
name = top;
position = "{530, 1474}";
}
);
guideLines = (
{
angle = 63;
position = "{198, 112}";
}
);
layerId = "2D8F7115-C311-411E-929D-56333CF7FFB2";
paths = (
{
closed = 1;
nodes = (
"1034 0 LINE",
"1034 328 LINE",
"546 328 LINE",
"546 336 LINE",
"1020 1422 LINE",
"1020 1474 LINE",
"56 1474 LINE",
"56 1146 LINE",
"514 1146 LINE",
"514 1138 LINE",
"38 50 LINE",
"38 0 LINE"
);
}
);
width = 1070;
},
{
anchors = (
{
name = bottom;
position = "{534, 0}";
},
{
name = top;
position = "{530, 1474}";
}
);
layerId = "FD1CEFBD-BAB1-4C2A-A598-30E93F9A29F6";
paths = (
{
closed = 1;
nodes = (
"948 0 LINE",
"948 160 LINE",
"344 160 LINE",
"344 168 LINE",
"944 1434 LINE",
"944 1474 LINE",
"146 1474 LINE",
"146 1314 LINE",
"700 1314 LINE",
"700 1306 LINE",
"100 40 LINE",
"100 0 LINE"
);
}
);
width = 1046;
}
);
leftKerningGroup = LAT_Z_UC;
rightKerningGroup = LAT_Z_UC;
unicode = 005A;
},
{
glyphname = a;
lastChange = "2023-05-23 06:57:17 +0000";
layers = (
{
anchors = (
{
name = bottom;
position = "{450, 0}";
},
{
name = ogonek;
position = "{806, -16}";
},
{
name = top;
position = "{462, 1068}";
}
);
guideLines = (
{
angle = 112.5;
position = "{364, 718}";
},
{
angle = 67.5;
position = "{1238, 720}";
}
);
layerId = "AB099EFE-E788-4EFC-8633-CF147CB782A6";
paths = (
{
closed = 1;
nodes = (
"530 -16 OFFCURVE",
"632 44 OFFCURVE",
"692 160 CURVE",
"676 152 LINE",
"700 152 LINE",
"692 160 LINE",
"702 80 OFFCURVE",
"724 33 OFFCURVE",
"786 -4 CURVE SMOOTH",
"806 -16 LINE",
"830 42 LINE",
"822 46 LINE SMOOTH",
"782 66 OFFCURVE",
"750 106 OFFCURVE",
"750 210 CURVE SMOOTH",
"750 766 LINE SMOOTH",
"750 974 OFFCURVE",
"656 1084 OFFCURVE",
"466 1084 CURVE SMOOTH",
"350 1084 OFFCURVE",
"238 1040 OFFCURVE",
"158 968 CURVE",
"180 916 LINE",
"258 986 OFFCURVE",
"360 1028 OFFCURVE",
"464 1028 CURVE SMOOTH",
"610 1028 OFFCURVE",
"690 942 OFFCURVE",
"690 774 CURVE SMOOTH",
"690 572 LINE",
"690 562 LINE",
"690 340 LINE SMOOTH",
"690 172 OFFCURVE",
"564 40 OFFCURVE",
"406 40 CURVE SMOOTH",
"262 40 OFFCURVE",
"172 150 OFFCURVE",
"172 290 CURVE SMOOTH",
"172 456 OFFCURVE",
"306 560 OFFCURVE",
"500 560 CURVE SMOOTH",
"710 560 LINE",
"710 616 LINE",
"500 616 LINE SMOOTH",
"272 616 OFFCURVE",
"112 490 OFFCURVE",
"112 290 CURVE SMOOTH",
"112 126 OFFCURVE",
"218 -16 OFFCURVE",
"406 -16 CURVE SMOOTH"
);
}
);
width = 946;
},
{
anchors = (
{
name = bottom;
position = "{508, 0}";
},
{
name = ogonek;
position = "{880, -16}";
},
{
name = top;
position = "{520, 1100}";
}
);
guideLines = (
{
angle = 67.5;
position = "{1196, 740}";
},
{
angle = 112.5;
position = "{316, 500}";
}
);
layerId = "2D8F7115-C311-411E-929D-56333CF7FFB2";
paths = (
{
closed = 1;
nodes = (
"532 -16 OFFCURVE",
"640 58 OFFCURVE",
"670 144 CURVE",
"564 120 LINE",
"720 120 LINE",
"634 182 LINE",
"648 106 OFFCURVE",
"734 30 OFFCURVE",
"842 -4 CURVE SMOOTH",
"880 -16 LINE",
"1000 274 LINE",
"978 282 LINE SMOOTH",
"944 294 OFFCURVE",
"924 340 OFFCURVE",
"924 398 CURVE SMOOTH",
"924 764 LINE SMOOTH",
"924 1000 OFFCURVE",
"772 1116 OFFCURVE",
"522 1116 CURVE SMOOTH",
"344 1116 OFFCURVE",
"194 1058 OFFCURVE",
"98 1014 CURVE",
"206 752 LINE",
"272 794 OFFCURVE",
"386 834 OFFCURVE",
"468 834 CURVE SMOOTH",
"544 834 OFFCURVE",
"600 796 OFFCURVE",
"600 722 CURVE SMOOTH",
"600 562 LINE",
"612 522 LINE",
"612 380 LINE SMOOTH",
"612 278 OFFCURVE",
"530 244 OFFCURVE",
"482 244 CURVE SMOOTH",
"434 244 OFFCURVE",
"380 282 OFFCURVE",
"380 348 CURVE SMOOTH",
"380 420 OFFCURVE",
"452 450 OFFCURVE",
"526 450 CURVE SMOOTH",
"646 450 LINE",
"646 664 LINE",
"474 664 LINE SMOOTH",
"224 664 OFFCURVE",
"52 536 OFFCURVE",
"52 330 CURVE SMOOTH",
"52 152 OFFCURVE",
"176 -16 OFFCURVE",
"392 -16 CURVE SMOOTH"
);
}
);
width = 1040;
},
{
anchors = (
{
name = bottom;
position = "{466, 0}";
},
{
name = ogonek;
position = "{824, -16}";
},
{
name = top;
position = "{476, 1080}";
}
);
background = {
components = (
{
name = u;
transform = "{1, 0, 0, 1, -74, 0}";
}
);
};
guideLines = (
{
angle = 67.5;
position = "{1164, 740}";
},
{
angle = 112.5;
position = "{258, 722}";
}
);
layerId = "FD1CEFBD-BAB1-4C2A-A598-30E93F9A29F6";
paths = (
{
closed = 1;
nodes = (
"530 -16 OFFCURVE",
"636 60 OFFCURVE",
"690 176 CURVE",
"638 138 LINE",
"698 138 LINE",
"668 170 LINE",
"672 114 OFFCURVE",
"720 36 OFFCURVE",
"800 -4 CURVE SMOOTH",
"824 -16 LINE",
"888 134 LINE",
"870 144 LINE SMOOTH",
"830 166 OFFCURVE",
"808 202 OFFCURVE",
"808 270 CURVE SMOOTH",
"808 774 LINE SMOOTH",
"808 970 OFFCURVE",
"670 1096 OFFCURVE",
"466 1096 CURVE SMOOTH",
"356 1096 OFFCURVE",
"220 1056 OFFCURVE",
"130 988 CURVE",
"194 840 LINE",
"258 900 OFFCURVE",
"364 940 OFFCURVE",
"452 940 CURVE SMOOTH",
"564 940 OFFCURVE",
"648 870 OFFCURVE",
"648 758 CURVE SMOOTH",
"648 568 LINE",
"652 510 LINE",
"652 388 LINE SMOOTH",
"652 236 OFFCURVE",
"546 128 OFFCURVE",
"420 128 CURVE SMOOTH",
"316 128 OFFCURVE",
"244 202 OFFCURVE",
"244 312 CURVE SMOOTH",
"244 432 OFFCURVE",
"338 504 OFFCURVE",
"496 504 CURVE SMOOTH",
"680 504 LINE",
"680 640 LINE",
"490 640 LINE SMOOTH",
"246 640 OFFCURVE",
"84 516 OFFCURVE",
"84 306 CURVE SMOOTH",
"84 122 OFFCURVE",
"214 -16 OFFCURVE",
"394 -16 CURVE SMOOTH"
);
}
);
width = 960;
}
);
leftKerningGroup = LAT_ASS02_LC;
rightKerningGroup = LAT_A_LC;
rightMetricsKey = u;
unicode = 0061;
},
{
color = 4;
glyphname = a.ss01;
lastChange = "2023-05-23 02:56:02 +0000";
layers = (
{
anchors = (
{
name = bottom;
position = "{490, 0}";
},
{
name = ogonek;
position = "{910, 0}";
},
{
name = top;
position = "{528, 1068}";
}
);
components = (
{
alignment = -1;
name = _part.bowl.ss01;
transform = "{-1, 0, 0, 1, 1064, 0}";
}
);
layerId = "AB099EFE-E788-4EFC-8633-CF147CB782A6";
paths = (
{
closed = 1;
nodes = (
"908 0 LINE",
"908 1068 LINE",
"846 1068 LINE",
"846 844 LINE",
"830 844 LINE",
"852 794 LINE",
"852 272 LINE",
"826 224 LINE",
"846 224 LINE",
"846 0 LINE"
);
}
);
width = 1068;
},
{
anchors = (
{
name = bottom;
position = "{576, 0}";
},
{
name = ogonek;
position = "{1026, 0}";
},
{
name = top;
position = "{584, 1100}";
}
);
components = (
{
alignment = -1;
name = _part.bowl.ss01;
transform = "{-1, 0, 0, 1, 1104, 0}";
}
);
layerId = "2D8F7115-C311-411E-929D-56333CF7FFB2";
paths = (
{
closed = 1;
nodes = (
"1026 0 LINE",
"1026 1100 LINE",
"698 1100 LINE",
"698 982 LINE",
"658 982 LINE",
"698 876 LINE",
"698 180 LINE",
"668 122 LINE",
"698 122 LINE",
"698 0 LINE"
);
}
);
width = 1106;
},
{
anchors = (
{
name = bottom;
position = "{510, 0}";
},
{
name = ogonek;
position = "{942, 0}";
},
{
name = top;
position = "{536, 1080}";
}
);
components = (
{
alignment = -1;
name = _part.bowl.ss01;
transform = "{-1, 0, 0, 1, 1080, 0}";
}
);
layerId = "FD1CEFBD-BAB1-4C2A-A598-30E93F9A29F6";
paths = (
{
closed = 1;
nodes = (
"942 0 LINE",
"942 1080 LINE",
"778 1080 LINE",
"778 934 LINE",
"750 934 LINE",
"786 876 LINE",
"786 202 LINE",
"752 146 LINE",
"778 146 LINE",
"778 0 LINE"
);
}
);
width = 1070;
}
);
leftKerningGroup = LAT_O_LC;
leftMetricsKey = o.ss01;
rightKerningGroup = LAT_ASS01_LC;
},
{
color = 6;
glyphname = a.ss02;
lastChange = "2023-05-23 02:56:02 +0000";
layers = (
{
anchors = (
{
name = bottom;
position = "{516, 0}";
},
{
name = ogonek;
position = "{948, -16}";
},
{
name = top;
position = "{528, 1068}";
},
{
name = topright;
position = "{1002, 1068}";
}
);
components = (
{
name = _part.bowl;
transform = "{-1, 0, 0, 1, 1046, 0}";
}
);
layerId = "AB099EFE-E788-4EFC-8633-CF147CB782A6";
paths = (
{
closed = 1;
nodes = (
"972 38 LINE",
"912 72 OFFCURVE",
"892 120 OFFCURVE",
"892 224 CURVE SMOOTH",
"892 1068 LINE",
"832 1068 LINE",
"832 854 LINE",
"808 854 LINE",
"836 766 LINE",
"836 296 LINE",
"814 222 LINE",
"842 222 LINE",
"834 234 LINE",
"836 86 OFFCURVE",
"866 42 OFFCURVE",
"948 -16 CURVE"
);
}
);
width = 1088;
},
{
anchors = (
{
name = bottom;
position = "{542, 0}";
},
{
name = ogonek;
position = "{968, -16}";
},
{
name = top;
position = "{564, 1100}";
},
{
name = topright;
position = "{1068, 1100}";
}
);
components = (
{
name = _part.bowl;
transform = "{-1, 0, 0, 1, 1096, 0}";
}
);
layerId = "2D8F7115-C311-411E-929D-56333CF7FFB2";
paths = (
{
closed = 1;
nodes = (
"1088 274 LINE",
"1030 300 OFFCURVE",
"1016 322 OFFCURVE",
"1016 420 CURVE SMOOTH",
"1016 1100 LINE",
"688 1100 LINE",
"688 988 LINE",
"642 988 LINE",
"682 898 LINE",
"682 280 LINE",
"644 162 LINE",
"724 162 LINE",
"706 176 LINE",
"736 94 OFFCURVE",
"836 24 OFFCURVE",
"968 -16 CURVE"
);
}
);
width = 1128;
},
{
anchors = (
{
name = bottom;
position = "{532, 0}";
},
{
name = ogonek;
position = "{946, -16}";
},
{
name = top;
position = "{536, 1080}";
},
{
name = topright;
position = "{1028, 1080}";
}
);
components = (
{
alignment = -1;
name = _part.bowl;
transform = "{-1, 0, 0, 1, 1058, 0}";
}
);
layerId = "FD1CEFBD-BAB1-4C2A-A598-30E93F9A29F6";
paths = (
{
closed = 1;
nodes = (
"1010 136 LINE",
"950 164 OFFCURVE",
"936 204 OFFCURVE",
"936 300 CURVE SMOOTH",
"936 1080 LINE",
"772 1080 LINE",
"772 952 LINE",
"724 952 LINE",
"790 840 LINE",
"790 296 LINE",
"746 164 LINE",
"824 164 LINE",
"788 198 LINE",
"796 94 OFFCURVE",
"844 40 OFFCURVE",
"946 -16 CURVE"
);
}
);
width = 1082;
}
);
leftKerningGroup = LAT_O_LC;
leftMetricsKey = o;
rightKerningGroup = LAT_A_LC;
rightMetricsKey = u;
},
{
glyphname = ae;
lastChange = "2023-05-23 02:56:02 +0000";
layers = (
{
anchors = (
{
name = bottom;
position = "{730, 0}";
},
{
name = top;
position = "{730, 1068}";
}
);
background = {
paths = (
{
closed = 1;
nodes = (
"1168 -16 OFFCURVE",
"1274 34 OFFCURVE",
"1352 108 CURVE",
"1328 172 LINE",
"1258 94 OFFCURVE",
"1160 40 OFFCURVE",
"1054 40 CURVE SMOOTH",
"864 40 OFFCURVE",
"728 226 OFFCURVE",
"730 528 CURVE SMOOTH",
"730 808 OFFCURVE",
"844 1008 OFFCURVE",
"1040 1008 CURVE SMOOTH",
"1222 1008 OFFCURVE",
"1338 834 OFFCURVE",
"1336 562 CURVE",
"714 562 LINE",
"714 506 LINE",
"1396 506 LINE",
"1398 520 OFFCURVE",
"1400 536 OFFCURVE",
"1400 548 CURVE SMOOTH",
"1400 860 OFFCURVE",
"1266 1064 OFFCURVE",
"1044 1064 CURVE SMOOTH",
"812 1064 OFFCURVE",
"672 842 OFFCURVE",
"672 532 CURVE SMOOTH",
"672 200 OFFCURVE",
"830 -16 OFFCURVE",
"1056 -16 CURVE SMOOTH"
);
}
);
};
layerId = "AB099EFE-E788-4EFC-8633-CF147CB782A6";
paths = (
{
closed = 1;
nodes = (
"566 -16 OFFCURVE",
"698 124 OFFCURVE",
"736 300 CURVE",
"726 300 LINE",
"782 104 OFFCURVE",
"884 -16 OFFCURVE",
"1062 -16 CURVE SMOOTH",
"1170 -16 OFFCURVE",
"1282 34 OFFCURVE",
"1360 110 CURVE",
"1336 174 LINE",
"1266 96 OFFCURVE",
"1168 40 OFFCURVE",
"1062 40 CURVE SMOOTH",
"874 40 OFFCURVE",
"750 238 OFFCURVE",
"750 548 CURVE SMOOTH",
"750 852 OFFCURVE",
"870 1028 OFFCURVE",
"1050 1028 CURVE SMOOTH",
"1238 1028 OFFCURVE",
"1348 840 OFFCURVE",
"1344 580 CURVE",
"738 580 LINE",
"738 524 LINE",
"1404 524 LINE",
"1406 540 OFFCURVE",
"1408 566 OFFCURVE",
"1408 582 CURVE SMOOTH",
"1408 888 OFFCURVE",
"1260 1084 OFFCURVE",
"1046 1084 CURVE SMOOTH",
"900 1084 OFFCURVE",
"784 990 OFFCURVE",
"726 788 CURVE",
"742 788 LINE",
"724 974 OFFCURVE",
"636 1084 OFFCURVE",
"466 1084 CURVE SMOOTH",
"350 1084 OFFCURVE",
"226 1030 OFFCURVE",
"162 968 CURVE",
"188 918 LINE",
"256 984 OFFCURVE",
"368 1028 OFFCURVE",
"464 1028 CURVE SMOOTH",
"686 1028 OFFCURVE",
"690 786 OFFCURVE",
"690 708 CURVE SMOOTH",
"690 406 LINE SMOOTH",
"690 162 OFFCURVE",
"524 40 OFFCURVE",
"388 40 CURVE SMOOTH",
"266 40 OFFCURVE",
"172 140 OFFCURVE",
"172 278 CURVE SMOOTH",
"172 434 OFFCURVE",
"286 524 OFFCURVE",
"522 524 CURVE SMOOTH",
"706 524 LINE",
"706 580 LINE",
"528 580 LINE SMOOTH",
"262 580 OFFCURVE",
"112 480 OFFCURVE",
"112 278 CURVE SMOOTH",
"112 100 OFFCURVE",
"230 -16 OFFCURVE",
"392 -16 CURVE SMOOTH"
);
}
);
width = 1516;
},
{
anchors = (
{
name = bottom;
position = "{754, 0}";
},
{
name = top;
position = "{762, 1100}";
}
);
background = {
components = (
{
name = a;
transform = "{0.99782, 0, 0, 1, 8, 0}";
}
);
};
layerId = "2D8F7115-C311-411E-929D-56333CF7FFB2";
paths = (
{
closed = 1;
nodes = (
"608 -16 OFFCURVE",
"744 94 OFFCURVE",
"772 232 CURVE",
"700 230 LINE",
"756 70 OFFCURVE",
"902 -16 OFFCURVE",
"1088 -16 CURVE SMOOTH",
"1194 -16 OFFCURVE",
"1340 14 OFFCURVE",
"1408 56 CURVE",
"1286 316 LINE",
"1256 282 OFFCURVE",
"1178 254 OFFCURVE",
"1104 254 CURVE SMOOTH",
"956 254 OFFCURVE",
"884 364 OFFCURVE",
"884 580 CURVE SMOOTH",
"884 766 OFFCURVE",
"932 854 OFFCURVE",
"1030 854 CURVE SMOOTH",
"1130 854 OFFCURVE",
"1164 766 OFFCURVE",
"1166 648 CURVE",
"818 648 LINE",
"818 444 LINE",
"1456 444 LINE",
"1462 476 OFFCURVE",
"1468 526 OFFCURVE",
"1468 594 CURVE SMOOTH",
"1468 936 OFFCURVE",
"1302 1116 OFFCURVE",
"1042 1116 CURVE SMOOTH",
"872 1116 OFFCURVE",
"768 1038 OFFCURVE",
"702 908 CURVE",
"812 908 LINE",
"772 1024 OFFCURVE",
"688 1116 OFFCURVE",
"472 1116 CURVE SMOOTH",
"296 1116 OFFCURVE",
"162 1060 OFFCURVE",
"98 1014 CURVE",
"210 754 LINE",
"254 794 OFFCURVE",
"356 846 OFFCURVE",
"446 846 CURVE SMOOTH",
"542 846 OFFCURVE",
"582 784 OFFCURVE",
"582 684 CURVE SMOOTH",
"582 372 LINE SMOOTH",
"582 294 OFFCURVE",
"544 244 OFFCURVE",
"480 244 CURVE SMOOTH",
"424 244 OFFCURVE",
"384 284 OFFCURVE",
"384 342 CURVE SMOOTH",
"384 422 OFFCURVE",
"458 448 OFFCURVE",
"522 448 CURVE SMOOTH",
"638 448 LINE",
"638 662 LINE",
"470 662 LINE SMOOTH",
"222 662 OFFCURVE",
"52 534 OFFCURVE",
"52 334 CURVE SMOOTH",
"52 154 OFFCURVE",
"186 -16 OFFCURVE",
"418 -16 CURVE SMOOTH"
);
}
);
width = 1512;
},
{
anchors = (
{
name = bottom;
position = "{740, 0}";
},
{
name = top;
position = "{736, 1080}";
}
);
layerId = "FD1CEFBD-BAB1-4C2A-A598-30E93F9A29F6";
paths = (
{
closed = 1;
nodes = (
"584 -16 OFFCURVE",
"708 116 OFFCURVE",
"746 252 CURVE",
"706 252 LINE",
"774 76 OFFCURVE",
"898 -16 OFFCURVE",
"1060 -16 CURVE SMOOTH",
"1166 -16 OFFCURVE",
"1282 24 OFFCURVE",
"1358 82 CURVE",
"1292 234 LINE",
"1232 176 OFFCURVE",
"1142 138 OFFCURVE",
"1064 138 CURVE SMOOTH",
"916 138 OFFCURVE",
"796 278 OFFCURVE",
"796 558 CURVE SMOOTH",
"796 800 OFFCURVE",
"882 944 OFFCURVE",
"1030 944 CURVE SMOOTH",
"1164 944 OFFCURVE",
"1254 826 OFFCURVE",
"1250 620 CURVE",
"766 620 LINE",
"768 480 LINE",
"1404 480 LINE",
"1408 504 OFFCURVE",
"1412 538 OFFCURVE",
"1412 588 CURVE SMOOTH",
"1412 902 OFFCURVE",
"1276 1096 OFFCURVE",
"1040 1096 CURVE SMOOTH",
"898 1096 OFFCURVE",
"782 1024 OFFCURVE",
"718 872 CURVE",
"764 872 LINE",
"730 1024 OFFCURVE",
"622 1096 OFFCURVE",
"464 1096 CURVE SMOOTH",
"352 1096 OFFCURVE",
"226 1056 OFFCURVE",
"136 988 CURVE",
"198 840 LINE",
"258 898 OFFCURVE",
"364 940 OFFCURVE",
"456 940 CURVE SMOOTH",
"650 940 OFFCURVE",
"640 746 OFFCURVE",
"640 636 CURVE SMOOTH",
"640 398 LINE SMOOTH",
"640 234 OFFCURVE",
"522 134 OFFCURVE",
"408 134 CURVE SMOOTH",
"318 134 OFFCURVE",
"244 200 OFFCURVE",
"244 304 CURVE SMOOTH",
"244 418 OFFCURVE",
"328 480 OFFCURVE",
"480 480 CURVE SMOOTH",
"672 480 LINE",
"672 620 LINE",
"466 620 LINE SMOOTH",
"232 620 OFFCURVE",
"84 506 OFFCURVE",
"84 302 CURVE SMOOTH",
"84 110 OFFCURVE",
"216 -16 OFFCURVE",
"400 -16 CURVE SMOOTH"
);
}
);
width = 1496;
}
);
leftKerningGroup = LAT_ASS02_LC;
leftMetricsKey = a;
rightKerningGroup = LAT_E_LC;
rightMetricsKey = e;
unicode = 00E6;
},
{
glyphname = b;
lastChange = "2021-01-27 07:21:14 +0000";
layers = (
{
anchors = (
{
name = bottom;
position = "{532, 0}";
},
{
name = center;
position = "{188, 1262}";
},
{
name = top;
position = "{576, 1156}";
}
);
components = (
{
name = _part.bowl;
transform = "{1, 0, 0, 1, 8, 0}";
}
);
layerId = "AB099EFE-E788-4EFC-8633-CF147CB782A6";
paths = (
{
closed = 1;
nodes = (
"220 0 LINE",
"220 224 LINE",
"248 224 LINE",
"210 312 LINE",
"210 728 LINE",
"238 852 LINE",
"220 852 LINE",
"220 1540 LINE",
"160 1540 LINE",
"160 0 LINE"
);
}
);
width = 1054;
},
{
anchors = (
{
name = bottom;
position = "{560, 0}";
},
{
name = center;
position = "{258, 1298}";
},
{
name = top;
position = "{708, 1164}";
}
);
components = (
{
name = _part.bowl;
transform = "{1, 0, 0, 1, 10, 0}";
}
);
layerId = "2D8F7115-C311-411E-929D-56333CF7FFB2";
paths = (
{
closed = 1;
nodes = (
"412 0 LINE",
"412 132 LINE",
"458 132 LINE",
"420 226 LINE",
"420 816 LINE",
"480 1008 LINE",
"436 1008 LINE",
"436 1540 LINE",
"84 1540 LINE",
"84 0 LINE"
);
}
);
width = 1106;
},
{
anchors = (
{
name = bottom;
position = "{540, 0}";
},
{
name = center;
position = "{212, 1276}";
},
{
name = top;
position = "{618, 1160}";
}
);
components = (
{
alignment = -1;
name = _part.bowl;
transform = "{1, 0, 0, 1, 4, 0}";
}
);
layerId = "FD1CEFBD-BAB1-4C2A-A598-30E93F9A29F6";
paths = (
{
closed = 1;
nodes = (
"296 0 LINE",
"296 124 LINE",
"322 124 LINE",
"276 246 LINE",
"276 806 LINE",
"312 960 LINE",
"296 960 LINE",
"296 1540 LINE",
"128 1540 LINE",
"128 0 LINE"
);
}
);
width = 1062;
}
);
leftKerningGroup = LAT_H_UC;
leftMetricsKey = h;
rightKerningGroup = LAT_O_LC;
rightMetricsKey = o;
unicode = 0062;
},
{
color = 4;
glyphname = b.ss01;
lastChange = "2023-05-23 02:56:02 +0000";
layers = (
{
anchors = (
{
name = bottom;
position = "{536, 0}";
},
{
name = center;
position = "{190, 1262}";
},
{
name = top;
position = "{580, 1156}";
}
);
components = (
{
name = _part.bowl.ss01;
transform = "{1, 0, 0, 1, 4, 0}";
}
);
layerId = "AB099EFE-E788-4EFC-8633-CF147CB782A6";
paths = (
{
closed = 1;
nodes = (
"220 0 LINE",
"220 230 LINE",
"246 230 LINE",
"218 302 LINE",
"218 756 LINE",
"250 836 LINE",
"220 836 LINE",
"220 1540 LINE",
"160 1540 LINE",
"160 0 LINE"
);
}
);
width = 1068;
},
{
anchors = (
{
name = bottom;
position = "{560, 0}";
},
{
name = center;
position = "{258, 1298}";
},
{
name = top;
position = "{708, 1164}";
}
);
components = (
{
name = _part.bowl.ss01;
transform = "{1, 0, 0, 1, 4, 0}";
}
);
layerId = "2D8F7115-C311-411E-929D-56333CF7FFB2";
paths = (
{
closed = 1;
nodes = (
"412 0 LINE",
"412 124 LINE",
"460 124 LINE",
"408 226 LINE",
"408 862 LINE",
"480 1012 LINE",
"436 1012 LINE",
"436 1540 LINE",
"84 1540 LINE",
"84 0 LINE"
);
}
);
width = 1108;
},
{
anchors = (
{
name = bottom;
position = "{544, 0}";
},
{
name = center;
position = "{212, 1276}";
},
{
name = top;
position = "{618, 1160}";
}
);
components = (
{
alignment = -1;
name = _part.bowl.ss01;
transform = "{1, 0, 0, 1, -2, 0}";
}
);
layerId = "FD1CEFBD-BAB1-4C2A-A598-30E93F9A29F6";
paths = (
{
closed = 1;
nodes = (
"292 0 LINE",
"292 156 LINE",
"338 156 LINE",
"290 250 LINE",
"290 826 LINE",
"330 928 LINE",
"296 928 LINE",
"296 1540 LINE",
"128 1540 LINE",
"128 0 LINE"
);
}
);
width = 1078;
}
);
leftKerningGroup = LAT_L_LC;
leftMetricsKey = h;
rightKerningGroup = LAT_O_LC;
rightMetricsKey = o.ss01;
},
{
glyphname = c;
lastChange = "2023-05-23 02:56:02 +0000";
layers = (
{
anchors = (
{
name = base;
position = "{704, 0}";
},
{
name = bottom;
position = "{508, 0}";
},
{
name = cedilla;
position = "{520, 0}";
},
{
name = top;
position = "{508, 1068}";
}
);
layerId = "AB099EFE-E788-4EFC-8633-CF147CB782A6";
paths = (
{
closed = 1;
nodes = (
"620 -12 OFFCURVE",
"732 34 OFFCURVE",
"800 108 CURVE",
"774 168 LINE",
"720 92 OFFCURVE",
"622 44 OFFCURVE",
"528 44 CURVE SMOOTH",
"312 44 OFFCURVE",
"168 238 OFFCURVE",
"168 538 CURVE SMOOTH",
"168 836 OFFCURVE",
"312 1028 OFFCURVE",
"530 1028 CURVE SMOOTH",
"620 1028 OFFCURVE",
"720 986 OFFCURVE",
"770 918 CURVE",
"798 976 LINE",
"728 1042 OFFCURVE",
"618 1084 OFFCURVE",
"530 1084 CURVE SMOOTH",
"276 1084 OFFCURVE",
"108 870 OFFCURVE",
"108 538 CURVE SMOOTH",
"108 204 OFFCURVE",
"274 -12 OFFCURVE",
"524 -12 CURVE SMOOTH"
);
}
);
userData = {
RMXScaler = {
height = 71.5;
weight = 20;
width = 77;
};
};
width = 888;
},
{
anchors = (
{
name = base;
position = "{752, 0}";
},
{
name = bottom;
position = "{554, 0}";
},
{
name = cedilla;
position = "{564, 0}";
},
{
name = top;
position = "{566, 1100}";
}
);
layerId = "2D8F7115-C311-411E-929D-56333CF7FFB2";
paths = (
{
closed = 1;
nodes = (
"662 -12 OFFCURVE",
"760 20 OFFCURVE",
"832 68 CURVE",
"710 352 LINE",
"680 316 OFFCURVE",
"618 288 OFFCURVE",
"558 288 CURVE SMOOTH",
"444 288 OFFCURVE",
"376 396 OFFCURVE",
"376 554 CURVE SMOOTH",
"376 716 OFFCURVE",
"450 816 OFFCURVE",
"552 816 CURVE SMOOTH",
"606 816 OFFCURVE",
"656 790 OFFCURVE",
"706 744 CURVE",
"834 1020 LINE",
"758 1072 OFFCURVE",
"660 1116 OFFCURVE",
"534 1116 CURVE SMOOTH",
"236 1116 OFFCURVE",
"44 894 OFFCURVE",
"44 554 CURVE SMOOTH",
"44 210 OFFCURVE",
"244 -12 OFFCURVE",
"552 -12 CURVE SMOOTH"
);
}
);
userData = {
RMXScaler = {
height = 73.5;
weight = -50;
width = 73;
};
};
width = 858;
},
{
anchors = (
{
name = base;
position = "{728, 0}";
},
{
name = bottom;
position = "{526, 0}";
},
{
name = cedilla;
position = "{540, 0}";
},
{
name = top;
position = "{532, 1080}";
}
);
layerId = "FD1CEFBD-BAB1-4C2A-A598-30E93F9A29F6";
paths = (
{
closed = 1;
nodes = (
"642 -12 OFFCURVE",
"752 32 OFFCURVE",
"820 96 CURVE",
"756 240 LINE",
"708 180 OFFCURVE",
"618 144 OFFCURVE",
"540 144 CURVE SMOOTH",
"366 144 OFFCURVE",
"252 300 OFFCURVE",
"252 542 CURVE SMOOTH",
"252 782 OFFCURVE",
"366 942 OFFCURVE",
"540 942 CURVE SMOOTH",
"610 942 OFFCURVE",
"704 908 OFFCURVE",
"756 850 CURVE",
"820 990 LINE",
"750 1050 OFFCURVE",
"648 1098 OFFCURVE",
"528 1098 CURVE SMOOTH",
"266 1098 OFFCURVE",
"84 878 OFFCURVE",
"84 546 CURVE SMOOTH",
"84 208 OFFCURVE",
"268 -12 OFFCURVE",
"528 -12 CURVE SMOOTH"
);
}
);
userData = {
RMXScaler = {
height = 71.5;
weight = 20;
width = 77;
};
};
width = 892;
}
);
leftKerningGroup = LAT_O_LC;
leftMetricsKey = o;
rightKerningGroup = LAT_C_LC;
unicode = 0063;
userData = {
RMXScaler = {
source = C;
};
};
},
{
glyphname = d;
lastChange = "2022-01-18 00:55:26 +0000";
layers = (
{
anchors = (
{
name = bottom;
position = "{538, 0}";
},
{
name = center;
position = "{866, 1262}";
},
{
name = top;
position = "{864, 1540}";
},
{
name = topright;
position = "{904, 1540}";
}
);
components = (
{
name = _part.bowl;
transform = "{-1, 0, 0, 1, 1046, 0}";
}
);
layerId = "AB099EFE-E788-4EFC-8633-CF147CB782A6";
paths = (
{
closed = 1;
nodes = (
"974 38 LINE",
"910 76 OFFCURVE",
"894 118 OFFCURVE",
"894 232 CURVE SMOOTH",
"894 1540 LINE",
"834 1540 LINE",
"834 852 LINE",
"814 852 LINE",
"846 756 LINE",
"846 294 LINE",
"816 224 LINE",
"846 224 LINE",
"836 234 LINE",
"840 78 OFFCURVE",
"874 32 OFFCURVE",
"946 -16 CURVE"
);
}
);
width = 1076;
},
{
anchors = (
{
name = bottom;
position = "{542, 0}";
},
{
name = center;
position = "{836, 1298}";
},
{
name = top;
position = "{842, 1540}";
},
{
name = topright;
position = "{1022, 1540}";
}
);
background = {
components = (
{
name = u;
transform = "{1, 0, 0, 1, 36, 0}";
}
);
};
components = (
{
name = _part.bowl;
transform = "{-1, 0, 0, 1, 1096, 0}";
}
);
layerId = "2D8F7115-C311-411E-929D-56333CF7FFB2";
paths = (
{
closed = 1;
nodes = (
"1098 274 LINE",
"1046 296 OFFCURVE",
"1022 320 OFFCURVE",
"1022 392 CURVE SMOOTH",
"1022 1540 LINE",
"670 1540 LINE",
"670 1008 LINE",
"642 1008 LINE",
"686 890 LINE",
"686 274 LINE",
"654 144 LINE",
"736 144 LINE",
"682 182 LINE",
"716 94 OFFCURVE",
"808 32 OFFCURVE",
"962 -16 CURVE"
);
}
);
width = 1138;
},
{
anchors = (
{
name = bottom;
position = "{530, 0}";
},
{
name = center;
position = "{854, 1274}";
},
{
name = top;
position = "{854, 1540}";
},
{
name = topright;
position = "{1016, 1540}";
}
);
components = (
{
alignment = -1;
name = _part.bowl;
transform = "{-1, 0, 0, 1, 1058, 0}";
}
);
layerId = "FD1CEFBD-BAB1-4C2A-A598-30E93F9A29F6";
paths = (
{
closed = 1;
nodes = (
"1016 136 LINE",
"962 166 OFFCURVE",
"934 194 OFFCURVE",
"934 262 CURVE SMOOTH",
"934 1540 LINE",
"766 1540 LINE",
"766 940 LINE",
"746 940 LINE",
"788 822 LINE",
"788 290 LINE",
"744 168 LINE",
"822 168 LINE",
"792 196 LINE",
"796 102 OFFCURVE",
"840 44 OFFCURVE",
"950 -16 CURVE"
);
}
);
width = 1092;
}
);
leftKerningGroup = LAT_O_LC;
leftMetricsKey = o;
rightKerningGroup = LAT_D_LC;
unicode = 0064;
},
{
glyphname = eth;
lastChange = "2023-05-23 02:56:02 +0000";
layers = (
{
layerId = "AB099EFE-E788-4EFC-8633-CF147CB782A6";
paths = (
{
closed = 1;
nodes = (
"772 -16 OFFCURVE",
"936 200 OFFCURVE",
"936 590 CURVE SMOOTH",
"936 1122 OFFCURVE",
"630 1444 OFFCURVE",
"308 1558 CURVE",
"288 1506 LINE",
"512 1430 OFFCURVE",
"776 1222 OFFCURVE",
"862 818 CURVE",
"874 838 LINE",
"846 838 LINE",
"876 796 LINE",
"816 946 OFFCURVE",
"674 1024 OFFCURVE",
"528 1024 CURVE SMOOTH",
"286 1024 OFFCURVE",
"112 812 OFFCURVE",
"112 504 CURVE SMOOTH",
"112 196 OFFCURVE",
"286 -16 OFFCURVE",
"528 -16 CURVE SMOOTH"
);
},
{
closed = 1;
nodes = (
"322 40 OFFCURVE",
"172 228 OFFCURVE",
"172 504 CURVE SMOOTH",
"172 780 OFFCURVE",
"322 968 OFFCURVE",
"538 968 CURVE SMOOTH",
"704 968 OFFCURVE",
"878 854 OFFCURVE",
"878 534 CURVE SMOOTH",
"878 246 OFFCURVE",
"736 40 OFFCURVE",
"524 40 CURVE SMOOTH"
);
},
{
closed = 1;
nodes = (
"816 1508 LINE",
"792 1554 LINE",
"278 1220 LINE",
"306 1172 LINE"
);
}
);
width = 1048;
},
{
layerId = "2D8F7115-C311-411E-929D-56333CF7FFB2";
paths = (
{
closed = 1;
nodes = (
"848 -16 OFFCURVE",
"1038 246 OFFCURVE",
"1038 648 CURVE SMOOTH",
"1038 1096 OFFCURVE",
"800 1458 OFFCURVE",
"316 1698 CURVE",
"180 1428 LINE",
"454 1318 OFFCURVE",
"632 1122 OFFCURVE",
"706 898 CURVE",
"746 946 LINE",
"660 946 LINE",
"720 876 LINE",
"694 996 OFFCURVE",
"564 1028 OFFCURVE",
"468 1028 CURVE SMOOTH",
"226 1028 OFFCURVE",
"48 826 OFFCURVE",
"48 518 CURVE SMOOTH",
"48 192 OFFCURVE",
"246 -16 OFFCURVE",
"530 -16 CURVE SMOOTH"
);
},
{
closed = 1;
nodes = (
"446 290 OFFCURVE",
"384 380 OFFCURVE",
"384 528 CURVE SMOOTH",
"384 674 OFFCURVE",
"446 756 OFFCURVE",
"542 756 CURVE SMOOTH",
"642 756 OFFCURVE",
"702 670 OFFCURVE",
"702 528 CURVE SMOOTH",
"702 384 OFFCURVE",
"642 290 OFFCURVE",
"542 290 CURVE SMOOTH"
);
},
{
closed = 1;
nodes = (
"926 1512 LINE",
"806 1690 LINE",
"186 1212 LINE",
"274 1084 LINE"
);
}
);
width = 1076;
},
{
layerId = "FD1CEFBD-BAB1-4C2A-A598-30E93F9A29F6";
paths = (
{
closed = 1;
nodes = (
"794 -16 OFFCURVE",
"966 236 OFFCURVE",
"966 620 CURVE SMOOTH",
"966 1130 OFFCURVE",
"678 1446 OFFCURVE",
"308 1612 CURVE",
"244 1474 LINE",
"466 1380 OFFCURVE",
"706 1190 OFFCURVE",
"794 868 CURVE",
"812 898 LINE",
"766 898 LINE",
"802 860 LINE",
"768 952 OFFCURVE",
"642 1032 OFFCURVE",
"510 1032 CURVE SMOOTH",
"252 1032 OFFCURVE",
"84 824 OFFCURVE",
"84 512 CURVE SMOOTH",
"84 196 OFFCURVE",
"258 -16 OFFCURVE",
"526 -16 CURVE SMOOTH"
);
},
{
closed = 1;
nodes = (
"364 136 OFFCURVE",
"260 280 OFFCURVE",
"260 516 CURVE SMOOTH",
"260 732 OFFCURVE",
"360 876 OFFCURVE",
"530 876 CURVE SMOOTH",
"680 876 OFFCURVE",
"804 750 OFFCURVE",
"804 528 CURVE SMOOTH",
"804 300 OFFCURVE",
"698 144 OFFCURVE",
"532 140 CURVE SMOOTH"
);
},
{
closed = 1;
nodes = (
"860 1518 LINE",
"798 1616 LINE",
"232 1234 LINE",
"296 1138 LINE"
);
}
);
width = 1050;
}
);
leftKerningGroup = LAT_ETH_LC;
rightKerningGroup = LAT_ETH_LC;
unicode = 00F0;
},
{
glyphname = e;
lastChange = "2023-05-23 02:56:02 +0000";
layers = (
{
anchors = (
{
name = bottom;
position = "{500, 0}";
},
{
name = cedilla;
position = "{500, 0}";
},
{
name = ogonek;
position = "{766, 80}";
},
{
name = top;
position = "{502, 1068}";
}
);
layerId = "AB099EFE-E788-4EFC-8633-CF147CB782A6";
paths = (
{
closed = 1;
nodes = (
"614 -16 OFFCURVE",
"726 36 OFFCURVE",
"804 120 CURVE",
"780 176 LINE",
"712 100 OFFCURVE",
"608 40 OFFCURVE",
"498 40 CURVE SMOOTH",
"304 40 OFFCURVE",
"168 232 OFFCURVE",
"168 536 CURVE SMOOTH",
"168 826 OFFCURVE",
"292 1028 OFFCURVE",
"492 1028 CURVE SMOOTH",
"678 1028 OFFCURVE",
"806 854 OFFCURVE",
"796 572 CURVE",
"156 572 LINE",
"156 516 LINE",
"852 516 LINE",
"854 548 OFFCURVE",
"856 582 OFFCURVE",
"856 614 CURVE SMOOTH",
"856 892 OFFCURVE",
"708 1084 OFFCURVE",
"490 1084 CURVE SMOOTH",
"258 1084 OFFCURVE",
"108 866 OFFCURVE",
"108 538 CURVE SMOOTH",
"108 200 OFFCURVE",
"268 -16 OFFCURVE",
"500 -16 CURVE SMOOTH"
);
}
);
width = 964;
},
{
anchors = (
{
name = bottom;
position = "{534, 0}";
},
{
name = cedilla;
position = "{562, 0}";
},
{
name = ogonek;
position = "{872, 72}";
},
{
name = top;
position = "{526, 1100}";
}
);
background = {
paths = (
{
closed = 1;
nodes = (
"667 -16 OFFCURVE",
"769 -3 OFFCURVE",
"854 12 CURVE",
"730 278 LINE",
"668 260 OFFCURVE",
"611 256 OFFCURVE",
"552 256 CURVE SMOOTH",
"450 256 OFFCURVE",
"379 371 OFFCURVE",
"380 568 CURVE SMOOTH",
"379 715 OFFCURVE",
"417 824 OFFCURVE",
"494 824 CURVE SMOOTH",
"563 824 OFFCURVE",
"602 785 OFFCURVE",
"614 640 CURVE",
"314 640 LINE",
"314 426 LINE",
"926 426 LINE",
"943 446 OFFCURVE",
"951 509 OFFCURVE",
"952 594 CURVE SMOOTH",
"951 903 OFFCURVE",
"778 1096 OFFCURVE",
"496 1096 CURVE SMOOTH",
"219 1096 OFFCURVE",
"49 878 OFFCURVE",
"50 550 CURVE SMOOTH",
"49 201 OFFCURVE",
"250 -16 OFFCURVE",
"544 -16 CURVE SMOOTH"
);
}
);
};
layerId = "2D8F7115-C311-411E-929D-56333CF7FFB2";
paths = (
{
closed = 1;
nodes = (
"690 -16 OFFCURVE",
"816 12 OFFCURVE",
"888 56 CURVE",
"766 316 LINE",
"738 286 OFFCURVE",
"662 260 OFFCURVE",
"582 260 CURVE SMOOTH",
"420 260 OFFCURVE",
"346 368 OFFCURVE",
"346 568 CURVE SMOOTH",
"346 736 OFFCURVE",
"398 848 OFFCURVE",
"506 848 CURVE SMOOTH",
"588 848 OFFCURVE",
"640 786 OFFCURVE",
"640 648 CURVE",
"324 648 LINE",
"324 436 LINE",
"942 436 LINE",
"950 470 OFFCURVE",
"956 542 OFFCURVE",
"956 610 CURVE SMOOTH",
"956 926 OFFCURVE",
"790 1116 OFFCURVE",
"512 1116 CURVE SMOOTH",
"214 1116 OFFCURVE",
"44 898 OFFCURVE",
"44 558 CURVE SMOOTH",
"44 196 OFFCURVE",
"236 -16 OFFCURVE",
"568 -16 CURVE SMOOTH"
);
}
);
width = 1000;
},
{
anchors = (
{
name = bottom;
position = "{506, 0}";
},
{
name = cedilla;
position = "{516, 0}";
},
{
name = ogonek;
position = "{818, 94}";
},
{
name = top;
position = "{502, 1080}";
}
);
layerId = "FD1CEFBD-BAB1-4C2A-A598-30E93F9A29F6";
paths = (
{
closed = 1;
nodes = (
"626 -16 OFFCURVE",
"738 20 OFFCURVE",
"822 82 CURVE",
"760 234 LINE",
"690 172 OFFCURVE",
"598 140 OFFCURVE",
"524 140 CURVE SMOOTH",
"352 140 OFFCURVE",
"248 298 OFFCURVE",
"248 544 CURVE SMOOTH",
"248 780 OFFCURVE",
"336 940 OFFCURVE",
"494 940 CURVE SMOOTH",
"638 940 OFFCURVE",
"724 808 OFFCURVE",
"724 612 CURVE",
"212 612 LINE",
"212 472 LINE",
"880 472 LINE",
"884 508 OFFCURVE",
"888 550 OFFCURVE",
"888 598 CURVE SMOOTH",
"888 898 OFFCURVE",
"732 1096 OFFCURVE",
"494 1096 CURVE SMOOTH",
"240 1096 OFFCURVE",
"84 874 OFFCURVE",
"84 550 CURVE SMOOTH",
"84 206 OFFCURVE",
"258 -16 OFFCURVE",
"522 -16 CURVE SMOOTH"
);
}
);
width = 972;
}
);
leftKerningGroup = LAT_O_LC;
leftMetricsKey = o;
rightKerningGroup = LAT_E_LC;
unicode = 0065;
},
{
glyphname = f;
lastChange = "2023-05-23 02:56:02 +0000";
layers = (
{
anchors = (
{
name = bottom;
position = "{282, 0}";
},
{
name = top;
position = "{442, 1540}";
}
);
components = (
{
name = "_part.f-stem";
transform = "{1, 0, 0, 1, 8, 2}";
}
);
layerId = "AB099EFE-E788-4EFC-8633-CF147CB782A6";
paths = (
{
closed = 1;
nodes = (
"538 1012 LINE",
"538 1068 LINE",
"88 1068 LINE",
"88 1012 LINE"
);
}
);
width = 640;
},
{
anchors = (
{
name = bottom;
position = "{392, 0}";
},
{
name = top;
position = "{506, 1540}";
}
);
components = (
{
name = "_part.f-stem";
transform = "{1, 0, 0, 1, 6, 0}";
}
);
layerId = "2D8F7115-C311-411E-929D-56333CF7FFB2";
paths = (
{
closed = 1;
nodes = (
"774 800 LINE",
"774 1100 LINE",
"22 1100 LINE",
"22 800 LINE"
);
}
);
width = 838;
},
{
anchors = (
{
name = bottom;
position = "{306, 0}";
},
{
name = top;
position = "{466, 1540}";
}
);
components = (
{
name = "_part.f-stem";
}
);
layerId = "FD1CEFBD-BAB1-4C2A-A598-30E93F9A29F6";
paths = (
{
closed = 1;
nodes = (
"608 924 LINE",
"608 1080 LINE",
"52 1080 LINE",
"52 924 LINE"
);
}
);
width = 688;
}
);
leftKerningGroup = LAT_F_LC;
rightKerningGroup = LAT_F_LC;
unicode = 0066;
},
{
glyphname = g;
lastChange = "2023-05-23 02:56:02 +0000";
layers = (
{
anchors = (
{
name = bottom;
position = "{522, -428}";
},
{
name = top;
position = "{518, 1068}";
}
);
layerId = "AB099EFE-E788-4EFC-8633-CF147CB782A6";
paths = (
{
closed = 1;
nodes = (
"750 -436 OFFCURVE",
"892 -280 OFFCURVE",
"892 -28 CURVE SMOOTH",
"892 1068 LINE",
"832 1068 LINE",
"832 868 LINE",
"804 868 LINE",
"836 786 LINE",
"836 288 LINE",
"804 200 LINE",
"832 200 LINE",
"832 -32 LINE SMOOTH",
"832 -248 OFFCURVE",
"714 -380 OFFCURVE",
"516 -380 CURVE SMOOTH",
"406 -380 OFFCURVE",
"296 -334 OFFCURVE",
"228 -264 CURVE",
"204 -324 LINE",
"278 -394 OFFCURVE",
"398 -436 OFFCURVE",
"516 -436 CURVE SMOOTH"
);
},
{
closed = 1;
nodes = (
"750 -16 OFFCURVE",
"890 186 OFFCURVE",
"890 536 CURVE SMOOTH",
"890 884 OFFCURVE",
"750 1084 OFFCURVE",
"502 1084 CURVE SMOOTH",
"254 1084 OFFCURVE",
"112 886 OFFCURVE",
"112 536 CURVE SMOOTH",
"112 188 OFFCURVE",
"252 -16 OFFCURVE",
"502 -16 CURVE SMOOTH"
);
},
{
closed = 1;
nodes = (
"292 40 OFFCURVE",
"172 220 OFFCURVE",
"172 536 CURVE SMOOTH",
"172 848 OFFCURVE",
"290 1028 OFFCURVE",
"504 1028 CURVE SMOOTH",
"714 1028 OFFCURVE",
"836 854 OFFCURVE",
"836 542 CURVE SMOOTH",
"836 228 OFFCURVE",
"714 40 OFFCURVE",
"502 40 CURVE SMOOTH"
);
}
);
width = 1052;
},
{
anchors = (
{
name = bottom;
position = "{542, -428}";
},
{
name = top;
position = "{524, 1100}";
}
);
layerId = "2D8F7115-C311-411E-929D-56333CF7FFB2";
paths = (
{
closed = 1;
nodes = (
"806 -436 OFFCURVE",
"1016 -260 OFFCURVE",
"1016 58 CURVE SMOOTH",
"1016 1100 LINE",
"700 1100 LINE",
"700 998 LINE",
"624 998 LINE",
"706 874 LINE",
"706 256 LINE",
"662 144 LINE",
"692 144 LINE",
"692 56 LINE SMOOTH",
"692 -74 OFFCURVE",
"574 -146 OFFCURVE",
"452 -146 CURVE SMOOTH",
"376 -146 OFFCURVE",
"304 -116 OFFCURVE",
"218 -64 CURVE",
"104 -336 LINE",
"204 -398 OFFCURVE",
"344 -436 OFFCURVE",
"492 -436 CURVE SMOOTH"
);
},
{
closed = 1;
nodes = (
"696 28 OFFCURVE",
"790 246 OFFCURVE",
"790 584 CURVE SMOOTH",
"790 914 OFFCURVE",
"698 1116 OFFCURVE",
"450 1116 CURVE SMOOTH",
"196 1116 OFFCURVE",
"44 908 OFFCURVE",
"44 568 CURVE SMOOTH",
"44 234 OFFCURVE",
"190 28 OFFCURVE",
"440 28 CURVE SMOOTH"
);
},
{
closed = 1;
nodes = (
"434 308 OFFCURVE",
"376 402 OFFCURVE",
"376 576 CURVE SMOOTH",
"376 744 OFFCURVE",
"436 836 OFFCURVE",
"540 836 CURVE SMOOTH",
"646 836 OFFCURVE",
"702 744 OFFCURVE",
"702 580 CURVE SMOOTH",
"702 404 OFFCURVE",
"644 308 OFFCURVE",
"534 308 CURVE SMOOTH"
);
}
);
width = 1096;
},
{
anchors = (
{
name = bottom;
position = "{532, -428}";
},
{
name = top;
position = "{520, 1080}";
}
);
guideLines = (
{
angle = 67.5;
position = "{462, 308}";
}
);
layerId = "FD1CEFBD-BAB1-4C2A-A598-30E93F9A29F6";
paths = (
{
closed = 1;
nodes = (
"764 -436 OFFCURVE",
"940 -278 OFFCURVE",
"940 12 CURVE SMOOTH",
"940 1080 LINE",
"776 1080 LINE",
"776 940 LINE",
"736 940 LINE",
"788 838 LINE",
"788 266 LINE",
"750 156 LINE",
"780 156 LINE",
"780 6 LINE SMOOTH",
"780 -188 OFFCURVE",
"652 -280 OFFCURVE",
"496 -280 CURVE SMOOTH",
"402 -280 OFFCURVE",
"296 -246 OFFCURVE",
"228 -176 CURVE",
"164 -332 LINE",
"256 -400 OFFCURVE",
"382 -436 OFFCURVE",
"502 -436 CURVE SMOOTH"
);
},
{
closed = 1;
nodes = (
"738 -4 OFFCURVE",
"864 208 OFFCURVE",
"864 542 CURVE SMOOTH",
"864 862 OFFCURVE",
"748 1096 OFFCURVE",
"488 1096 CURVE SMOOTH",
"246 1096 OFFCURVE",
"88 888 OFFCURVE",
"88 546 CURVE SMOOTH",
"88 204 OFFCURVE",
"246 -4 OFFCURVE",
"490 -4 CURVE SMOOTH"
);
},
{
closed = 1;
nodes = (
"360 152 OFFCURVE",
"256 302 OFFCURVE",
"256 550 CURVE SMOOTH",
"256 794 OFFCURVE",
"356 940 OFFCURVE",
"518 940 CURVE SMOOTH",
"682 940 OFFCURVE",
"784 794 OFFCURVE",
"784 552 CURVE SMOOTH",
"784 306 OFFCURVE",
"684 152 OFFCURVE",
"520 152 CURVE SMOOTH"
);
}
);
width = 1068;
}
);
leftKerningGroup = LAT_G_LC;
rightKerningGroup = LAT_G_LC;
unicode = 0067;
},
{
color = 4;
glyphname = g.ss01;
lastChange = "2023-05-23 02:56:02 +0000";
layers = (
{
anchors = (
{
name = bottom;
position = "{538, -428}";
},
{
name = top;
position = "{532, 1068}";
}
);
components = (
{
name = _part.bowl.ss01;
transform = "{-1, 0, 0, 1, 1088, 0}";
}
);
layerId = "AB099EFE-E788-4EFC-8633-CF147CB782A6";
paths = (
{
closed = 1;
nodes = (
"700 -436 OFFCURVE",
"932 -316 OFFCURVE",
"932 8 CURVE SMOOTH",
"932 1068 LINE",
"872 1068 LINE",
"872 824 LINE",
"858 824 LINE",
"876 754 LINE",
"876 324 LINE",
"862 254 LINE",
"872 254 LINE",
"872 4 LINE SMOOTH",
"872 -274 OFFCURVE",
"676 -382 OFFCURVE",
"522 -380 CURVE SMOOTH",
"412 -378 OFFCURVE",
"288 -336 OFFCURVE",
"220 -264 CURVE",
"196 -324 LINE",
"264 -388 OFFCURVE",
"412 -436 OFFCURVE",
"522 -436 CURVE SMOOTH"
);
}
);
width = 1092;
},
{
anchors = (
{
name = bottom;
position = "{534, -436}";
},
{
name = top;
position = "{512, 1100}";
}
);
components = (
{
name = _part.bowl.ss01;
transform = "{-1, 0, 0, 0.95973, 1112, 46}";
}
);
layerId = "2D8F7115-C311-411E-929D-56333CF7FFB2";
paths = (
{
closed = 1;
nodes = (
"792 -436 OFFCURVE",
"1018 -262 OFFCURVE",
"1018 58 CURVE SMOOTH",
"1018 1100 LINE",
"702 1100 LINE",
"702 992 LINE",
"626 992 LINE",
"716 876 LINE",
"716 256 LINE",
"664 152 LINE",
"692 152 LINE",
"692 56 LINE SMOOTH",
"692 -74 OFFCURVE",
"562 -146 OFFCURVE",
"438 -146 CURVE SMOOTH",
"362 -146 OFFCURVE",
"290 -116 OFFCURVE",
"204 -64 CURVE",
"90 -336 LINE",
"190 -398 OFFCURVE",
"332 -436 OFFCURVE",
"478 -436 CURVE SMOOTH"
);
}
);
width = 1098;
},
{
anchors = (
{
name = bottom;
position = "{538, -428}";
},
{
name = top;
position = "{526, 1080}";
}
);
components = (
{
alignment = -1;
name = _part.bowl.ss01;
transform = "{-1, 0, 0, 0.98476, 1092, 16}";
}
);
layerId = "FD1CEFBD-BAB1-4C2A-A598-30E93F9A29F6";
paths = (
{
closed = 1;
nodes = (
"740 -436 OFFCURVE",
"954 -286 OFFCURVE",
"954 34 CURVE SMOOTH",
"954 1080 LINE",
"790 1080 LINE",
"790 934 LINE",
"764 934 LINE",
"796 836 LINE",
"796 270 LINE",
"768 168 LINE",
"794 168 LINE",
"794 26 LINE SMOOTH",
"794 -204 OFFCURVE",
"616 -280 OFFCURVE",
"486 -280 CURVE SMOOTH",
"388 -280 OFFCURVE",
"280 -244 OFFCURVE",
"204 -174 CURVE",
"142 -320 LINE",
"220 -388 OFFCURVE",
"358 -436 OFFCURVE",
"492 -436 CURVE SMOOTH"
);
}
);
width = 1082;
}
);
leftKerningGroup = LAT_G_LC;
rightKerningGroup = LAT_G_LC;
rightMetricsKey = g;
},
{
color = 7;
glyphname = g.ss03;
lastChange = "2023-05-23 02:56:02 +0000";
layers = (
{
anchors = (
{
name = bottom;
position = "{500, -436}";
},
{
name = top;
position = "{478, 1068}";
}
);
layerId = "AB099EFE-E788-4EFC-8633-CF147CB782A6";
paths = (
{
closed = 1;
nodes = (
"726 -436 OFFCURVE",
"910 -294 OFFCURVE",
"910 -98 CURVE SMOOTH",
"910 44 OFFCURVE",
"808 128 OFFCURVE",
"642 128 CURVE SMOOTH",
"406 128 LINE SMOOTH",
"296 128 OFFCURVE",
"208 204 OFFCURVE",
"208 318 CURVE SMOOTH",
"208 378 OFFCURVE",
"234 422 OFFCURVE",
"260 446 CURVE",
"218 494 LINE",
"188 460 OFFCURVE",
"152 400 OFFCURVE",
"152 322 CURVE SMOOTH",
"152 202 OFFCURVE",
"234 72 OFFCURVE",
"408 72 CURVE SMOOTH",
"650 72 LINE SMOOTH",
"776 72 OFFCURVE",
"850 10 OFFCURVE",
"850 -98 CURVE SMOOTH",
"850 -252 OFFCURVE",
"706 -380 OFFCURVE",
"490 -380 CURVE SMOOTH",
"300 -380 OFFCURVE",
"170 -280 OFFCURVE",
"170 -132 CURVE SMOOTH",
"170 -28 OFFCURVE",
"242 76 OFFCURVE",
"310 108 CURVE",
"260 146 LINE",
"178 92 OFFCURVE",
"110 -12 OFFCURVE",
"110 -132 CURVE SMOOTH",
"110 -312 OFFCURVE",
"264 -436 OFFCURVE",
"486 -436 CURVE SMOOTH"
);
},
{
closed = 1;
nodes = (
"680 338 OFFCURVE",
"826 490 OFFCURVE",
"826 716 CURVE SMOOTH",
"826 934 OFFCURVE",
"686 1084 OFFCURVE",
"480 1084 CURVE SMOOTH",
"280 1084 OFFCURVE",
"134 938 OFFCURVE",
"134 718 CURVE SMOOTH",
"134 494 OFFCURVE",
"282 338 OFFCURVE",
"482 338 CURVE SMOOTH"
);
},
{
closed = 1;
nodes = (
"318 394 OFFCURVE",
"196 530 OFFCURVE",
"196 714 CURVE SMOOTH",
"196 892 OFFCURVE",
"310 1028 OFFCURVE",
"480 1028 CURVE SMOOTH",
"642 1028 OFFCURVE",
"766 902 OFFCURVE",
"766 714 CURVE SMOOTH",
"766 514 OFFCURVE",
"632 394 OFFCURVE",
"480 394 CURVE SMOOTH"
);
},
{
closed = 1;
nodes = (
"798 982 OFFCURVE",
"844 1008 OFFCURVE",
"926 1056 CURVE",
"896 1114 LINE",
"832 1078 OFFCURVE",
"798 1052 OFFCURVE",
"714 984 CURVE",
"744 932 LINE"
);
}
);
width = 1008;
},
{
anchors = (
{
name = bottom;
position = "{540, -436}";
},
{
name = top;
position = "{528, 1100}";
}
);
layerId = "2D8F7115-C311-411E-929D-56333CF7FFB2";
paths = (
{
closed = 1;
nodes = (
"922 -436 OFFCURVE",
"1062 -268 OFFCURVE",
"1062 -84 CURVE SMOOTH",
"1062 118 OFFCURVE",
"922 234 OFFCURVE",
"722 234 CURVE SMOOTH",
"492 234 LINE SMOOTH",
"402 234 OFFCURVE",
"338 234 OFFCURVE",
"338 302 CURVE SMOOTH",
"338 346 OFFCURVE",
"366 370 OFFCURVE",
"398 394 CURVE",
"202 482 LINE",
"132 438 OFFCURVE",
"88 374 OFFCURVE",
"88 286 CURVE SMOOTH",
"88 130 OFFCURVE",
"232 -4 OFFCURVE",
"468 -4 CURVE SMOOTH",
"672 -4 LINE SMOOTH",
"686 -4 OFFCURVE",
"748 -4 OFFCURVE",
"750 -72 CURVE SMOOTH",
"752 -152 OFFCURVE",
"662 -174 OFFCURVE",
"544 -174 CURVE SMOOTH",
"450 -174 OFFCURVE",
"304 -160 OFFCURVE",
"304 -56 CURVE SMOOTH",
"304 -8 OFFCURVE",
"334 52 OFFCURVE",
"380 68 CURVE",
"188 128 LINE",
"112 106 OFFCURVE",
"12 26 OFFCURVE",
"12 -112 CURVE SMOOTH",
"12 -292 OFFCURVE",
"182 -436 OFFCURVE",
"538 -436 CURVE SMOOTH"
);
},
{
closed = 1;
nodes = (
"776 314 OFFCURVE",
"956 478 OFFCURVE",
"956 712 CURVE SMOOTH",
"956 948 OFFCURVE",
"778 1116 OFFCURVE",
"522 1116 CURVE SMOOTH",
"276 1116 OFFCURVE",
"90 958 OFFCURVE",
"92 712 CURVE SMOOTH",
"94 484 OFFCURVE",
"262 314 OFFCURVE",
"522 314 CURVE SMOOTH"
);
},
{
closed = 1;
nodes = (
"448 550 OFFCURVE",
"396 615 OFFCURVE",
"396 710 CURVE SMOOTH",
"396 805 OFFCURVE",
"448 870 OFFCURVE",
"524 870 CURVE SMOOTH",
"600 870 OFFCURVE",
"652 805 OFFCURVE",
"652 710 CURVE SMOOTH",
"652 615 OFFCURVE",
"600 550 OFFCURVE",
"524 550 CURVE SMOOTH"
);
},
{
closed = 1;
nodes = (
"948 948 OFFCURVE",
"968 956 OFFCURVE",
"1080 960 CURVE",
"1026 1210 LINE",
"924 1178 OFFCURVE",
"852 1138 OFFCURVE",
"706 1026 CURVE",
"846 904 LINE"
);
}
);
width = 1072;
},
{
anchors = (
{
name = bottom;
position = "{500, -436}";
},
{
name = top;
position = "{482, 1080}";
}
);
layerId = "FD1CEFBD-BAB1-4C2A-A598-30E93F9A29F6";
paths = (
{
closed = 1;
nodes = (
"784 -436 OFFCURVE",
"950 -274 OFFCURVE",
"950 -94 CURVE SMOOTH",
"950 68 OFFCURVE",
"826 166 OFFCURVE",
"650 166 CURVE SMOOTH",
"462 166 LINE SMOOTH",
"392 166 OFFCURVE",
"296 198 OFFCURVE",
"296 306 CURVE SMOOTH",
"296 346 OFFCURVE",
"310 372 OFFCURVE",
"348 406 CURVE",
"234 498 LINE",
"186 446 OFFCURVE",
"148 378 OFFCURVE",
"148 302 CURVE SMOOTH",
"148 178 OFFCURVE",
"242 26 OFFCURVE",
"462 26 CURVE SMOOTH",
"604 26 LINE SMOOTH",
"700 26 OFFCURVE",
"786 -6 OFFCURVE",
"786 -102 CURVE SMOOTH",
"786 -206 OFFCURVE",
"668 -288 OFFCURVE",
"496 -288 CURVE SMOOTH",
"350 -288 OFFCURVE",
"230 -230 OFFCURVE",
"230 -110 CURVE SMOOTH",
"230 -16 OFFCURVE",
"298 52 OFFCURVE",
"344 70 CURVE",
"222 142 LINE",
"134 88 OFFCURVE",
"72 -18 OFFCURVE",
"72 -130 CURVE SMOOTH",
"72 -310 OFFCURVE",
"244 -436 OFFCURVE",
"496 -436 CURVE SMOOTH"
);
},
{
closed = 1;
nodes = (
"706 334 OFFCURVE",
"856 490 OFFCURVE",
"856 718 CURVE SMOOTH",
"856 942 OFFCURVE",
"706 1096 OFFCURVE",
"488 1096 CURVE SMOOTH",
"270 1096 OFFCURVE",
"120 942 OFFCURVE",
"120 718 CURVE SMOOTH",
"120 490 OFFCURVE",
"270 334 OFFCURVE",
"488 334 CURVE SMOOTH"
);
},
{
closed = 1;
nodes = (
"370 478 OFFCURVE",
"284 577 OFFCURVE",
"284 714 CURVE SMOOTH",
"284 852 OFFCURVE",
"370 952 OFFCURVE",
"488 952 CURVE SMOOTH",
"606 952 OFFCURVE",
"692 853 OFFCURVE",
"692 718 CURVE SMOOTH",
"692 579 OFFCURVE",
"606 478 OFFCURVE",
"488 478 CURVE SMOOTH"
);
},
{
closed = 1;
nodes = (
"836 962 OFFCURVE",
"878 992 OFFCURVE",
"964 1014 CURVE",
"904 1160 LINE",
"810 1118 OFFCURVE",
"750 1080 OFFCURVE",
"666 1012 CURVE",
"760 918 LINE"
);
}
);
width = 1012;
}
);
leftKerningGroup = LAT_GSS03_LC;
rightKerningGroup = LAT_GSS03_LC;
},
{
glyphname = h;
lastChange = "2023-05-23 02:56:02 +0000";
layers = (
{
anchors = (
{
name = bottom;
position = "{494, 0}";
},
{
name = center;
position = "{190, 1262}";
},
{
name = top;
position = "{190, 1474}";
}
);
layerId = "AB099EFE-E788-4EFC-8633-CF147CB782A6";
paths = (
{
closed = 1;
nodes = (
"220 0 LINE",
"220 732 LINE SMOOTH",
"220 906 OFFCURVE",
"348 1028 OFFCURVE",
"512 1028 CURVE SMOOTH",
"668 1028 OFFCURVE",
"768 914 OFFCURVE",
"768 738 CURVE SMOOTH",
"768 0 LINE",
"828 0 LINE",
"828 738 LINE SMOOTH",
"828 948 OFFCURVE",
"704 1084 OFFCURVE",
"516 1084 CURVE SMOOTH",
"380 1084 OFFCURVE",
"250 1010 OFFCURVE",
"208 886 CURVE",
"246 916 LINE",
"220 916 LINE",
"220 1540 LINE",
"160 1540 LINE",
"160 0 LINE"
);
}
);
width = 980;
},
{
anchors = (
{
name = bottom;
position = "{536, 0}";
},
{
name = center;
position = "{256, 1298}";
},
{
name = top;
position = "{256, 1540}";
}
);
layerId = "2D8F7115-C311-411E-929D-56333CF7FFB2";
paths = (
{
closed = 1;
nodes = (
"436 0 LINE",
"436 716 LINE SMOOTH",
"436 782 OFFCURVE",
"476 826 OFFCURVE",
"538 826 CURVE SMOOTH",
"598 826 OFFCURVE",
"636 782 OFFCURVE",
"636 718 CURVE SMOOTH",
"636 0 LINE",
"988 0 LINE",
"988 794 LINE SMOOTH",
"988 988 OFFCURVE",
"880 1116 OFFCURVE",
"710 1116 CURVE SMOOTH",
"558 1116 OFFCURVE",
"445 1041 OFFCURVE",
"424 924 CURVE",
"468 978 LINE",
"436 978 LINE",
"436 1540 LINE",
"84 1540 LINE",
"84 0 LINE"
);
}
);
width = 1064;
},
{
anchors = (
{
name = bottom;
position = "{504, 0}";
},
{
name = center;
position = "{214, 1274}";
},
{
name = top;
position = "{212, 1514}";
}
);
layerId = "FD1CEFBD-BAB1-4C2A-A598-30E93F9A29F6";
paths = (
{
closed = 1;
nodes = (
"296 0 LINE",
"296 720 LINE SMOOTH",
"296 854 OFFCURVE",
"384 944 OFFCURVE",
"514 944 CURVE SMOOTH",
"630 944 OFFCURVE",
"712 856 OFFCURVE",
"712 722 CURVE SMOOTH",
"712 0 LINE",
"880 0 LINE",
"880 742 LINE SMOOTH",
"880 956 OFFCURVE",
"756 1096 OFFCURVE",
"566 1096 CURVE SMOOTH",
"426 1096 OFFCURVE",
"304 1020 OFFCURVE",
"264 896 CURVE",
"334 964 LINE",
"296 964 LINE",
"296 1540 LINE",
"128 1540 LINE",
"128 0 LINE"
);
}
);
width = 1004;
}
);
leftKerningGroup = LAT_H_UC;
rightKerningGroup = LAT_N_LC;
rightMetricsKey = n;
unicode = 0068;
},
{
glyphname = idotless;
lastChange = "2023-05-23 07:41:01 +0000";
layers = (
{
anchors = (
{
name = bottom;
position = "{198, 0}";
},
{
name = ogonek;
position = "{228, 0}";
},
{
name = top;
position = "{198, 1068}";
}
);
layerId = "AB099EFE-E788-4EFC-8633-CF147CB782A6";
paths = (
{
closed = 1;
nodes = (
"228 0 LINE",
"228 1068 LINE",
"168 1068 LINE",
"168 0 LINE"
);
}
);
width = 396;
},
{
anchors = (
{
name = bottom;
position = "{272, 0}";
},
{
name = ogonek;
position = "{448, 0}";
},
{
name = top;
position = "{272, 1100}";
}
);
guideLines = (
{
angle = 60;
position = "{208, 0}";
}
);
layerId = "2D8F7115-C311-411E-929D-56333CF7FFB2";
paths = (
{
closed = 1;
nodes = (
"448 0 LINE",
"448 1100 LINE",
"96 1100 LINE",
"96 0 LINE"
);
}
);
width = 544;
},
{
anchors = (
{
name = bottom;
position = "{220, 0}";
},
{
name = ogonek;
position = "{304, 0}";
},
{
name = top;
position = "{220, 1080}";
}
);
layerId = "FD1CEFBD-BAB1-4C2A-A598-30E93F9A29F6";
paths = (
{
closed = 1;
nodes = (
"304 0 LINE",
"304 1080 LINE",
"136 1080 LINE",
"136 0 LINE"
);
}
);
width = 440;
}
);
unicode = 0131;
},
{
color = 8;
glyphname = idotless.ss02;
lastChange = "2023-05-23 02:56:02 +0000";
layers = (
{
anchors = (
{
name = bottom;
position = "{264, 0}";
},
{
name = center;
position = "{192, 580}";
},
{
name = ogonek;
position = "{300, -16}";
},
{
name = top;
position = "{192, 1068}";
}
);
background = {
anchors = (
{
name = bottom;
position = "{298, 0}";
},
{
name = center;
position = "{216, 570}";
},
{
name = ogonek;
position = "{436, 12}";
},
{
name = top;
position = "{216, 1048}";
}
);
paths = (
{
closed = 1;
nodes = (
"373 -8 OFFCURVE",
"416 0 OFFCURVE",
"436 12 CURVE",
"436 74 LINE",
"408 59 OFFCURVE",
"369 49 OFFCURVE",
"334 50 CURVE SMOOTH",
"246 49 OFFCURVE",
"244 119 OFFCURVE",
"244 208 CURVE SMOOTH",
"244 1048 LINE",
"182 1048 LINE",
"182 222 LINE SMOOTH",
"182 111 OFFCURVE",
"182 -8 OFFCURVE",
"338 -8 CURVE SMOOTH"
);
}
);
};
guideLines = (
{
angle = 80;
position = "{176, -8}";
}
);
layerId = "AB099EFE-E788-4EFC-8633-CF147CB782A6";
paths = (
{
closed = 1;
nodes = (
"320 38 LINE",
"264 68 OFFCURVE",
"220 116 OFFCURVE",
"220 200 CURVE SMOOTH",
"220 1068 LINE",
"160 1068 LINE",
"160 240 LINE SMOOTH",
"160 128 OFFCURVE",
"186 40 OFFCURVE",
"300 -16 CURVE"
);
}
);
width = 440;
},
{
anchors = (
{
name = bottom;
position = "{278, 0}";
},
{
name = center;
position = "{272, 580}";
},
{
name = ogonek;
position = "{440, -16}";
},
{
name = top;
position = "{272, 1100}";
}
);
background = {
anchors = (
{
name = bottom;
position = "{326, 0}";
},
{
name = center;
position = "{302, 570}";
},
{
name = ogonek;
position = "{588, 8}";
},
{
name = top;
position = "{302, 1080}";
}
);
paths = (
{
closed = 1;
nodes = (
"473 -16 OFFCURVE",
"541 -10 OFFCURVE",
"588 8 CURVE",
"588 286 LINE",
"561 281 OFFCURVE",
"549 279 OFFCURVE",
"534 278 CURVE SMOOTH",
"477 279 OFFCURVE",
"473 319 OFFCURVE",
"474 376 CURVE SMOOTH",
"474 1082 LINE",
"116 1082 LINE",
"116 278 LINE SMOOTH",
"117 111 OFFCURVE",
"228 -16 OFFCURVE",
"420 -16 CURVE SMOOTH"
);
}
);
};
guideLines = (
{
angle = 80;
position = "{274, -8}";
}
);
layerId = "2D8F7115-C311-411E-929D-56333CF7FFB2";
paths = (
{
closed = 1;
nodes = (
"568 278 LINE",
"474 302 OFFCURVE",
"444 370 OFFCURVE",
"444 464 CURVE SMOOTH",
"444 1102 LINE",
"92 1102 LINE",
"92 450 LINE SMOOTH",
"92 178 OFFCURVE",
"192 -4 OFFCURVE",
"440 -16 CURVE"
);
}
);
width = 596;
},
{
anchors = (
{
name = bottom;
position = "{276, 0}";
},
{
name = center;
position = "{220, 580}";
},
{
name = ogonek;
position = "{360, -16}";
},
{
name = top;
position = "{220, 1080}";
}
);
layerId = "FD1CEFBD-BAB1-4C2A-A598-30E93F9A29F6";
paths = (
{
closed = 1;
nodes = (
"400 144 LINE",
"350 156 OFFCURVE",
"300 198 OFFCURVE",
"300 280 CURVE SMOOTH",
"300 1080 LINE",
"132 1080 LINE",
"132 316 LINE SMOOTH",
"132 146 OFFCURVE",
"184 10 OFFCURVE",
"362 -16 CURVE"
);
}
);
width = 500;
}
);
rightKerningGroup = LAT_A_LC;
},
{
glyphname = jdotless;
lastChange = "2023-05-23 02:56:02 +0000";
layers = (
{
anchors = (
{
name = center;
position = "{234, 580}";
},
{
name = top;
position = "{234, 1068}";
}
);
layerId = "AB099EFE-E788-4EFC-8633-CF147CB782A6";
paths = (
{
closed = 1;
nodes = (
"198 -444 OFFCURVE",
"266 -310 OFFCURVE",
"266 -140 CURVE SMOOTH",
"266 1068 LINE",
"204 1068 LINE",
"204 -158 LINE SMOOTH",
"204 -276 OFFCURVE",
"156 -388 OFFCURVE",
"40 -388 CURVE SMOOTH",
"22 -388 OFFCURVE",
"-2 -386 OFFCURVE",
"-24 -376 CURVE",
"-24 -436 LINE",
"0 -442 OFFCURVE",
"20 -444 OFFCURVE",
"44 -444 CURVE SMOOTH"
);
}
);
width = 434;
},
{
anchors = (
{
name = center;
position = "{290, 580}";
},
{
name = top;
position = "{286, 1100}";
}
);
layerId = "2D8F7115-C311-411E-929D-56333CF7FFB2";
paths = (
{
closed = 1;
nodes = (
"344 -452 OFFCURVE",
"464 -266 OFFCURVE",
"464 -16 CURVE SMOOTH",
"464 1100 LINE",
"112 1100 LINE",
"112 -40 LINE SMOOTH",
"112 -96 OFFCURVE",
"92 -142 OFFCURVE",
"30 -142 CURVE SMOOTH",
"14 -142 OFFCURVE",
"-30 -138 OFFCURVE",
"-56 -124 CURVE",
"-56 -436 LINE",
"-12 -446 OFFCURVE",
"46 -452 OFFCURVE",
"90 -452 CURVE SMOOTH"
);
}
);
width = 560;
},
{
anchors = (
{
name = center;
position = "{256, 580}";
},
{
name = top;
position = "{256, 1080}";
}
);
layerId = "FD1CEFBD-BAB1-4C2A-A598-30E93F9A29F6";
paths = (
{
closed = 1;
nodes = (
"252 -444 OFFCURVE",
"340 -306 OFFCURVE",
"340 -126 CURVE SMOOTH",
"340 1080 LINE",
"172 1080 LINE",
"172 -114 LINE SMOOTH",
"172 -220 OFFCURVE",
"130 -284 OFFCURVE",
"46 -284 CURVE SMOOTH",
"16 -284 OFFCURVE",
"-6 -280 OFFCURVE",
"-32 -272 CURVE",
"-32 -432 LINE",
"-2 -440 OFFCURVE",
"28 -444 OFFCURVE",
"64 -444 CURVE SMOOTH"
);
}
);
width = 476;
}
);
leftKerningGroup = LAT_J_LC;
rightKerningGroup = LAT_J_LC;
unicode = 0237;
},
{
glyphname = k;
lastChange = "2023-05-23 02:56:02 +0000";
layers = (
{
anchors = (
{
name = bottom;
position = "{462, 0}";
},
{
name = top;
position = "{188, 1540}";
}
);
layerId = "AB099EFE-E788-4EFC-8633-CF147CB782A6";
paths = (
{
closed = 1;
nodes = (
"220 0 LINE",
"220 524 LINE",
"300 524 LINE",
"260 548 LINE",
"714 0 LINE",
"794 0 LINE",
"314 572 LINE",
"314 536 LINE",
"766 1068 LINE",
"684 1068 LINE",
"260 560 LINE",
"300 586 LINE",
"220 586 LINE",
"220 1540 LINE",
"160 1540 LINE",
"160 0 LINE"
);
}
);
width = 866;
},
{
anchors = (
{
name = bottom;
position = "{560, 0}";
},
{
name = top;
position = "{262, 1540}";
}
);
layerId = "2D8F7115-C311-411E-929D-56333CF7FFB2";
paths = (
{
closed = 1;
nodes = (
"436 0 LINE",
"436 488 LINE",
"516 488 LINE",
"430 530 LINE",
"686 0 LINE",
"1082 0 LINE",
"712 686 LINE",
"712 484 LINE",
"1092 1100 LINE",
"690 1100 LINE",
"434 628 LINE",
"516 672 LINE",
"436 672 LINE",
"436 1540 LINE",
"84 1540 LINE",
"84 0 LINE"
);
}
);
width = 1092;
},
{
anchors = (
{
name = bottom;
position = "{492, 0}";
},
{
name = top;
position = "{212, 1518}";
}
);
layerId = "FD1CEFBD-BAB1-4C2A-A598-30E93F9A29F6";
paths = (
{
closed = 1;
nodes = (
"296 0 LINE",
"296 524 LINE",
"370 524 LINE",
"322 562 LINE",
"698 0 LINE",
"900 0 LINE",
"466 632 LINE",
"458 540 LINE",
"878 1080 LINE",
"668 1080 LINE",
"318 612 LINE",
"370 648 LINE",
"296 648 LINE",
"296 1540 LINE",
"128 1540 LINE",
"128 0 LINE"
);
}
);
width = 940;
}
);
leftKerningGroup = LAT_H_UC;
leftMetricsKey = h;
rightKerningGroup = LAT_K_LC;
unicode = 006B;
},
{
glyphname = kgreenlandic;
lastChange = "2023-05-23 02:56:02 +0000";
layers = (
{
anchors = (
{
name = bottom;
position = "{440, 0}";
},
{
name = top;
position = "{440, 1068}";
}
);
layerId = "AB099EFE-E788-4EFC-8633-CF147CB782A6";
paths = (
{
closed = 1;
nodes = (
"220 0 LINE",
"220 514 LINE",
"290 514 LINE",
"246 538 LINE",
"712 0 LINE",
"800 0 LINE",
"304 562 LINE",
"304 526 LINE",
"766 1068 LINE",
"680 1068 LINE",
"246 550 LINE",
"290 576 LINE",
"220 576 LINE",
"220 1068 LINE",
"160 1068 LINE",
"160 0 LINE"
);
}
);
width = 872;
},
{
anchors = (
{
name = bottom;
position = "{540, 0}";
},
{
name = top;
position = "{540, 1100}";
}
);
layerId = "2D8F7115-C311-411E-929D-56333CF7FFB2";
paths = (
{
closed = 1;
nodes = (
"432 0 LINE",
"432 464 LINE",
"494 464 LINE",
"390 518 LINE",
"688 0 LINE",
"1092 0 LINE",
"644 676 LINE",
"644 472 LINE",
"1078 1100 LINE",
"666 1100 LINE",
"390 616 LINE",
"494 668 LINE",
"432 668 LINE",
"432 1100 LINE",
"80 1100 LINE",
"80 0 LINE"
);
}
);
width = 1092;
},
{
anchors = (
{
name = bottom;
position = "{472, 0}";
},
{
name = top;
position = "{472, 1080}";
}
);
layerId = "FD1CEFBD-BAB1-4C2A-A598-30E93F9A29F6";
paths = (
{
closed = 1;
nodes = (
"296 0 LINE",
"296 472 LINE",
"368 472 LINE",
"300 520 LINE",
"702 0 LINE",
"916 0 LINE",
"442 592 LINE",
"442 500 LINE",
"890 1080 LINE",
"674 1080 LINE",
"300 572 LINE",
"368 616 LINE",
"296 616 LINE",
"296 1080 LINE",
"128 1080 LINE",
"128 0 LINE"
);
}
);
width = 956;
}
);
leftKerningGroup = LAT_N_LC;
leftMetricsKey = n;
rightKerningGroup = LAT_K_LC;
rightMetricsKey = k;
unicode = 0138;
},
{
glyphname = l;
lastChange = "2023-05-23 02:56:02 +0000";
layers = (
{
anchors = (
{
name = bottom;
position = "{264, 0}";
},
{
name = center;
position = "{194, 738}";
},
{
name = dot;
position = "{462, 738}";
},
{
name = top;
position = "{194, 1540}";
},
{
name = topright;
position = "{228, 1540}";
}
);
layerId = "AB099EFE-E788-4EFC-8633-CF147CB782A6";
paths = (
{
closed = 1;
nodes = (
"318 -8 OFFCURVE",
"350 -4 OFFCURVE",
"368 4 CURVE",
"368 64 LINE",
"352 54 OFFCURVE",
"326 48 OFFCURVE",
"302 48 CURVE SMOOTH",
"224 48 OFFCURVE",
"224 112 OFFCURVE",
"224 174 CURVE SMOOTH",
"224 1540 LINE",
"164 1540 LINE",
"164 174 LINE SMOOTH",
"164 70 OFFCURVE",
"184 -8 OFFCURVE",
"296 -8 CURVE SMOOTH"
);
}
);
width = 432;
},
{
anchors = (
{
name = bottom;
position = "{310, 0}";
},
{
name = center;
position = "{258, 786}";
},
{
name = dot;
position = "{758, 754}";
},
{
name = top;
position = "{260, 1540}";
},
{
name = topright;
position = "{438, 1540}";
}
);
guideLines = (
{
angle = 100;
position = "{300, -12}";
}
);
layerId = "2D8F7115-C311-411E-929D-56333CF7FFB2";
paths = (
{
closed = 1;
nodes = (
"434 -16 OFFCURVE",
"492 -4 OFFCURVE",
"536 12 CURVE",
"536 282 LINE",
"528 278 OFFCURVE",
"510 274 OFFCURVE",
"496 274 CURVE SMOOTH",
"462 274 OFFCURVE",
"438 300 OFFCURVE",
"438 354 CURVE SMOOTH",
"438 1540 LINE",
"86 1540 LINE",
"86 294 LINE SMOOTH",
"86 132 OFFCURVE",
"190 -16 OFFCURVE",
"376 -16 CURVE SMOOTH"
);
}
);
width = 580;
},
{
anchors = (
{
name = bottom;
position = "{278, 0}";
},
{
name = center;
position = "{222, 772}";
},
{
name = dot;
position = "{570, 746}";
},
{
name = top;
position = "{218, 1540}";
},
{
name = topright;
position = "{304, 1540}";
}
);
layerId = "FD1CEFBD-BAB1-4C2A-A598-30E93F9A29F6";
paths = (
{
closed = 1;
nodes = (
"362 -16 OFFCURVE",
"398 -12 OFFCURVE",
"424 -4 CURVE",
"424 148 LINE",
"414 144 OFFCURVE",
"396 140 OFFCURVE",
"378 140 CURVE SMOOTH",
"300 140 OFFCURVE",
"300 216 OFFCURVE",
"300 246 CURVE SMOOTH",
"300 1540 LINE",
"132 1540 LINE",
"132 250 LINE SMOOTH",
"132 84 OFFCURVE",
"192 -16 OFFCURVE",
"334 -16 CURVE SMOOTH"
);
}
);
width = 488;
}
);
leftKerningGroup = LAT_L_LC;
rightKerningGroup = LAT_L_LC;
unicode = 006C;
},
{
color = 4;
glyphname = l.ss01;
lastChange = "2023-05-23 02:56:02 +0000";
layers = (
{
anchors = (
{
name = bottom;
position = "{208, 0}";
},
{
name = center;
position = "{204, 738}";
},
{
name = dot;
position = "{428, 738}";
},
{
name = top;
position = "{204, 1540}";
},
{
name = topright;
position = "{236, 1540}";
}
);
layerId = "AB099EFE-E788-4EFC-8633-CF147CB782A6";
paths = (
{
closed = 1;
nodes = (
"236 0 LINE",
"236 1540 LINE",
"176 1540 LINE",
"176 0 LINE"
);
}
);
width = 412;
},
{
anchors = (
{
name = bottom;
position = "{274, 0}";
},
{
name = center;
position = "{274, 786}";
},
{
name = dot;
position = "{736, 754}";
},
{
name = top;
position = "{274, 1540}";
},
{
name = topright;
position = "{448, 1540}";
}
);
layerId = "2D8F7115-C311-411E-929D-56333CF7FFB2";
paths = (
{
closed = 1;
nodes = (
"448 0 LINE",
"448 1540 LINE",
"96 1540 LINE",
"96 0 LINE"
);
}
);
width = 544;
},
{
anchors = (
{
name = bottom;
position = "{222, 0}";
},
{
name = center;
position = "{222, 756}";
},
{
name = dot;
position = "{534, 746}";
},
{
name = top;
position = "{222, 1540}";
},
{
name = topright;
position = "{306, 1540}";
}
);
layerId = "FD1CEFBD-BAB1-4C2A-A598-30E93F9A29F6";
paths = (
{
closed = 1;
nodes = (
"306 0 LINE",
"306 1540 LINE",
"138 1540 LINE",
"138 0 LINE"
);
}
);
width = 444;
}
);
leftKerningGroup = LAT_H_UC;
rightKerningGroup = LAT_H_UC;
},
{
glyphname = m;
lastChange = "2023-05-23 02:56:02 +0000";
layers = (
{
anchors = (
{
name = bottom;
position = "{728, 0}";
},
{
name = leghookleft;
position = "{1266, 0}";
},
{
name = top;
position = "{732, 1068}";
}
);
background = {
paths = (
{
closed = 1;
nodes = (
"234 0 LINE",
"234 652 LINE SMOOTH",
"233 815 OFFCURVE",
"360 1008 OFFCURVE",
"558 1008 CURVE SMOOTH",
"680 1008 OFFCURVE",
"811 930 OFFCURVE",
"812 680 CURVE SMOOTH",
"812 0 LINE",
"872 0 LINE",
"872 676 LINE SMOOTH",
"872 819 OFFCURVE",
"995 1008 OFFCURVE",
"1192 1008 CURVE SMOOTH",
"1323 1008 OFFCURVE",
"1442 930 OFFCURVE",
"1442 668 CURVE SMOOTH",
"1442 0 LINE",
"1504 0 LINE",
"1504 688 LINE SMOOTH",
"1503 954 OFFCURVE",
"1360 1065 OFFCURVE",
"1188 1064 CURVE SMOOTH",
"999 1065 OFFCURVE",
"889 934 OFFCURVE",
"852 828 CURVE",
"876 840 LINE",
"832 840 LINE",
"860 820 LINE",
"823 971 OFFCURVE",
"700 1065 OFFCURVE",
"552 1064 CURVE SMOOTH",
"393 1065 OFFCURVE",
"283 958 OFFCURVE",
"222 824 CURVE",
"246 856 LINE",
"234 856 LINE",
"234 1048 LINE",
"172 1048 LINE",
"172 0 LINE"
);
}
);
};
guideLines = (
{
angle = 60;
position = "{268, 338}";
}
);
layerId = "AB099EFE-E788-4EFC-8633-CF147CB782A6";
paths = (
{
closed = 1;
nodes = (
"220 0 LINE",
"220 732 LINE SMOOTH",
"220 912 OFFCURVE",
"318 1028 OFFCURVE",
"466 1028 CURVE SMOOTH",
"608 1028 OFFCURVE",
"698 922 OFFCURVE",
"698 764 CURVE SMOOTH",
"698 0 LINE",
"758 0 LINE",
"758 764 LINE SMOOTH",
"758 924 OFFCURVE",
"854 1028 OFFCURVE",
"1006 1028 CURVE SMOOTH",
"1148 1028 OFFCURVE",
"1240 924 OFFCURVE",
"1240 764 CURVE SMOOTH",
"1240 0 LINE",
"1300 0 LINE",
"1300 770 LINE SMOOTH",
"1300 960 OFFCURVE",
"1186 1084 OFFCURVE",
"1008 1084 CURVE SMOOTH",
"870 1084 OFFCURVE",
"754 1000 OFFCURVE",
"716 872 CURVE",
"754 908 LINE",
"708 908 LINE",
"740 872 LINE",
"708 992 OFFCURVE",
"606 1084 OFFCURVE",
"472 1084 CURVE SMOOTH",
"352 1084 OFFCURVE",
"250 1010 OFFCURVE",
"208 902 CURVE",
"236 938 LINE",
"220 934 LINE",
"220 1068 LINE",
"160 1068 LINE",
"160 0 LINE"
);
}
);
width = 1452;
},
{
anchors = (
{
name = bottom;
position = "{784, 0}";
},
{
name = leghookleft;
position = "{1290, 0}";
},
{
name = top;
position = "{774, 1100}";
}
);
layerId = "2D8F7115-C311-411E-929D-56333CF7FFB2";
paths = (
{
closed = 1;
nodes = (
"432 0 LINE",
"432 732 LINE SMOOTH",
"432 788 OFFCURVE",
"464 828 OFFCURVE",
"514 828 CURVE SMOOTH",
"564 828 OFFCURVE",
"596 788 OFFCURVE",
"596 732 CURVE SMOOTH",
"596 0 LINE",
"948 0 LINE",
"948 732 LINE SMOOTH",
"948 788 OFFCURVE",
"980 828 OFFCURVE",
"1030 828 CURVE SMOOTH",
"1080 828 OFFCURVE",
"1112 788 OFFCURVE",
"1112 732 CURVE SMOOTH",
"1112 0 LINE",
"1464 0 LINE",
"1464 738 LINE SMOOTH",
"1464 966 OFFCURVE",
"1348 1116 OFFCURVE",
"1168 1116 CURVE SMOOTH",
"1040 1116 OFFCURVE",
"920 1046 OFFCURVE",
"872 926 CURVE",
"900 962 LINE",
"872 962 LINE",
"896 926 LINE",
"874 1040 OFFCURVE",
"782 1116 OFFCURVE",
"666 1116 CURVE SMOOTH",
"522 1116 OFFCURVE",
"410 1014 OFFCURVE",
"380 862 CURVE",
"454 958 LINE",
"408 958 LINE",
"408 1100 LINE",
"80 1100 LINE",
"80 0 LINE"
);
}
);
width = 1540;
},
{
anchors = (
{
name = bottom;
position = "{746, 0}";
},
{
name = leghookleft;
position = "{1276, 0}";
},
{
name = top;
position = "{766, 1080}";
}
);
layerId = "FD1CEFBD-BAB1-4C2A-A598-30E93F9A29F6";
paths = (
{
closed = 1;
nodes = (
"296 0 LINE",
"296 720 LINE SMOOTH",
"296 852 OFFCURVE",
"370 944 OFFCURVE",
"478 944 CURVE SMOOTH",
"588 944 OFFCURVE",
"660 856 OFFCURVE",
"660 726 CURVE SMOOTH",
"660 0 LINE",
"828 0 LINE",
"828 726 LINE SMOOTH",
"828 854 OFFCURVE",
"900 944 OFFCURVE",
"1012 944 CURVE SMOOTH",
"1120 944 OFFCURVE",
"1194 856 OFFCURVE",
"1194 726 CURVE SMOOTH",
"1194 0 LINE",
"1362 0 LINE",
"1362 722 LINE SMOOTH",
"1362 946 OFFCURVE",
"1242 1096 OFFCURVE",
"1060 1096 CURVE SMOOTH",
"916 1096 OFFCURVE",
"792 1010 OFFCURVE",
"754 882 CURVE",
"816 942 LINE",
"738 942 LINE",
"802 882 LINE",
"760 1010 OFFCURVE",
"660 1096 OFFCURVE",
"542 1096 CURVE SMOOTH",
"404 1096 OFFCURVE",
"300 1008 OFFCURVE",
"270 894 CURVE",
"322 958 LINE",
"294 958 LINE",
"294 1080 LINE",
"128 1080 LINE",
"128 0 LINE"
);
}
);
width = 1486;
}
);
leftKerningGroup = LAT_N_LC;
leftMetricsKey = n;
rightKerningGroup = LAT_N_LC;
rightMetricsKey = n;
unicode = 006D;
},
{
glyphname = n;
lastChange = "2023-05-23 02:56:02 +0000";
layers = (
{
anchors = (
{
name = bottom;
position = "{512, 0}";
},
{
name = leghookleft;
position = "{190, 0}";
},
{
name = leghookright;
position = "{798, 0}";
},
{
name = top;
position = "{518, 1068}";
}
);
layerId = "AB099EFE-E788-4EFC-8633-CF147CB782A6";
paths = (
{
closed = 1;
nodes = (
"220 0 LINE",
"220 726 LINE SMOOTH",
"220 902 OFFCURVE",
"348 1028 OFFCURVE",
"508 1028 CURVE SMOOTH",
"666 1028 OFFCURVE",
"768 904 OFFCURVE",
"768 730 CURVE SMOOTH",
"768 0 LINE",
"828 0 LINE",
"828 730 LINE SMOOTH",
"828 942 OFFCURVE",
"704 1084 OFFCURVE",
"516 1084 CURVE SMOOTH",
"380 1084 OFFCURVE",
"250 1008 OFFCURVE",
"208 882 CURVE",
"246 912 LINE",
"218 912 LINE",
"218 1068 LINE",
"160 1068 LINE",
"160 0 LINE"
);
}
);
width = 980;
},
{
anchors = (
{
name = bottom;
position = "{522, 0}";
},
{
name = leghookleft;
position = "{252, 0}";
},
{
name = leghookright;
position = "{810, 0}";
},
{
name = top;
position = "{556, 1100}";
}
);
layerId = "2D8F7115-C311-411E-929D-56333CF7FFB2";
paths = (
{
closed = 1;
nodes = (
"432 0 LINE",
"432 710 LINE SMOOTH",
"432 778 OFFCURVE",
"472 826 OFFCURVE",
"534 826 CURVE SMOOTH",
"594 826 OFFCURVE",
"632 778 OFFCURVE",
"632 712 CURVE SMOOTH",
"632 0 LINE",
"984 0 LINE",
"984 786 LINE SMOOTH",
"984 984 OFFCURVE",
"876 1116 OFFCURVE",
"706 1116 CURVE SMOOTH",
"546 1116 OFFCURVE",
"426 1030 OFFCURVE",
"404 898 CURVE",
"464 954 LINE",
"416 954 LINE",
"416 1100 LINE",
"80 1100 LINE",
"80 0 LINE"
);
}
);
width = 1060;
},
{
anchors = (
{
name = bottom;
position = "{508, 0}";
},
{
name = leghookleft;
position = "{212, 0}";
},
{
name = leghookright;
position = "{796, 0}";
},
{
name = top;
position = "{532, 1080}";
}
);
background = {
paths = (
{
closed = 1;
nodes = (
"294 0 LINE",
"294 648 LINE SMOOTH",
"294 822 OFFCURVE",
"392 916 OFFCURVE",
"514 916 CURVE SMOOTH",
"636 916 OFFCURVE",
"712 826 OFFCURVE",
"712 648 CURVE SMOOTH",
"712 0 LINE",
"886 0 LINE",
"886 692 LINE SMOOTH",
"886 876 OFFCURVE",
"790 1076 OFFCURVE",
"572 1076 CURVE SMOOTH",
"430 1076 OFFCURVE",
"306 1000 OFFCURVE",
"262 856 CURVE",
"328 930 LINE",
"292 930 LINE",
"292 1060 LINE",
"122 1060 LINE",
"122 0 LINE"
);
}
);
};
layerId = "FD1CEFBD-BAB1-4C2A-A598-30E93F9A29F6";
paths = (
{
closed = 1;
nodes = (
"296 0 LINE",
"296 714 LINE SMOOTH",
"296 852 OFFCURVE",
"386 944 OFFCURVE",
"514 944 CURVE SMOOTH",
"632 944 OFFCURVE",
"712 852 OFFCURVE",
"712 716 CURVE SMOOTH",
"712 0 LINE",
"880 0 LINE",
"880 736 LINE SMOOTH",
"880 950 OFFCURVE",
"756 1096 OFFCURVE",
"568 1096 CURVE SMOOTH",
"432 1096 OFFCURVE",
"308 1022 OFFCURVE",
"266 892 CURVE",
"334 960 LINE",
"296 960 LINE",
"296 1080 LINE",
"128 1080 LINE",
"128 0 LINE"
);
}
);
width = 1004;
}
);
leftKerningGroup = LAT_N_LC;
rightKerningGroup = LAT_N_LC;
unicode = 006E;
},
{
glyphname = o;
lastChange = "2023-05-23 05:29:37 +0000";
layers = (
{
anchors = (
{
name = bottom;
position = "{514, 0}";
},
{
name = center;
position = "{514, 534}";
},
{
name = horn;
position = "{702, 1032}";
},
{
name = ogonek;
position = "{622, 0}";
},
{
name = top;
position = "{514, 1068}";
},
{
name = topright;
position = "{982, 1068}";
}
);
layerId = "AB099EFE-E788-4EFC-8633-CF147CB782A6";
paths = (
{
closed = 1;
nodes = (
"760 -16 OFFCURVE",
"920 200 OFFCURVE",
"920 534 CURVE SMOOTH",
"920 868 OFFCURVE",
"760 1084 OFFCURVE",
"514 1084 CURVE SMOOTH",
"268 1084 OFFCURVE",
"108 868 OFFCURVE",
"108 534 CURVE SMOOTH",
"108 200 OFFCURVE",
"268 -16 OFFCURVE",
"514 -16 CURVE SMOOTH"
);
},
{
closed = 1;
nodes = (
"304 40 OFFCURVE",
"168 234 OFFCURVE",
"168 534 CURVE SMOOTH",
"168 834 OFFCURVE",
"304 1028 OFFCURVE",
"514 1028 CURVE SMOOTH",
"724 1028 OFFCURVE",
"860 834 OFFCURVE",
"860 534 CURVE SMOOTH",
"860 234 OFFCURVE",
"724 40 OFFCURVE",
"514 40 CURVE SMOOTH"
);
}
);
width = 1028;
},
{
anchors = (
{
name = bottom;
position = "{530, 0}";
},
{
name = center;
position = "{532, 550}";
},
{
name = horn;
position = "{802, 1036}";
},
{
name = ogonek;
position = "{652, 0}";
},
{
name = top;
position = "{530, 1100}";
},
{
name = topright;
position = "{1004, 1100}";
}
);
layerId = "2D8F7115-C311-411E-929D-56333CF7FFB2";
paths = (
{
closed = 1;
nodes = (
"834 -16 OFFCURVE",
"1018 202 OFFCURVE",
"1018 550 CURVE SMOOTH",
"1018 900 OFFCURVE",
"834 1116 OFFCURVE",
"530 1116 CURVE SMOOTH",
"228 1116 OFFCURVE",
"44 902 OFFCURVE",
"44 550 CURVE SMOOTH",
"44 200 OFFCURVE",
"228 -16 OFFCURVE",
"530 -16 CURVE SMOOTH"
);
},
{
closed = 1;
nodes = (
"430 280 OFFCURVE",
"376 378 OFFCURVE",
"376 550 CURVE SMOOTH",
"376 722 OFFCURVE",
"430 820 OFFCURVE",
"530 820 CURVE SMOOTH",
"632 820 OFFCURVE",
"686 720 OFFCURVE",
"686 550 CURVE SMOOTH",
"686 378 OFFCURVE",
"632 280 OFFCURVE",
"530 280 CURVE SMOOTH"
);
}
);
width = 1062;
},
{
anchors = (
{
name = bottom;
position = "{518, 0}";
},
{
name = center;
position = "{518, 540}";
},
{
name = horn;
position = "{734, 1036}";
},
{
name = ogonek;
position = "{632, 0}";
},
{
name = top;
position = "{518, 1080}";
},
{
name = topright;
position = "{992, 1080}";
}
);
layerId = "FD1CEFBD-BAB1-4C2A-A598-30E93F9A29F6";
paths = (
{
closed = 1;
nodes = (
"780 -16 OFFCURVE",
"950 206 OFFCURVE",
"950 546 CURVE SMOOTH",
"950 878 OFFCURVE",
"780 1096 OFFCURVE",
"518 1096 CURVE SMOOTH",
"254 1096 OFFCURVE",
"84 878 OFFCURVE",
"84 546 CURVE SMOOTH",
"84 208 OFFCURVE",
"254 -16 OFFCURVE",
"518 -16 CURVE SMOOTH"
);
},
{
closed = 1;
nodes = (
"356 140 OFFCURVE",
"252 300 OFFCURVE",
"252 546 CURVE SMOOTH",
"252 784 OFFCURVE",
"356 940 OFFCURVE",
"518 940 CURVE SMOOTH",
"678 940 OFFCURVE",
"782 784 OFFCURVE",
"782 546 CURVE SMOOTH",
"782 298 OFFCURVE",
"678 140 OFFCURVE",
"518 140 CURVE SMOOTH"
);
}
);
width = 1034;
}
);
leftKerningGroup = LAT_O_LC;
rightKerningGroup = LAT_O_LC;
unicode = 006F;
},
{
color = 4;
glyphname = o.ss01;
lastChange = "2023-05-23 02:56:02 +0000";
layers = (
{
anchors = (
{
name = bottom;
position = "{528, 0}";
},
{
name = center;
position = "{528, 534}";
},
{
name = horn;
position = "{714, 1032}";
},
{
name = ogonek;
position = "{616, 0}";
},
{
name = top;
position = "{528, 1068}";
},
{
name = topright;
position = "{1020, 1068}";
}
);
layerId = "AB099EFE-E788-4EFC-8633-CF147CB782A6";
paths = (
{
closed = 1;
nodes = (
"778 -16 OFFCURVE",
"960 217 OFFCURVE",
"960 538 CURVE SMOOTH",
"960 854 OFFCURVE",
"778 1084 OFFCURVE",
"528 1084 CURVE SMOOTH",
"278 1084 OFFCURVE",
"96 854 OFFCURVE",
"96 538 CURVE SMOOTH",
"96 217 OFFCURVE",
"278 -16 OFFCURVE",
"528 -16 CURVE SMOOTH"
);
},
{
closed = 1;
nodes = (
"313 40 OFFCURVE",
"156 250 OFFCURVE",
"156 538 CURVE SMOOTH",
"156 822 OFFCURVE",
"313 1028 OFFCURVE",
"528 1028 CURVE SMOOTH",
"743 1028 OFFCURVE",
"900 822 OFFCURVE",
"900 538 CURVE SMOOTH",
"900 250 OFFCURVE",
"743 40 OFFCURVE",
"528 40 CURVE SMOOTH"
);
}
);
width = 1056;
},
{
anchors = (
{
name = bottom;
position = "{540, 0}";
},
{
name = center;
position = "{540, 550}";
},
{
name = horn;
position = "{810, 1036}";
},
{
name = ogonek;
position = "{646, 0}";
},
{
name = top;
position = "{544, 1100}";
},
{
name = topright;
position = "{1060, 1100}";
}
);
layerId = "2D8F7115-C311-411E-929D-56333CF7FFB2";
paths = (
{
closed = 1;
nodes = (
"836 -16 OFFCURVE",
"1040 216 OFFCURVE",
"1040 550 CURVE SMOOTH",
"1040 884 OFFCURVE",
"836 1116 OFFCURVE",
"540 1116 CURVE SMOOTH",
"244 1116 OFFCURVE",
"40 884 OFFCURVE",
"40 550 CURVE SMOOTH",
"40 216 OFFCURVE",
"244 -16 OFFCURVE",
"540 -16 CURVE SMOOTH"
);
},
{
closed = 1;
nodes = (
"440 280 OFFCURVE",
"372 391 OFFCURVE",
"372 552 CURVE SMOOTH",
"372 711 OFFCURVE",
"440 820 OFFCURVE",
"540 820 CURVE SMOOTH",
"640 820 OFFCURVE",
"708 710 OFFCURVE",
"708 550 CURVE SMOOTH",
"708 390 OFFCURVE",
"640 280 OFFCURVE",
"540 280 CURVE SMOOTH"
);
}
);
width = 1080;
},
{
anchors = (
{
name = bottom;
position = "{530, 0}";
},
{
name = center;
position = "{530, 542}";
},
{
name = horn;
position = "{746, 1036}";
},
{
name = ogonek;
position = "{624, 0}";
},
{
name = top;
position = "{532, 1080}";
},
{
name = topright;
position = "{1032, 1080}";
}
);
layerId = "FD1CEFBD-BAB1-4C2A-A598-30E93F9A29F6";
paths = (
{
closed = 1;
nodes = (
"795 -16 OFFCURVE",
"988 221 OFFCURVE",
"988 546 CURVE SMOOTH",
"988 864 OFFCURVE",
"795 1096 OFFCURVE",
"530 1096 CURVE SMOOTH",
"267 1096 OFFCURVE",
"76 864 OFFCURVE",
"76 546 CURVE SMOOTH",
"76 221 OFFCURVE",
"267 -16 OFFCURVE",
"530 -16 CURVE SMOOTH"
);
},
{
closed = 1;
nodes = (
"365 140 OFFCURVE",
"244 311 OFFCURVE",
"244 546 CURVE SMOOTH",
"244 774 OFFCURVE",
"365 940 OFFCURVE",
"530 940 CURVE SMOOTH",
"698 940 OFFCURVE",
"820 776 OFFCURVE",
"820 550 CURVE SMOOTH",
"820 313 OFFCURVE",
"698 140 OFFCURVE",
"530 140 CURVE SMOOTH"
);
}
);
width = 1064;
}
);
leftKerningGroup = LAT_O_LC;
rightKerningGroup = LAT_O_LC;
},
{
glyphname = oe;
lastChange = "2023-05-23 02:56:02 +0000";
layers = (
{
anchors = (
{
name = top;
position = "{872, 1068}";
}
);
layerId = "AB099EFE-E788-4EFC-8633-CF147CB782A6";
paths = (
{
closed = 1;
nodes = (
"746 -16 OFFCURVE",
"902 210 OFFCURVE",
"902 534 CURVE SMOOTH",
"902 862 OFFCURVE",
"744 1084 OFFCURVE",
"510 1084 CURVE SMOOTH",
"274 1084 OFFCURVE",
"108 862 OFFCURVE",
"108 534 CURVE SMOOTH",
"108 208 OFFCURVE",
"274 -16 OFFCURVE",
"510 -16 CURVE SMOOTH"
);
},
{
closed = 1;
nodes = (
"310 40 OFFCURVE",
"168 240 OFFCURVE",
"168 534 CURVE SMOOTH",
"168 828 OFFCURVE",
"310 1028 OFFCURVE",
"510 1028 CURVE SMOOTH",
"710 1028 OFFCURVE",
"846 828 OFFCURVE",
"846 534 CURVE SMOOTH",
"846 242 OFFCURVE",
"710 40 OFFCURVE",
"510 40 CURVE SMOOTH"
);
},
{
closed = 1;
nodes = (
"1342 -16 OFFCURVE",
"1450 34 OFFCURVE",
"1528 110 CURVE",
"1504 174 LINE",
"1430 90 OFFCURVE",
"1330 40 OFFCURVE",
"1230 40 CURVE SMOOTH",
"1040 40 OFFCURVE",
"906 230 OFFCURVE",
"906 538 CURVE SMOOTH",
"906 822 OFFCURVE",
"1020 1028 OFFCURVE",
"1216 1028 CURVE SMOOTH",
"1398 1028 OFFCURVE",
"1514 850 OFFCURVE",
"1512 572 CURVE",
"890 572 LINE",
"890 516 LINE",
"1572 516 LINE",
"1574 529 OFFCURVE",
"1576 549 OFFCURVE",
"1576 580 CURVE SMOOTH",
"1576 878 OFFCURVE",
"1440 1084 OFFCURVE",
"1220 1084 CURVE SMOOTH",
"988 1084 OFFCURVE",
"848 858 OFFCURVE",
"848 542 CURVE SMOOTH",
"848 204 OFFCURVE",
"1006 -16 OFFCURVE",
"1232 -16 CURVE SMOOTH"
);
}
);
width = 1684;
},
{
anchors = (
{
name = top;
position = "{820, 1100}";
}
);
layerId = "2D8F7115-C311-411E-929D-56333CF7FFB2";
paths = (
{
closed = 1;
nodes = (
"776 -16 OFFCURVE",
"950 214 OFFCURVE",
"950 550 CURVE SMOOTH",
"950 886 OFFCURVE",
"774 1116 OFFCURVE",
"506 1116 CURVE SMOOTH",
"232 1116 OFFCURVE",
"44 888 OFFCURVE",
"44 554 CURVE SMOOTH",
"44 216 OFFCURVE",
"234 -16 OFFCURVE",
"508 -16 CURVE SMOOTH"
);
},
{
closed = 1;
nodes = (
"424 272 OFFCURVE",
"368 376 OFFCURVE",
"368 548 CURVE SMOOTH",
"368 718 OFFCURVE",
"424 824 OFFCURVE",
"516 824 CURVE SMOOTH",
"610 824 OFFCURVE",
"666 720 OFFCURVE",
"666 550 CURVE SMOOTH",
"666 378 OFFCURVE",
"610 272 OFFCURVE",
"518 272 CURVE SMOOTH"
);
},
{
closed = 1;
nodes = (
"1284 -16 OFFCURVE",
"1422 14 OFFCURVE",
"1490 56 CURVE",
"1368 316 LINE",
"1338 282 OFFCURVE",
"1260 254 OFFCURVE",
"1188 254 CURVE SMOOTH",
"1036 254 OFFCURVE",
"956 382 OFFCURVE",
"956 574 CURVE SMOOTH",
"956 748 OFFCURVE",
"1022 852 OFFCURVE",
"1122 852 CURVE SMOOTH",
"1206 852 OFFCURVE",
"1258 778 OFFCURVE",
"1260 648 CURVE",
"916 648 LINE",
"916 444 LINE",
"1538 444 LINE",
"1544 476 OFFCURVE",
"1550 540 OFFCURVE",
"1550 592 CURVE SMOOTH",
"1550 910 OFFCURVE",
"1394 1116 OFFCURVE",
"1132 1116 CURVE SMOOTH",
"848 1116 OFFCURVE",
"706 876 OFFCURVE",
"706 554 CURVE SMOOTH",
"706 210 OFFCURVE",
"870 -16 OFFCURVE",
"1176 -16 CURVE SMOOTH"
);
}
);
width = 1594;
},
{
anchors = (
{
name = top;
position = "{850, 1080}";
}
);
layerId = "FD1CEFBD-BAB1-4C2A-A598-30E93F9A29F6";
paths = (
{
closed = 1;
nodes = (
"760 -16 OFFCURVE",
"922 204 OFFCURVE",
"922 542 CURVE SMOOTH",
"922 874 OFFCURVE",
"758 1096 OFFCURVE",
"502 1096 CURVE SMOOTH",
"250 1096 OFFCURVE",
"84 878 OFFCURVE",
"84 548 CURVE SMOOTH",
"84 208 OFFCURVE",
"254 -16 OFFCURVE",
"512 -16 CURVE SMOOTH"
);
},
{
closed = 1;
nodes = (
"352 140 OFFCURVE",
"248 300 OFFCURVE",
"248 542 CURVE SMOOTH",
"248 782 OFFCURVE",
"350 940 OFFCURVE",
"512 940 CURVE SMOOTH",
"670 940 OFFCURVE",
"776 780 OFFCURVE",
"776 534 CURVE SMOOTH",
"776 298 OFFCURVE",
"674 140 OFFCURVE",
"514 140 CURVE SMOOTH"
);
},
{
closed = 1;
nodes = (
"1320 -16 OFFCURVE",
"1438 24 OFFCURVE",
"1516 82 CURVE",
"1454 234 LINE",
"1386 174 OFFCURVE",
"1294 140 OFFCURVE",
"1214 140 CURVE SMOOTH",
"1040 140 OFFCURVE",
"924 296 OFFCURVE",
"924 540 CURVE SMOOTH",
"924 780 OFFCURVE",
"1026 940 OFFCURVE",
"1180 940 CURVE SMOOTH",
"1316 940 OFFCURVE",
"1406 814 OFFCURVE",
"1404 612 CURVE",
"896 612 LINE",
"896 472 LINE",
"1550 472 LINE",
"1554 496 OFFCURVE",
"1558 538 OFFCURVE",
"1558 590 CURVE SMOOTH",
"1558 896 OFFCURVE",
"1410 1096 OFFCURVE",
"1182 1096 CURVE SMOOTH",
"942 1096 OFFCURVE",
"788 874 OFFCURVE",
"788 546 CURVE SMOOTH",
"788 206 OFFCURVE",
"954 -16 OFFCURVE",
"1210 -16 CURVE SMOOTH"
);
}
);
width = 1642;
}
);
leftKerningGroup = LAT_O_LC;
leftMetricsKey = o;
rightKerningGroup = LAT_E_LC;
rightMetricsKey = e;
unicode = 0153;
},
{
glyphname = p;
lastChange = "2023-05-23 02:56:02 +0000";
layers = (
{
anchors = (
{
name = bottom;
position = "{190, -420}";
},
{
name = top;
position = "{540, 1068}";
}
);
components = (
{
name = _part.bowl;
transform = "{1, 0, 0, 1, 8, 0}";
}
);
layerId = "AB099EFE-E788-4EFC-8633-CF147CB782A6";
paths = (
{
closed = 1;
nodes = (
"220 -420 LINE",
"220 224 LINE",
"242 224 LINE",
"212 330 LINE",
"212 748 LINE",
"248 848 LINE",
"220 848 LINE",
"220 1068 LINE",
"160 1068 LINE",
"160 -420 LINE"
);
}
);
width = 1054;
},
{
anchors = (
{
name = bottom;
position = "{252, -420}";
},
{
name = top;
position = "{558, 1100}";
}
);
components = (
{
name = _part.bowl;
transform = "{1, 0, 0, 1, 4, 0}";
}
);
layerId = "2D8F7115-C311-411E-929D-56333CF7FFB2";
paths = (
{
closed = 1;
nodes = (
"432 -420 LINE",
"432 96 LINE",
"484 96 LINE",
"412 214 LINE",
"412 862 LINE",
"454 980 LINE",
"412 980 LINE",
"412 1100 LINE",
"80 1100 LINE",
"80 -420 LINE"
);
}
);
width = 1100;
},
{
anchors = (
{
name = bottom;
position = "{218, -420}";
},
{
name = top;
position = "{550, 1080}";
}
);
components = (
{
alignment = -1;
name = _part.bowl;
transform = "{1, 0, 0, 1, 4, 0}";
}
);
layerId = "FD1CEFBD-BAB1-4C2A-A598-30E93F9A29F6";
paths = (
{
closed = 1;
nodes = (
"296 -420 LINE",
"296 124 LINE",
"326 124 LINE",
"274 268 LINE",
"274 818 LINE",
"318 960 LINE",
"296 960 LINE",
"296 1080 LINE",
"128 1080 LINE",
"128 -420 LINE"
);
}
);
width = 1062;
}
);
leftKerningGroup = LAT_P_LC;
rightKerningGroup = LAT_O_LC;
rightMetricsKey = o;
unicode = 0070;
},
{
color = 4;
glyphname = p.ss01;
lastChange = "2023-05-23 06:00:29 +0000";
layers = (
{
anchors = (
{
name = bottom;
position = "{190, -420}";
},
{
name = top;
position = "{540, 1048}";
}
);
components = (
{
name = _part.bowl.ss01;
transform = "{1, 0, 0, 1, 4, 0}";
}
);
layerId = "AB099EFE-E788-4EFC-8633-CF147CB782A6";
paths = (
{
closed = 1;
nodes = (
"220 -420 LINE",
"220 228 LINE",
"244 228 LINE",
"216 304 LINE",
"216 756 LINE",
"238 840 LINE",
"220 840 LINE",
"220 1068 LINE",
"160 1068 LINE",
"160 -420 LINE"
);
}
);
width = 1068;
},
{
anchors = (
{
name = bottom;
position = "{252, -420}";
},
{
name = top;
position = "{558, 1080}";
}
);
components = (
{
name = _part.bowl.ss01;
transform = "{1, 0, 0, 1, 4, 0}";
}
);
layerId = "2D8F7115-C311-411E-929D-56333CF7FFB2";
paths = (
{
closed = 1;
nodes = (
"432 -420 LINE",
"432 96 LINE",
"456 96 LINE",
"412 214 LINE",
"412 866 LINE",
"456 960 LINE",
"410 960 LINE",
"410 1100 LINE",
"80 1100 LINE",
"80 -420 LINE"
);
}
);
width = 1108;
},
{
anchors = (
{
name = bottom;
position = "{214, -420}";
},
{
name = top;
position = "{550, 1060}";
}
);
components = (
{
alignment = -1;
name = _part.bowl.ss01;
transform = "{1, 0, 0, 1, -6, 0}";
}
);
layerId = "FD1CEFBD-BAB1-4C2A-A598-30E93F9A29F6";
paths = (
{
closed = 1;
nodes = (
"292 -420 LINE",
"292 154 LINE",
"316 154 LINE",
"284 274 LINE",
"284 832 LINE",
"310 928 LINE",
"292 928 LINE",
"292 1080 LINE",
"124 1080 LINE",
"124 -420 LINE"
);
}
);
width = 1074;
}
);
leftKerningGroup = LAT_P_LC;
rightKerningGroup = LAT_O_LC;
rightMetricsKey = o.ss01;
},
{
glyphname = thorn;
lastChange = "2023-05-23 02:56:02 +0000";
layers = (
{
anchors = (
{
name = bottom;
position = "{554, -4}";
},
{
name = top;
position = "{190, 1540}";
}
);
components = (
{
name = _part.bowl;
transform = "{1, 0, 0, 1, 8, 0}";
}
);
layerId = "AB099EFE-E788-4EFC-8633-CF147CB782A6";
paths = (
{
closed = 1;
nodes = (
"220 -420 LINE",
"220 224 LINE",
"244 224 LINE",
"212 330 LINE",
"212 770 LINE",
"240 852 LINE",
"220 852 LINE",
"220 1540 LINE",
"160 1540 LINE",
"160 -420 LINE"
);
}
);
width = 1054;
},
{
anchors = (
{
name = bottom;
position = "{654, 0}";
},
{
name = top;
position = "{254, 1540}";
}
);
components = (
{
name = _part.bowl;
transform = "{1, 0, 0, 1, 10, 0}";
}
);
layerId = "2D8F7115-C311-411E-929D-56333CF7FFB2";
paths = (
{
closed = 1;
nodes = (
"436 -420 LINE",
"436 96 LINE",
"488 96 LINE",
"416 214 LINE",
"416 888 LINE",
"460 1008 LINE",
"436 1008 LINE",
"436 1540 LINE",
"84 1540 LINE",
"84 -420 LINE"
);
}
);
width = 1106;
},
{
anchors = (
{
name = bottom;
position = "{588, 0}";
},
{
name = top;
position = "{212, 1518}";
}
);
components = (
{
alignment = -1;
name = _part.bowl;
transform = "{1, 0, 0, 1, 4, 0}";
}
);
layerId = "FD1CEFBD-BAB1-4C2A-A598-30E93F9A29F6";
paths = (
{
closed = 1;
nodes = (
"296 -420 LINE",
"296 124 LINE",
"324 124 LINE",
"274 268 LINE",
"274 802 LINE",
"318 960 LINE",
"296 960 LINE",
"296 1540 LINE",
"128 1540 LINE",
"128 -420 LINE"
);
}
);
width = 1062;
}
);
leftKerningGroup = LAT_L_LC;
leftMetricsKey = h;
rightKerningGroup = LAT_O_LC;
rightMetricsKey = p;
unicode = 00FE;
},
{
color = 4;
glyphname = thorn.ss01;
lastChange = "2023-05-23 02:56:02 +0000";
layers = (
{
anchors = (
{
name = bottom;
position = "{586, 0}";
},
{
name = top;
position = "{190, 1540}";
}
);
components = (
{
name = _part.bowl.ss01;
transform = "{1, 0, 0, 1, 4, 0}";
}
);
layerId = "AB099EFE-E788-4EFC-8633-CF147CB782A6";
paths = (
{
closed = 1;
nodes = (
"220 -420 LINE",
"220 228 LINE",
"244 228 LINE",
"216 330 LINE",
"216 764 LINE",
"240 840 LINE",
"220 840 LINE",
"220 1540 LINE",
"160 1540 LINE",
"160 -420 LINE"
);
}
);
width = 1068;
},
{
anchors = (
{
name = bottom;
position = "{690, 0}";
},
{
name = top;
position = "{250, 1540}";
}
);
components = (
{
name = _part.bowl.ss01;
}
);
layerId = "2D8F7115-C311-411E-929D-56333CF7FFB2";
paths = (
{
closed = 1;
nodes = (
"436 -420 LINE",
"436 88 LINE",
"488 88 LINE",
"408 214 LINE",
"408 888 LINE",
"460 1016 LINE",
"436 1016 LINE",
"436 1540 LINE",
"84 1540 LINE",
"84 -420 LINE"
);
}
);
width = 1104;
},
{
anchors = (
{
name = bottom;
position = "{616, 0}";
},
{
name = top;
position = "{210, 1518}";
}
);
components = (
{
alignment = -1;
name = _part.bowl.ss01;
transform = "{1, 0, 0, 1, -4, 0}";
}
);
layerId = "FD1CEFBD-BAB1-4C2A-A598-30E93F9A29F6";
paths = (
{
closed = 1;
nodes = (
"296 -420 LINE",
"296 148 LINE",
"336 148 LINE",
"280 254 LINE",
"280 816 LINE",
"324 928 LINE",
"296 928 LINE",
"296 1540 LINE",
"128 1540 LINE",
"128 -420 LINE"
);
}
);
width = 1076;
}
);
leftKerningGroup = LAT_L_LC;
leftMetricsKey = h;
rightKerningGroup = LAT_O_LC;
rightMetricsKey = o.ss01;
},
{
glyphname = q;
lastChange = "2023-05-23 02:56:02 +0000";
layers = (
{
anchors = (
{
name = bottom;
position = "{866, -420}";
},
{
name = top;
position = "{500, 1068}";
}
);
components = (
{
name = _part.bowl;
transform = "{-1, 0, 0, 1, 1046, 0}";
}
);
layerId = "AB099EFE-E788-4EFC-8633-CF147CB782A6";
paths = (
{
closed = 1;
nodes = (
"974 -380 LINE",
"920 -348 OFFCURVE",
"894 -282 OFFCURVE",
"894 -188 CURVE SMOOTH",
"894 1068 LINE",
"834 1068 LINE",
"834 848 LINE",
"812 848 LINE",
"842 782 LINE",
"842 296 LINE",
"820 224 LINE",
"834 224 LINE",
"834 -194 LINE SMOOTH",
"834 -320 OFFCURVE",
"866 -384 OFFCURVE",
"950 -436 CURVE"
);
}
);
width = 1062;
},
{
anchors = (
{
name = bottom;
position = "{838, -420}";
},
{
name = top;
position = "{462, 1100}";
}
);
components = (
{
name = _part.bowl;
transform = "{-1, 0, 0, 1, 1096, 0}";
}
);
layerId = "2D8F7115-C311-411E-929D-56333CF7FFB2";
paths = (
{
closed = 1;
nodes = (
"1094 -150 LINE",
"1046 -130 OFFCURVE",
"1022 -108 OFFCURVE",
"1022 -28 CURVE SMOOTH",
"1022 1100 LINE",
"690 1100 LINE",
"690 980 LINE",
"662 980 LINE",
"686 856 LINE",
"686 174 LINE",
"620 96 LINE",
"670 96 LINE",
"670 -62 LINE SMOOTH",
"670 -238 OFFCURVE",
"772 -358 OFFCURVE",
"970 -436 CURVE"
);
}
);
width = 1106;
},
{
anchors = (
{
name = bottom;
position = "{866, -420}";
},
{
name = top;
position = "{492, 1080}";
}
);
components = (
{
alignment = -1;
name = _part.bowl;
transform = "{-1, 0, 0, 1, 1058, 0}";
}
);
layerId = "FD1CEFBD-BAB1-4C2A-A598-30E93F9A29F6";
paths = (
{
closed = 1;
nodes = (
"1004 -286 LINE",
"942 -256 OFFCURVE",
"934 -218 OFFCURVE",
"934 -100 CURVE SMOOTH",
"934 1080 LINE",
"766 1080 LINE",
"766 960 LINE",
"734 960 LINE",
"780 814 LINE",
"780 236 LINE",
"738 124 LINE",
"766 124 LINE",
"766 -152 LINE SMOOTH",
"766 -292 OFFCURVE",
"818 -380 OFFCURVE",
"942 -436 CURVE"
);
}
);
width = 1074;
}
);
leftKerningGroup = LAT_O_LC;
leftMetricsKey = o;
rightKerningGroup = LAT_Q_LC;
unicode = 0071;
},
{
glyphname = r;
lastChange = "2023-05-23 02:56:02 +0000";
layers = (
{
anchors = (
{
name = bottom;
position = "{190, 0}";
},
{
name = top;
position = "{346, 1068}";
}
);
guideLines = (
{
angle = 67.5;
position = "{156, -220}";
}
);
layerId = "AB099EFE-E788-4EFC-8633-CF147CB782A6";
paths = (
{
closed = 1;
nodes = (
"220 0 LINE",
"220 656 LINE SMOOTH",
"220 872 OFFCURVE",
"392 1028 OFFCURVE",
"508 1028 CURVE SMOOTH",
"530 1028 OFFCURVE",
"544 1024 OFFCURVE",
"566 1016 CURVE",
"590 1072 LINE",
"570 1082 OFFCURVE",
"540 1084 OFFCURVE",
"518 1084 CURVE SMOOTH",
"394 1084 OFFCURVE",
"270 982 OFFCURVE",
"206 828 CURVE",
"242 868 LINE",
"220 868 LINE",
"220 1068 LINE",
"160 1068 LINE",
"160 0 LINE"
);
}
);
width = 626;
},
{
anchors = (
{
name = bottom;
position = "{258, 0}";
},
{
name = top;
position = "{394, 1100}";
}
);
guideLines = (
{
angle = 67.5;
position = "{824, 1088}";
}
);
layerId = "2D8F7115-C311-411E-929D-56333CF7FFB2";
paths = (
{
closed = 1;
nodes = (
"432 0 LINE",
"432 552 LINE SMOOTH",
"432 710 OFFCURVE",
"506 776 OFFCURVE",
"580 776 CURVE SMOOTH",
"616 776 OFFCURVE",
"658 760 OFFCURVE",
"670 746 CURVE",
"814 1092 LINE",
"798 1104 OFFCURVE",
"746 1116 OFFCURVE",
"692 1116 CURVE SMOOTH",
"516 1116 OFFCURVE",
"420 974 OFFCURVE",
"386 872 CURVE",
"448 950 LINE",
"416 950 LINE",
"416 1100 LINE",
"80 1100 LINE",
"80 0 LINE"
);
}
);
width = 798;
},
{
anchors = (
{
name = bottom;
position = "{212, 0}";
},
{
name = top;
position = "{360, 1080}";
}
);
guideLines = (
{
angle = 67.5;
position = "{876, 1536}";
}
);
layerId = "FD1CEFBD-BAB1-4C2A-A598-30E93F9A29F6";
paths = (
{
closed = 1;
nodes = (
"296 0 LINE",
"296 618 LINE SMOOTH",
"296 836 OFFCURVE",
"432 922 OFFCURVE",
"532 922 CURVE SMOOTH",
"558 922 OFFCURVE",
"588 918 OFFCURVE",
"598 914 CURVE",
"668 1082 LINE",
"654 1088 OFFCURVE",
"608 1096 OFFCURVE",
"572 1096 CURVE SMOOTH",
"416 1096 OFFCURVE",
"314 998 OFFCURVE",
"272 868 CURVE",
"324 934 LINE",
"296 934 LINE",
"296 1080 LINE",
"128 1080 LINE",
"128 0 LINE"
);
}
);
width = 680;
}
);
leftKerningGroup = LAT_N_LC;
leftMetricsKey = n;
rightKerningGroup = LAT_R_LC;
unicode = 0072;
},
{
glyphname = s;
lastChange = "2023-05-23 02:56:02 +0000";
layers = (
{
anchors = (
{
name = bottom;
position = "{380, 0}";
},
{
name = cedilla;
position = "{388, 0}";
},
{
name = top;
position = "{378, 1068}";
}
);
background = {
paths = (
{
closed = 1;
nodes = (
"550 -16 OFFCURVE",
"680 96 OFFCURVE",
"680 272 CURVE SMOOTH",
"680 480 OFFCURVE",
"508 536 OFFCURVE",
"398 578 CURVE SMOOTH",
"308 612 OFFCURVE",
"196 658 OFFCURVE",
"192 804 CURVE SMOOTH",
"190 934 OFFCURVE",
"270 1008 OFFCURVE",
"376 1008 CURVE SMOOTH",
"474 1008 OFFCURVE",
"556 944 OFFCURVE",
"592 862 CURVE",
"648 884 LINE",
"600 994 OFFCURVE",
"498 1064 OFFCURVE",
"378 1064 CURVE SMOOTH",
"240 1064 OFFCURVE",
"132 960 OFFCURVE",
"132 814 CURVE SMOOTH",
"132 640 OFFCURVE",
"284 554 OFFCURVE",
"384 522 CURVE SMOOTH",
"464 496 OFFCURVE",
"620 442 OFFCURVE",
"620 272 CURVE SMOOTH",
"620 138 OFFCURVE",
"518 40 OFFCURVE",
"404 40 CURVE SMOOTH",
"290 40 OFFCURVE",
"200 128 OFFCURVE",
"164 232 CURVE",
"104 208 LINE",
"144 94 OFFCURVE",
"252 -16 OFFCURVE",
"404 -16 CURVE SMOOTH"
);
}
);
};
layerId = "AB099EFE-E788-4EFC-8633-CF147CB782A6";
paths = (
{
closed = 1;
nodes = (
"566 -16 OFFCURVE",
"682 106 OFFCURVE",
"682 274 CURVE SMOOTH",
"682 436 OFFCURVE",
"576 514 OFFCURVE",
"420 580 CURVE SMOOTH",
"260 648 OFFCURVE",
"182 720 OFFCURVE",
"182 832 CURVE SMOOTH",
"182 944 OFFCURVE",
"260 1028 OFFCURVE",
"378 1028 CURVE SMOOTH",
"464 1028 OFFCURVE",
"562 984 OFFCURVE",
"612 918 CURVE",
"636 974 LINE",
"588 1040 OFFCURVE",
"480 1084 OFFCURVE",
"380 1084 CURVE SMOOTH",
"226 1084 OFFCURVE",
"122 980 OFFCURVE",
"122 832 CURVE SMOOTH",
"122 692 OFFCURVE",
"214 608 OFFCURVE",
"366 542 CURVE SMOOTH",
"540 466 OFFCURVE",
"622 398 OFFCURVE",
"622 272 CURVE SMOOTH",
"622 142 OFFCURVE",
"532 40 OFFCURVE",
"402 40 CURVE SMOOTH",
"292 40 OFFCURVE",
"176 114 OFFCURVE",
"114 208 CURVE",
"88 146 LINE",
"152 50 OFFCURVE",
"276 -16 OFFCURVE",
"398 -16 CURVE SMOOTH"
);
}
);
width = 786;
},
{
anchors = (
{
name = bottom;
position = "{438, 0}";
},
{
name = cedilla;
position = "{458, 0}";
},
{
name = top;
position = "{446, 1100}";
}
);
layerId = "2D8F7115-C311-411E-929D-56333CF7FFB2";
paths = (
{
closed = 1;
nodes = (
"670 -16 OFFCURVE",
"848 120 OFFCURVE",
"848 328 CURVE SMOOTH",
"848 500 OFFCURVE",
"728 600 OFFCURVE",
"554 660 CURVE SMOOTH",
"434 702 OFFCURVE",
"408 726 OFFCURVE",
"408 764 CURVE SMOOTH",
"408 808 OFFCURVE",
"456 830 OFFCURVE",
"496 830 CURVE SMOOTH",
"552 830 OFFCURVE",
"644 792 OFFCURVE",
"690 746 CURVE",
"814 1004 LINE",
"720 1074 OFFCURVE",
"594 1116 OFFCURVE",
"472 1116 CURVE SMOOTH",
"252 1116 OFFCURVE",
"76 984 OFFCURVE",
"76 782 CURVE SMOOTH",
"76 606 OFFCURVE",
"210 508 OFFCURVE",
"364 456 CURVE SMOOTH",
"474 418 OFFCURVE",
"516 388 OFFCURVE",
"516 344 CURVE SMOOTH",
"516 306 OFFCURVE",
"486 274 OFFCURVE",
"420 274 CURVE SMOOTH",
"324 274 OFFCURVE",
"226 334 OFFCURVE",
"156 406 CURVE",
"44 124 LINE",
"142 46 OFFCURVE",
"298 -16 OFFCURVE",
"448 -16 CURVE SMOOTH"
);
}
);
width = 892;
},
{
anchors = (
{
name = bottom;
position = "{396, 0}";
},
{
name = cedilla;
position = "{406, 0}";
},
{
name = top;
position = "{400, 1080}";
}
);
background = {
paths = (
{
closed = 1;
nodes = (
"594 -16 OFFCURVE",
"726 112 OFFCURVE",
"726 288 CURVE SMOOTH",
"726 452 OFFCURVE",
"614 564 OFFCURVE",
"454 610 CURVE SMOOTH",
"318 650 OFFCURVE",
"260 706 OFFCURVE",
"260 792 CURVE SMOOTH",
"260 866 OFFCURVE",
"312 924 OFFCURVE",
"398 924 CURVE SMOOTH",
"480 924 OFFCURVE",
"566 876 OFFCURVE",
"630 800 CURVE",
"692 954 LINE",
"620 1030 OFFCURVE",
"506 1076 OFFCURVE",
"396 1076 CURVE SMOOTH",
"220 1076 OFFCURVE",
"96 964 OFFCURVE",
"96 802 CURVE SMOOTH",
"96 652 OFFCURVE",
"202 526 OFFCURVE",
"364 480 CURVE SMOOTH",
"504 440 OFFCURVE",
"562 374 OFFCURVE",
"562 292 CURVE SMOOTH",
"562 206 OFFCURVE",
"496 136 OFFCURVE",
"406 136 CURVE SMOOTH",
"320 136 OFFCURVE",
"216 198 OFFCURVE",
"132 302 CURVE",
"60 146 LINE",
"152 48 OFFCURVE",
"290 -16 OFFCURVE",
"416 -16 CURVE SMOOTH"
);
}
);
};
layerId = "FD1CEFBD-BAB1-4C2A-A598-30E93F9A29F6";
paths = (
{
closed = 1;
nodes = (
"598 -16 OFFCURVE",
"736 114 OFFCURVE",
"736 294 CURVE SMOOTH",
"736 464 OFFCURVE",
"618 566 OFFCURVE",
"462 618 CURVE SMOOTH",
"324 664 OFFCURVE",
"260 722 OFFCURVE",
"260 808 CURVE SMOOTH",
"260 888 OFFCURVE",
"322 944 OFFCURVE",
"408 944 CURVE SMOOTH",
"488 944 OFFCURVE",
"576 900 OFFCURVE",
"636 828 CURVE",
"698 976 LINE",
"630 1050 OFFCURVE",
"514 1096 OFFCURVE",
"404 1096 CURVE SMOOTH",
"230 1096 OFFCURVE",
"96 984 OFFCURVE",
"96 816 CURVE SMOOTH",
"96 660 OFFCURVE",
"212 546 OFFCURVE",
"368 494 CURVE SMOOTH",
"506 448 OFFCURVE",
"572 388 OFFCURVE",
"572 296 CURVE SMOOTH",
"572 206 OFFCURVE",
"502 136 OFFCURVE",
"408 136 CURVE SMOOTH",
"320 136 OFFCURVE",
"212 198 OFFCURVE",
"132 298 CURVE",
"64 146 LINE",
"154 46 OFFCURVE",
"292 -16 OFFCURVE",
"416 -16 CURVE SMOOTH"
);
}
);
width = 816;
},
{
anchors = (
{
name = bottom;
position = "{417, 0}";
},
{
name = cedilla;
position = "{432, 0}";
},
{
name = top;
position = "{430, 1088}";
}
);
associatedMasterId = "FD1CEFBD-BAB1-4C2A-A598-30E93F9A29F6";
background = {
paths = (
{
closed = 1;
nodes = (
"622 -16 OFFCURVE",
"772 114 OFFCURVE",
"772 302 CURVE SMOOTH",
"772 480 OFFCURVE",
"636 574 OFFCURVE",
"500 624 CURVE SMOOTH",
"370 672 OFFCURVE",
"312 702 OFFCURVE",
"312 776 CURVE SMOOTH",
"312 846 OFFCURVE",
"362 884 OFFCURVE",
"432 882 CURVE SMOOTH",
"508 882 OFFCURVE",
"594 838 OFFCURVE",
"650 776 CURVE",
"740 966 LINE",
"668 1032 OFFCURVE",
"550 1082 OFFCURVE",
"428 1082 CURVE SMOOTH",
"248 1082 OFFCURVE",
"92 974 OFFCURVE",
"92 780 CURVE SMOOTH",
"92 608 OFFCURVE",
"216 512 OFFCURVE",
"370 458 CURVE SMOOTH",
"496 414 OFFCURVE",
"552 380 OFFCURVE",
"552 306 CURVE SMOOTH",
"552 238 OFFCURVE",
"502 184 OFFCURVE",
"422 184 CURVE SMOOTH",
"328 184 OFFCURVE",
"220 256 OFFCURVE",
"148 340 CURVE",
"56 138 LINE",
"144 50 OFFCURVE",
"290 -16 OFFCURVE",
"428 -16 CURVE SMOOTH"
);
}
);
};
layerId = "108E7A61-51CD-41A8-9EFA-58AF1D8DF4AC";
name = "{124}";
paths = (
{
closed = 1;
nodes = (
"630 -16 OFFCURVE",
"782 116 OFFCURVE",
"782 306 CURVE SMOOTH",
"782 488 OFFCURVE",
"644 590 OFFCURVE",
"500 638 CURVE SMOOTH",
"368 682 OFFCURVE",
"320 724 OFFCURVE",
"320 790 CURVE SMOOTH",
"320 858 OFFCURVE",
"374 900 OFFCURVE",
"442 900 CURVE SMOOTH",
"518 900 OFFCURVE",
"608 850 OFFCURVE",
"658 792 CURVE",
"750 986 LINE",
"672 1056 OFFCURVE",
"552 1104 OFFCURVE",
"432 1104 CURVE SMOOTH",
"246 1104 OFFCURVE",
"94 988 OFFCURVE",
"94 800 CURVE SMOOTH",
"94 636 OFFCURVE",
"210 528 OFFCURVE",
"372 474 CURVE SMOOTH",
"486 436 OFFCURVE",
"554 390 OFFCURVE",
"554 314 CURVE SMOOTH",
"554 246 OFFCURVE",
"502 190 OFFCURVE",
"422 190 CURVE SMOOTH",
"336 190 OFFCURVE",
"228 254 OFFCURVE",
"150 346 CURVE",
"60 140 LINE",
"148 52 OFFCURVE",
"296 -16 OFFCURVE",
"436 -16 CURVE SMOOTH"
);
}
);
width = 844;
}
);
leftKerningGroup = LAT_S_LC;
rightKerningGroup = LAT_S_LC;
unicode = 0073;
userData = {
com.typemytype.robofont.layerData = {
background = {
anchors = (
);
components = (
);
contours = (
{
points = (
{
segmentType = curve;
smooth = 1;
x = 213;
y = -12;
},
{
smooth = 0;
x = 318;
y = -12;
},
{
smooth = 0;
x = 376;
y = 50;
},
{
segmentType = curve;
smooth = 1;
x = 376;
y = 120;
},
{
smooth = 0;
x = 376;
y = 214;
},
{
smooth = 0;
x = 288;
y = 237;
},
{
segmentType = curve;
smooth = 1;
x = 208;
y = 266;
},
{
smooth = 0;
x = 147;
y = 288;
},
{
smooth = 0;
x = 85;
y = 310;
},
{
segmentType = curve;
smooth = 1;
x = 85;
y = 368;
},
{
smooth = 0;
x = 85;
y = 415;
},
{
smooth = 0;
x = 124;
y = 462;
},
{
segmentType = curve;
smooth = 1;
x = 208;
y = 462;
},
{
smooth = 0;
x = 253;
y = 462;
},
{
smooth = 0;
x = 284;
y = 448;
},
{
segmentType = curve;
smooth = 1;
x = 314;
y = 429;
},
{
smooth = 0;
x = 325;
y = 422;
},
{
smooth = 0;
x = 336;
y = 423;
},
{
segmentType = curve;
smooth = 1;
x = 343;
y = 434;
},
{
segmentType = line;
smooth = 1;
x = 346;
y = 439;
},
{
smooth = 0;
x = 347;
y = 441;
},
{
smooth = 0;
x = 347;
y = 443;
},
{
segmentType = curve;
smooth = 1;
x = 345;
y = 444;
},
{
smooth = 0;
x = 311;
y = 468;
},
{
smooth = 0;
x = 257;
y = 490;
},
{
segmentType = curve;
smooth = 1;
x = 211;
y = 490;
},
{
smooth = 0;
x = 108;
y = 490;
},
{
smooth = 0;
x = 54;
y = 432;
},
{
segmentType = curve;
smooth = 1;
x = 54;
y = 366;
},
{
smooth = 0;
x = 54;
y = 284;
},
{
smooth = 0;
x = 141;
y = 256;
},
{
segmentType = curve;
smooth = 1;
x = 218;
y = 230;
},
{
smooth = 0;
x = 277;
y = 210;
},
{
smooth = 0;
x = 344;
y = 182;
},
{
segmentType = curve;
smooth = 1;
x = 344;
y = 118;
},
{
smooth = 0;
x = 344;
y = 64;
},
{
smooth = 0;
x = 300;
y = 16;
},
{
segmentType = curve;
smooth = 1;
x = 215;
y = 16;
},
{
smooth = 0;
x = 148;
y = 16;
},
{
smooth = 0;
x = 105;
y = 37;
},
{
segmentType = curve;
smooth = 1;
x = 66;
y = 65;
},
{
smooth = 0;
x = 55;
y = 73;
},
{
smooth = 0;
x = 45;
y = 74;
},
{
segmentType = curve;
smooth = 1;
x = 37;
y = 63;
},
{
segmentType = line;
smooth = 1;
x = 33;
y = 57;
},
{
smooth = 0;
x = 32;
y = 55;
},
{
smooth = 0;
x = 32;
y = 53;
},
{
segmentType = curve;
smooth = 1;
x = 34;
y = 51;
},
{
smooth = 0;
x = 73;
y = 12;
},
{
smooth = 0;
x = 139;
y = -12;
}
);
}
);
lib = {
};
name = s;
unicodes = (
);
width = 439;
};
};
};
},
{
glyphname = germandbls;
lastChange = "2023-05-23 02:56:02 +0000";
layers = (
{
layerId = "AB099EFE-E788-4EFC-8633-CF147CB782A6";
paths = (
{
closed = 1;
nodes = (
"744 -16 OFFCURVE",
"894 196 OFFCURVE",
"894 418 CURVE SMOOTH",
"894 672 OFFCURVE",
"718 864 OFFCURVE",
"486 852 CURVE",
"486 824 LINE",
"664 812 OFFCURVE",
"800 972 OFFCURVE",
"800 1188 CURVE SMOOTH",
"800 1410 OFFCURVE",
"662 1556 OFFCURVE",
"476 1556 CURVE SMOOTH",
"288 1556 OFFCURVE",
"160 1398 OFFCURVE",
"160 1178 CURVE SMOOTH",
"160 0 LINE",
"220 0 LINE",
"220 1190 LINE SMOOTH",
"220 1366 OFFCURVE",
"334 1500 OFFCURVE",
"480 1500 CURVE SMOOTH",
"630 1500 OFFCURVE",
"740 1364 OFFCURVE",
"740 1184 CURVE SMOOTH",
"740 1004 OFFCURVE",
"624 870 OFFCURVE",
"472 870 CURVE SMOOTH",
"412 870 LINE",
"412 814 LINE",
"440 814 LINE SMOOTH",
"664 814 OFFCURVE",
"834 654 OFFCURVE",
"834 418 CURVE SMOOTH",
"834 220 OFFCURVE",
"706 40 OFFCURVE",
"514 40 CURVE SMOOTH",
"458 40 OFFCURVE",
"400 56 OFFCURVE",
"366 68 CURVE",
"366 8 LINE",
"408 -8 OFFCURVE",
"478 -16 OFFCURVE",
"522 -16 CURVE SMOOTH"
);
}
);
width = 1018;
},
{
layerId = "2D8F7115-C311-411E-929D-56333CF7FFB2";
paths = (
{
closed = 1;
nodes = (
"962 -16 OFFCURVE",
"1138 144 OFFCURVE",
"1138 402 CURVE SMOOTH",
"1138 650 OFFCURVE",
"976 806 OFFCURVE",
"716 802 CURVE",
"716 746 LINE",
"842 746 OFFCURVE",
"1026 882 OFFCURVE",
"1026 1130 CURVE SMOOTH",
"1026 1380 OFFCURVE",
"840 1556 OFFCURVE",
"570 1556 CURVE SMOOTH",
"280 1556 OFFCURVE",
"84 1352 OFFCURVE",
"84 1058 CURVE SMOOTH",
"84 0 LINE",
"436 0 LINE",
"436 1066 LINE SMOOTH",
"436 1186 OFFCURVE",
"496 1260 OFFCURVE",
"588 1260 CURVE SMOOTH",
"666 1260 OFFCURVE",
"724 1206 OFFCURVE",
"724 1104 CURVE SMOOTH",
"724 998 OFFCURVE",
"666 926 OFFCURVE",
"588 926 CURVE SMOOTH",
"540 926 LINE",
"540 612 LINE",
"626 612 LINE SMOOTH",
"738 612 OFFCURVE",
"792 546 OFFCURVE",
"792 430 CURVE SMOOTH",
"792 330 OFFCURVE",
"744 274 OFFCURVE",
"660 274 CURVE SMOOTH",
"636 274 OFFCURVE",
"572 280 OFFCURVE",
"542 290 CURVE",
"542 -10 LINE",
"590 -14 OFFCURVE",
"640 -16 OFFCURVE",
"672 -16 CURVE SMOOTH"
);
}
);
width = 1186;
},
{
layerId = "FD1CEFBD-BAB1-4C2A-A598-30E93F9A29F6";
paths = (
{
closed = 1;
nodes = (
"798 -16 OFFCURVE",
"980 170 OFFCURVE",
"980 422 CURVE SMOOTH",
"980 676 OFFCURVE",
"796 848 OFFCURVE",
"580 838 CURVE",
"580 788 LINE",
"746 782 OFFCURVE",
"884 948 OFFCURVE",
"884 1176 CURVE SMOOTH",
"884 1406 OFFCURVE",
"742 1556 OFFCURVE",
"506 1556 CURVE SMOOTH",
"272 1556 OFFCURVE",
"128 1408 OFFCURVE",
"128 1134 CURVE SMOOTH",
"128 0 LINE",
"296 0 LINE",
"296 1120 LINE SMOOTH",
"296 1306 OFFCURVE",
"378 1400 OFFCURVE",
"512 1400 CURVE SMOOTH",
"644 1400 OFFCURVE",
"716 1306 OFFCURVE",
"716 1158 CURVE SMOOTH",
"716 996 OFFCURVE",
"628 884 OFFCURVE",
"512 884 CURVE SMOOTH",
"458 884 LINE",
"458 734 LINE",
"508 734 LINE SMOOTH",
"696 734 OFFCURVE",
"808 602 OFFCURVE",
"812 426 CURVE SMOOTH",
"816 258 OFFCURVE",
"716 140 OFFCURVE",
"550 140 CURVE SMOOTH",
"520 140 OFFCURVE",
"466 144 OFFCURVE",
"426 154 CURVE",
"426 -4 LINE",
"466 -12 OFFCURVE",
"520 -16 OFFCURVE",
"556 -16 CURVE SMOOTH"
);
}
);
width = 1076;
}
);
leftKerningGroup = LAT_L_LC;
leftMetricsKey = h;
rightKerningGroup = LAT_GERMANDBLS_LC;
rightMetricsKey = B;
unicode = 00DF;
},
{
glyphname = t;
lastChange = "2023-05-23 02:56:02 +0000";
layers = (
{
anchors = (
{
name = bottom;
position = "{412, 0}";
},
{
name = cedilla;
position = "{432, 0}";
},
{
name = center;
position = "{272, 524}";
},
{
name = top;
position = "{272, 1414}";
},
{
name = topright;
position = "{328, 1582}";
}
);
guideLines = (
{
angle = 112.5;
position = "{452, -32}";
}
);
layerId = "AB099EFE-E788-4EFC-8633-CF147CB782A6";
paths = (
{
closed = 1;
nodes = (
"490 -12 OFFCURVE",
"524 -8 OFFCURVE",
"556 8 CURVE",
"532 60 LINE",
"508 48 OFFCURVE",
"478 44 OFFCURVE",
"456 44 CURVE SMOOTH",
"350 44 OFFCURVE",
"300 136 OFFCURVE",
"300 274 CURVE SMOOTH",
"300 1414 LINE",
"240 1414 LINE",
"240 286 LINE SMOOTH",
"240 98 OFFCURVE",
"308 -12 OFFCURVE",
"458 -12 CURVE SMOOTH"
);
},
{
closed = 1;
nodes = (
"546 1012 LINE",
"546 1068 LINE",
"88 1068 LINE",
"88 1012 LINE"
);
}
);
width = 656;
},
{
anchors = (
{
name = bottom;
position = "{542, 0}";
},
{
name = cedilla;
position = "{566, 0}";
},
{
name = center;
position = "{382, 540}";
},
{
name = top;
position = "{378, 1380}";
},
{
name = topright;
position = "{552, 1730}";
}
);
guideLines = (
{
angle = 149.6568;
position = "{426, -12}";
}
);
layerId = "2D8F7115-C311-411E-929D-56333CF7FFB2";
paths = (
{
closed = 1;
nodes = (
"702 -16 OFFCURVE",
"798 0 OFFCURVE",
"862 28 CURVE",
"750 304 LINE",
"724 292 OFFCURVE",
"694 282 OFFCURVE",
"664 282 CURVE SMOOTH",
"598 282 OFFCURVE",
"552 322 OFFCURVE",
"552 408 CURVE SMOOTH",
"552 1380 LINE",
"200 1380 LINE",
"200 408 LINE SMOOTH",
"200 160 OFFCURVE",
"330 -16 OFFCURVE",
"614 -16 CURVE SMOOTH"
);
},
{
closed = 1;
nodes = (
"798 800 LINE",
"798 1100 LINE",
"16 1100 LINE",
"16 800 LINE"
);
}
);
width = 878;
},
{
anchors = (
{
name = bottom;
position = "{446, 0}";
},
{
name = cedilla;
position = "{468, 0}";
},
{
name = center;
position = "{306, 536}";
},
{
name = top;
position = "{304, 1402}";
},
{
name = topright;
position = "{420, 1628}";
}
);
background = {
paths = (
{
closed = 1;
nodes = (
"582 -16 OFFCURVE",
"632 0 OFFCURVE",
"672 16 CURVE",
"606 168 LINE",
"582 156 OFFCURVE",
"554 144 OFFCURVE",
"520 144 CURVE SMOOTH",
"440 144 OFFCURVE",
"386 202 OFFCURVE",
"386 312 CURVE SMOOTH",
"386 1400 LINE",
"214 1400 LINE",
"214 294 LINE SMOOTH",
"214 112 OFFCURVE",
"316 -16 OFFCURVE",
"516 -16 CURVE SMOOTH"
);
},
{
closed = 1;
nodes = (
"648 904 LINE",
"648 1060 LINE",
"38 1060 LINE",
"38 904 LINE"
);
}
);
};
layerId = "FD1CEFBD-BAB1-4C2A-A598-30E93F9A29F6";
paths = (
{
closed = 1;
nodes = (
"558 -16 OFFCURVE",
"606 2 OFFCURVE",
"640 16 CURVE",
"578 164 LINE",
"556 150 OFFCURVE",
"530 140 OFFCURVE",
"506 140 CURVE SMOOTH",
"438 140 OFFCURVE",
"386 204 OFFCURVE",
"386 312 CURVE SMOOTH",
"386 1402 LINE",
"218 1402 LINE",
"218 296 LINE SMOOTH",
"218 112 OFFCURVE",
"316 -16 OFFCURVE",
"496 -16 CURVE SMOOTH"
);
},
{
closed = 1;
nodes = (
"614 924 LINE",
"614 1080 LINE",
"52 1080 LINE",
"52 924 LINE"
);
}
);
width = 696;
}
);
leftKerningGroup = LAT_T_LC;
rightKerningGroup = LAT_T_LC;
unicode = 0074;
},
{
color = 4;
glyphname = t.ss01;
lastChange = "2023-05-23 02:56:02 +0000";
layers = (
{
anchors = (
{
name = bottom;
position = "{310, 0}";
},
{
name = cedilla;
position = "{298, 0}";
},
{
name = center;
position = "{310, 524}";
},
{
name = top;
position = "{310, 1414}";
},
{
name = topright;
position = "{372, 1540}";
}
);
layerId = "AB099EFE-E788-4EFC-8633-CF147CB782A6";
paths = (
{
closed = 1;
nodes = (
"340 0 LINE",
"340 1414 LINE",
"280 1414 LINE",
"280 0 LINE"
);
},
{
closed = 1;
nodes = (
"548 1012 LINE",
"548 1068 LINE",
"72 1068 LINE",
"72 1012 LINE"
);
}
);
width = 620;
},
{
anchors = (
{
name = bottom;
position = "{378, 0}";
},
{
name = cedilla;
position = "{408, 0}";
},
{
name = center;
position = "{376, 540}";
},
{
name = top;
position = "{376, 1380}";
},
{
name = topright;
position = "{516, 1726}";
}
);
layerId = "2D8F7115-C311-411E-929D-56333CF7FFB2";
paths = (
{
closed = 1;
nodes = (
"552 0 LINE",
"552 1380 LINE",
"200 1380 LINE",
"200 0 LINE"
);
},
{
closed = 1;
nodes = (
"744 800 LINE",
"744 1100 LINE",
"8 1100 LINE",
"8 800 LINE"
);
}
);
width = 752;
},
{
anchors = (
{
name = bottom;
position = "{336, 0}";
},
{
name = cedilla;
position = "{340, 0}";
},
{
name = center;
position = "{334, 532}";
},
{
name = top;
position = "{336, 1402}";
},
{
name = topright;
position = "{424, 1610}";
}
);
layerId = "FD1CEFBD-BAB1-4C2A-A598-30E93F9A29F6";
paths = (
{
closed = 1;
nodes = (
"420 0 LINE",
"420 1402 LINE",
"252 1402 LINE",
"252 0 LINE"
);
},
{
closed = 1;
nodes = (
"624 924 LINE",
"624 1080 LINE",
"48 1080 LINE",
"48 924 LINE"
);
}
);
width = 672;
}
);
leftKerningGroup = LAT_T_LC;
rightKerningGroup = LAT_TSS01_LC;
},
{
glyphname = u;
lastChange = "2022-02-01 02:30:48 +0000";
layers = (
{
anchors = (
{
name = bottom;
position = "{532, 0}";
},
{
name = horn;
position = "{792, 1068}";
},
{
name = ogonek;
position = "{878, -16}";
},
{
name = top;
position = "{500, 1068}";
}
);
background = {
anchors = (
{
name = bottom;
position = "{456, 0}";
},
{
name = leghookretroflex;
position = "{172, 1048}";
},
{
name = leghookright;
position = "{786, 1048}";
},
{
name = top;
position = "{462, 1048}";
}
);
paths = (
{
closed = 1;
nodes = (
"756 1048 LINE",
"756 336 LINE SMOOTH",
"754 162 OFFCURVE",
"628 40 OFFCURVE",
"464 40 CURVE SMOOTH",
"302 42 OFFCURVE",
"204 160 OFFCURVE",
"204 332 CURVE SMOOTH",
"204 1048 LINE",
"144 1048 LINE",
"144 332 LINE SMOOTH",
"144 130 OFFCURVE",
"268 -16 OFFCURVE",
"460 -16 CURVE SMOOTH",
"596 -16 OFFCURVE",
"724 58 OFFCURVE",
"766 182 CURVE",
"728 152 LINE",
"756 152 LINE",
"756 0 LINE",
"816 0 LINE",
"816 1048 LINE"
);
}
);
};
guideLines = (
{
angle = 67.5;
position = "{638, -18}";
}
);
layerId = "AB099EFE-E788-4EFC-8633-CF147CB782A6";
paths = (
{
closed = 1;
nodes = (
"608 -16 OFFCURVE",
"742 80 OFFCURVE",
"784 224 CURVE",
"742 174 LINE",
"792 174 LINE",
"764 230 LINE",
"766 104 OFFCURVE",
"796 25 OFFCURVE",
"878 -16 CURVE",
"902 42 LINE",
"836 74 OFFCURVE",
"822 122 OFFCURVE",
"822 236 CURVE SMOOTH",
"822 1068 LINE",
"762 1068 LINE",
"762 356 LINE SMOOTH",
"762 188 OFFCURVE",
"640 36 OFFCURVE",
"462 40 CURVE SMOOTH",
"308 44 OFFCURVE",
"212 164 OFFCURVE",
"212 336 CURVE SMOOTH",
"212 1068 LINE",
"152 1068 LINE",
"152 336 LINE SMOOTH",
"152 134 OFFCURVE",
"276 -16 OFFCURVE",
"466 -16 CURVE SMOOTH"
);
}
);
width = 1018;
},
{
anchors = (
{
name = bottom;
position = "{588, 0}";
},
{
name = horn;
position = "{810, 1100}";
},
{
name = ogonek;
position = "{920, -16}";
},
{
name = top;
position = "{540, 1100}";
}
);
background = {
components = (
{
name = n;
transform = "{-1, 0, 0, -1, 1052, 1080}";
}
);
};
guideLines = (
{
angle = 67.5;
position = "{522, 0}";
}
);
layerId = "2D8F7115-C311-411E-929D-56333CF7FFB2";
paths = (
{
closed = 1;
nodes = (
"566 -16 OFFCURVE",
"696 78 OFFCURVE",
"734 220 CURVE",
"622 130 LINE",
"744 130 LINE",
"678 204 LINE",
"680 98 OFFCURVE",
"782 15 OFFCURVE",
"920 -16 CURVE",
"1056 274 LINE",
"996 300 OFFCURVE",
"980 328 OFFCURVE",
"980 396 CURVE SMOOTH",
"980 1100 LINE",
"628 1100 LINE",
"628 388 LINE SMOOTH",
"628 324 OFFCURVE",
"588 272 OFFCURVE",
"528 272 CURVE SMOOTH",
"472 272 OFFCURVE",
"428 320 OFFCURVE",
"428 390 CURVE SMOOTH",
"428 1100 LINE",
"76 1100 LINE",
"76 346 LINE SMOOTH",
"76 134 OFFCURVE",
"218 -16 OFFCURVE",
"416 -16 CURVE SMOOTH"
);
}
);
width = 1096;
},
{
anchors = (
{
name = bottom;
position = "{522, 0}";
},
{
name = horn;
position = "{788, 1080}";
},
{
name = ogonek;
position = "{894, -16}";
},
{
name = top;
position = "{506, 1080}";
}
);
background = {
components = (
{
name = n;
transform = "{-1, 0, 0, -1, 996, 1060}";
}
);
};
layerId = "FD1CEFBD-BAB1-4C2A-A598-30E93F9A29F6";
paths = (
{
closed = 1;
nodes = (
"590 -16 OFFCURVE",
"708 66 OFFCURVE",
"764 182 CURVE",
"704 144 LINE",
"774 144 LINE",
"738 184 LINE",
"744 112 OFFCURVE",
"792 36 OFFCURVE",
"894 -16 CURVE",
"960 136 LINE",
"906 162 OFFCURVE",
"878 204 OFFCURVE",
"878 254 CURVE SMOOTH",
"878 1080 LINE",
"710 1080 LINE",
"710 348 LINE SMOOTH",
"710 226 OFFCURVE",
"612 136 OFFCURVE",
"492 136 CURVE SMOOTH",
"368 136 OFFCURVE",
"292 230 OFFCURVE",
"292 350 CURVE SMOOTH",
"292 1080 LINE",
"124 1080 LINE",
"124 348 LINE SMOOTH",
"124 134 OFFCURVE",
"266 -16 OFFCURVE",
"450 -16 CURVE SMOOTH"
);
}
);
width = 1032;
}
);
leftKerningGroup = LAT_U_LC;
rightKerningGroup = LAT_A_LC;
unicode = 0075;
},
{
glyphname = v;
lastChange = "2023-05-23 02:56:02 +0000";
layers = (
{
anchors = (
{
name = bottom;
position = "{452, 0}";
},
{
name = top;
position = "{452, 1068}";
}
);
layerId = "AB099EFE-E788-4EFC-8633-CF147CB782A6";
paths = (
{
closed = 1;
nodes = (
"482 0 LINE",
"832 1068 LINE",
"766 1068 LINE",
"550 376 LINE",
"456 80 LINE",
"448 80 LINE",
"354 376 LINE",
"138 1068 LINE",
"72 1068 LINE",
"422 0 LINE"
);
}
);
width = 904;
},
{
anchors = (
{
name = bottom;
position = "{522, 0}";
},
{
name = top;
position = "{522, 1100}";
}
);
layerId = "2D8F7115-C311-411E-929D-56333CF7FFB2";
paths = (
{
closed = 1;
nodes = (
"696 0 LINE",
"1040 1100 LINE",
"670 1100 LINE",
"578 650 LINE",
"524 366 LINE",
"518 366 LINE",
"466 650 LINE",
"374 1100 LINE",
"4 1100 LINE",
"348 0 LINE"
);
}
);
width = 1044;
},
{
anchors = (
{
name = bottom;
position = "{476, 0}";
},
{
name = top;
position = "{476, 1080}";
}
);
layerId = "FD1CEFBD-BAB1-4C2A-A598-30E93F9A29F6";
paths = (
{
closed = 1;
nodes = (
"558 0 LINE",
"912 1080 LINE",
"730 1080 LINE",
"556 478 LINE",
"482 228 LINE",
"474 228 LINE",
"400 478 LINE",
"226 1080 LINE",
"44 1080 LINE",
"398 0 LINE"
);
}
);
width = 956;
}
);
leftKerningGroup = LAT_V_LC;
rightKerningGroup = LAT_V_LC;
unicode = 0076;
},
{
glyphname = w;
lastChange = "2021-01-27 11:27:30 +0000";
layers = (
{
anchors = (
{
name = bottom;
position = "{672, 0}";
},
{
name = top;
position = "{672, 1068}";
}
);
layerId = "AB099EFE-E788-4EFC-8633-CF147CB782A6";
paths = (
{
closed = 1;
nodes = (
"422 0 LINE",
"532 396 LINE",
"668 886 LINE",
"676 886 LINE",
"810 396 LINE",
"920 0 LINE",
"988 0 LINE",
"1262 1068 LINE",
"1196 1068 LINE",
"1042 432 LINE",
"954 72 LINE",
"950 72 LINE",
"858 418 LINE",
"690 1002 LINE",
"652 1002 LINE",
"484 418 LINE",
"394 72 LINE",
"390 72 LINE",
"302 432 LINE",
"148 1068 LINE",
"80 1068 LINE",
"354 0 LINE"
);
}
);
userData = {
RMXScaler = {
adjustSpace = 8;
height = 72;
weight = 8;
width = 80;
};
};
width = 1342;
},
{
anchors = (
{
name = bottom;
position = "{732, 0}";
},
{
name = top;
position = "{734, 1100}";
}
);
layerId = "2D8F7115-C311-411E-929D-56333CF7FFB2";
paths = (
{
closed = 1;
nodes = (
"578 0 LINE",
"648 198 LINE",
"732 470 LINE",
"740 470 LINE",
"816 198 LINE",
"886 0 LINE",
"1162 0 LINE",
"1444 1100 LINE",
"1102 1100 LINE",
"1020 604 LINE",
"996 420 LINE",
"988 420 LINE",
"962 524 LINE",
"784 1064 LINE",
"680 1064 LINE",
"502 524 LINE",
"476 420 LINE",
"468 420 LINE",
"444 604 LINE",
"362 1100 LINE",
"20 1100 LINE",
"302 0 LINE"
);
}
);
userData = {
RMXScaler = {
adjustSpace = 20;
height = 73;
weight = -120;
width = 79;
};
};
width = 1464;
},
{
anchors = (
{
name = bottom;
position = "{694, 0}";
},
{
name = top;
position = "{694, 1080}";
}
);
layerId = "FD1CEFBD-BAB1-4C2A-A598-30E93F9A29F6";
paths = (
{
closed = 1;
nodes = (
"480 0 LINE",
"568 296 LINE",
"688 688 LINE",
"696 688 LINE",
"816 296 LINE",
"904 0 LINE",
"1062 0 LINE",
"1324 1080 LINE",
"1154 1080 LINE",
"1030 512 LINE",
"978 236 LINE",
"970 236 LINE",
"904 480 LINE",
"740 998 LINE",
"646 998 LINE",
"480 480 LINE",
"416 236 LINE",
"408 236 LINE",
"354 512 LINE",
"232 1080 LINE",
"60 1080 LINE",
"322 0 LINE"
);
}
);
userData = {
RMXScaler = {
adjustSpace = 8;
height = 72;
weight = 8;
width = 80;
};
};
width = 1384;
}
);
leftKerningGroup = LAT_V_LC;
rightKerningGroup = LAT_V_LC;
unicode = 0077;
userData = {
RMXScaler = {
source = W;
};
};
},
{
color = 9;
glyphname = w.ss03;
lastChange = "2023-05-23 02:56:02 +0000";
layers = (
{
anchors = (
{
name = bottom;
position = "{682, 0}";
},
{
name = top;
position = "{682, 1068}";
}
);
layerId = "AB099EFE-E788-4EFC-8633-CF147CB782A6";
paths = (
{
closed = 1;
nodes = (
"426 0 LINE",
"538 414 LINE",
"674 942 LINE",
"684 942 LINE",
"820 414 LINE",
"932 0 LINE",
"1006 0 LINE",
"1286 1068 LINE",
"1222 1068 LINE",
"1062 432 LINE",
"970 72 LINE",
"966 72 LINE",
"870 432 LINE",
"700 1068 LINE",
"658 1068 LINE",
"490 432 LINE",
"392 72 LINE",
"390 72 LINE",
"296 432 LINE",
"136 1068 LINE",
"72 1068 LINE",
"354 0 LINE"
);
}
);
width = 1358;
},
{
anchors = (
{
name = bottom;
position = "{728, 0}";
},
{
name = top;
position = "{728, 1100}";
}
);
background = {
components = (
{
name = w;
transform = "{1, 0, 0, 1, -6, 0}";
}
);
};
layerId = "2D8F7115-C311-411E-929D-56333CF7FFB2";
paths = (
{
closed = 1;
nodes = (
"602 0 LINE",
"680 316 LINE",
"726 538 LINE",
"732 538 LINE",
"776 316 LINE",
"854 0 LINE",
"1180 0 LINE",
"1452 1100 LINE",
"1096 1100 LINE",
"1030 634 LINE",
"998 374 LINE",
"990 374 LINE",
"938 662 LINE",
"840 1100 LINE",
"616 1100 LINE",
"518 662 LINE",
"466 374 LINE",
"458 374 LINE",
"426 634 LINE",
"358 1100 LINE",
"4 1100 LINE",
"278 0 LINE"
);
}
);
width = 1456;
},
{
anchors = (
{
name = bottom;
position = "{698, 0}";
},
{
name = top;
position = "{698, 1080}";
}
);
layerId = "FD1CEFBD-BAB1-4C2A-A598-30E93F9A29F6";
paths = (
{
closed = 1;
nodes = (
"492 0 LINE",
"600 394 LINE",
"694 764 LINE",
"702 764 LINE",
"796 394 LINE",
"904 0 LINE",
"1072 0 LINE",
"1352 1080 LINE",
"1172 1080 LINE",
"1050 524 LINE",
"986 218 LINE",
"978 218 LINE",
"896 524 LINE",
"752 1080 LINE",
"644 1080 LINE",
"500 524 LINE",
"418 218 LINE",
"410 218 LINE",
"346 524 LINE",
"224 1080 LINE",
"44 1080 LINE",
"324 0 LINE"
);
}
);
width = 1396;
}
);
leftKerningGroup = LAT_V_LC;
leftMetricsKey = v;
rightKerningGroup = LAT_V_LC;
rightMetricsKey = v;
},
{
glyphname = x;
lastChange = "2023-05-23 03:09:56 +0000";
layers = (
{
anchors = (
{
name = bottom;
position = "{444, 0}";
},
{
name = top;
position = "{444, 1068}";
}
);
layerId = "AB099EFE-E788-4EFC-8633-CF147CB782A6";
paths = (
{
closed = 1;
nodes = (
"160 0 LINE",
"440 488 LINE",
"450 488 LINE",
"486 530 LINE",
"486 538 LINE",
"800 1068 LINE",
"728 1068 LINE",
"446 578 LINE",
"436 578 LINE",
"400 538 LINE",
"400 530 LINE",
"86 0 LINE"
);
},
{
closed = 1;
nodes = (
"800 0 LINE",
"486 530 LINE",
"486 538 LINE",
"450 578 LINE",
"440 578 LINE",
"158 1068 LINE",
"86 1068 LINE",
"400 538 LINE",
"400 530 LINE",
"436 488 LINE",
"446 488 LINE",
"726 0 LINE"
);
}
);
userData = {
RMXScaler = {
height = 71;
weight = 16;
width = 73.5;
};
};
width = 886;
},
{
anchors = (
{
name = bottom;
position = "{516, 0}";
},
{
name = top;
position = "{516, 1100}";
}
);
layerId = "2D8F7115-C311-411E-929D-56333CF7FFB2";
paths = (
{
closed = 1;
nodes = (
"364 0 LINE",
"512 328 LINE",
"522 328 LINE",
"728 550 LINE",
"728 554 LINE",
"1028 1100 LINE",
"672 1100 LINE",
"518 750 LINE",
"512 750 LINE",
"300 550 LINE",
"300 546 LINE",
"0 0 LINE"
);
},
{
closed = 1;
nodes = (
"1024 0 LINE",
"728 546 LINE",
"728 550 LINE",
"518 750 LINE",
"512 750 LINE",
"356 1100 LINE",
"4 1100 LINE",
"300 554 LINE",
"300 550 LINE",
"508 328 LINE",
"518 328 LINE",
"664 0 LINE"
);
}
);
userData = {
RMXScaler = {
height = 73.5;
weight = -110;
width = 73;
};
};
width = 1028;
},
{
anchors = (
{
name = bottom;
position = "{464, 0}";
},
{
name = top;
position = "{464, 1080}";
}
);
layerId = "FD1CEFBD-BAB1-4C2A-A598-30E93F9A29F6";
paths = (
{
closed = 1;
nodes = (
"242 0 LINE",
"460 422 LINE",
"470 422 LINE",
"570 538 LINE",
"570 546 LINE",
"876 1080 LINE",
"688 1080 LINE",
"466 650 LINE",
"458 650 LINE",
"354 546 LINE",
"354 538 LINE",
"48 0 LINE"
);
},
{
closed = 1;
nodes = (
"880 0 LINE",
"570 538 LINE",
"570 546 LINE",
"470 650 LINE",
"460 650 LINE",
"238 1080 LINE",
"52 1080 LINE",
"354 546 LINE",
"354 538 LINE",
"456 422 LINE",
"466 422 LINE",
"684 0 LINE"
);
}
);
userData = {
RMXScaler = {
height = 71;
weight = 16;
width = 73.5;
};
};
width = 928;
}
);
leftKerningGroup = LAT_X_LC;
rightKerningGroup = LAT_X_LC;
unicode = 0078;
userData = {
RMXScaler = {
source = X;
};
};
},
{
glyphname = y;
lastChange = "2023-05-23 02:56:02 +0000";
layers = (
{
anchors = (
{
name = bottom;
position = "{282, -428}";
},
{
name = top;
position = "{480, 1068}";
}
);
guideLines = (
{
angle = 68.6294;
position = "{388, -106}";
},
{
angle = 67.5;
position = "{268, -28}";
}
);
layerId = "AB099EFE-E788-4EFC-8633-CF147CB782A6";
paths = (
{
closed = 1;
nodes = (
"368 -436 OFFCURVE",
"415 -314 OFFCURVE",
"462 -170 CURVE SMOOTH",
"866 1068 LINE",
"802 1068 LINE",
"580 364 LINE",
"484 64 LINE",
"476 64 LINE",
"376 364 LINE",
"146 1068 LINE",
"80 1068 LINE",
"462 -56 LINE",
"462 8 LINE",
"406 -160 LINE SMOOTH",
"373 -260 OFFCURVE",
"342 -380 OFFCURVE",
"226 -380 CURVE SMOOTH",
"194 -380 OFFCURVE",
"150 -370 OFFCURVE",
"126 -354 CURVE",
"102 -412 LINE",
"128 -424 OFFCURVE",
"178 -436 OFFCURVE",
"222 -436 CURVE SMOOTH"
);
}
);
width = 938;
},
{
anchors = (
{
name = bottom;
position = "{362, -428}";
},
{
name = top;
position = "{538, 1100}";
}
);
guideLines = (
{
angle = 67.5;
position = "{136, 8}";
}
);
layerId = "2D8F7115-C311-411E-929D-56333CF7FFB2";
paths = (
{
closed = 1;
nodes = (
"584 -436 OFFCURVE",
"643 -250 OFFCURVE",
"688 -108 CURVE SMOOTH",
"1072 1100 LINE",
"702 1100 LINE",
"592 554 LINE",
"566 434 LINE",
"562 434 LINE",
"532 554 LINE",
"374 1100 LINE",
"6 1100 LINE",
"454 -42 LINE",
"430 138 LINE",
"394 -30 LINE SMOOTH",
"384 -74 OFFCURVE",
"368 -146 OFFCURVE",
"292 -146 CURVE SMOOTH",
"268 -146 OFFCURVE",
"236 -136 OFFCURVE",
"216 -122 CURVE",
"98 -400 LINE",
"158 -420 OFFCURVE",
"246 -436 OFFCURVE",
"316 -436 CURVE SMOOTH"
);
}
);
width = 1076;
},
{
anchors = (
{
name = bottom;
position = "{370, -428}";
},
{
name = top;
position = "{496, 1080}";
}
);
layerId = "FD1CEFBD-BAB1-4C2A-A598-30E93F9A29F6";
paths = (
{
closed = 1;
nodes = (
"440 -436 OFFCURVE",
"508 -248 OFFCURVE",
"540 -146 CURVE SMOOTH",
"928 1080 LINE",
"748 1080 LINE",
"564 430 LINE",
"506 228 LINE",
"498 228 LINE",
"434 430 LINE",
"228 1080 LINE",
"44 1080 LINE",
"444 -44 LINE",
"444 86 LINE",
"392 -104 LINE SMOOTH",
"374 -168 OFFCURVE",
"334 -282 OFFCURVE",
"236 -282 CURVE SMOOTH",
"208 -282 OFFCURVE",
"164 -266 OFFCURVE",
"134 -246 CURVE",
"72 -398 LINE",
"102 -414 OFFCURVE",
"170 -436 OFFCURVE",
"236 -436 CURVE SMOOTH"
);
}
);
width = 972;
}
);
leftKerningGroup = LAT_Y_LC;
rightKerningGroup = LAT_Y_LC;
rightMetricsKey = v;
unicode = 0079;
},
{
glyphname = z;
lastChange = "2023-05-23 02:56:02 +0000";
layers = (
{
anchors = (
{
name = bottom;
position = "{412, 0}";
},
{
name = center;
position = "{412, 534}";
},
{
name = leghookretroflex;
position = "{688, 0}";
},
{
name = top;
position = "{428, 1068}";
}
);
layerId = "AB099EFE-E788-4EFC-8633-CF147CB782A6";
paths = (
{
closed = 1;
nodes = (
"716 0 LINE",
"716 56 LINE",
"182 56 LINE",
"182 64 LINE",
"706 1040 LINE",
"706 1068 LINE",
"128 1068 LINE",
"128 1012 LINE",
"622 1012 LINE",
"622 1004 LINE",
"104 36 LINE",
"104 0 LINE"
);
}
);
width = 820;
},
{
anchors = (
{
name = bottom;
position = "{442, 0}";
},
{
name = center;
position = "{442, 550}";
},
{
name = leghookretroflex;
position = "{668, 0}";
},
{
name = top;
position = "{454, 1100}";
}
);
layerId = "2D8F7115-C311-411E-929D-56333CF7FFB2";
paths = (
{
closed = 1;
nodes = (
"846 0 LINE",
"846 300 LINE",
"508 300 LINE",
"508 308 LINE",
"848 1026 LINE",
"848 1100 LINE",
"66 1100 LINE",
"66 800 LINE",
"368 800 LINE",
"368 792 LINE",
"30 70 LINE",
"30 0 LINE"
);
}
);
width = 878;
},
{
anchors = (
{
name = bottom;
position = "{424, 0}";
},
{
name = center;
position = "{424, 540}";
},
{
name = leghookretroflex;
position = "{684, 0}";
},
{
name = top;
position = "{440, 1080}";
}
);
background = {
paths = (
{
closed = 1;
nodes = (
"74 0 LINE",
"770 0 LINE",
"770 156 LINE",
"340 156 LINE",
"340 164 LINE",
"768 1020 LINE",
"768 1060 LINE",
"96 1060 LINE",
"96 904 LINE",
"502 904 LINE",
"502 896 LINE",
"74 40 LINE"
);
}
);
};
layerId = "FD1CEFBD-BAB1-4C2A-A598-30E93F9A29F6";
paths = (
{
closed = 1;
nodes = (
"768 0 LINE",
"768 150 LINE",
"312 150 LINE",
"312 158 LINE",
"762 1036 LINE",
"762 1080 LINE",
"102 1080 LINE",
"102 932 LINE",
"524 932 LINE",
"524 924 LINE",
"74 48 LINE",
"74 0 LINE"
);
}
);
width = 842;
}
);
leftKerningGroup = LAT_Z_LC;
rightKerningGroup = LAT_Z_LC;
unicode = 007A;
},
{
export = 0;
glyphname = a.ss08;
lastChange = "2023-05-23 02:56:02 +0000";
layers = (
{
anchors = (
{
name = bottom;
position = "{450, 0}";
},
{
name = ogonek;
position = "{732, 0}";
},
{
name = top;
position = "{450, 1048}";
}
);
layerId = "AB099EFE-E788-4EFC-8633-CF147CB782A6";
paths = (
{
closed = 1;
nodes = (
"530 -16 OFFCURVE",
"632 44 OFFCURVE",
"692 158 CURVE",
"676 142 LINE",
"690 142 LINE",
"690 0 LINE",
"750 0 LINE",
"750 752 LINE SMOOTH",
"750 956 OFFCURVE",
"656 1064 OFFCURVE",
"466 1064 CURVE SMOOTH",
"346 1064 OFFCURVE",
"238 1020 OFFCURVE",
"158 950 CURVE",
"180 898 LINE",
"258 966 OFFCURVE",
"356 1008 OFFCURVE",
"464 1008 CURVE SMOOTH",
"610 1008 OFFCURVE",
"690 924 OFFCURVE",
"690 760 CURVE SMOOTH",
"690 562 LINE",
"690 552 LINE",
"690 334 LINE SMOOTH",
"690 168 OFFCURVE",
"564 40 OFFCURVE",
"406 40 CURVE SMOOTH",
"262 40 OFFCURVE",
"172 148 OFFCURVE",
"172 284 CURVE SMOOTH",
"172 448 OFFCURVE",
"306 550 OFFCURVE",
"500 550 CURVE SMOOTH",
"710 550 LINE",
"710 606 LINE",
"500 606 LINE SMOOTH",
"272 606 OFFCURVE",
"112 482 OFFCURVE",
"112 284 CURVE SMOOTH",
"112 122 OFFCURVE",
"218 -16 OFFCURVE",
"406 -16 CURVE SMOOTH"
);
}
);
width = 902;
},
{
anchors = (
{
name = bottom;
position = "{498, 0}";
},
{
name = ogonek;
position = "{736, 0}";
},
{
name = top;
position = "{514, 1080}";
}
);
background = {
paths = (
{
closed = 1;
nodes = (
"928 0 LINE",
"928 710 LINE SMOOTH",
"928 860 OFFCURVE",
"900 1096 OFFCURVE",
"504 1096 CURVE SMOOTH",
"310 1096 OFFCURVE",
"172 1038 OFFCURVE",
"108 994 CURVE",
"228 732 LINE",
"294 780 OFFCURVE",
"400 814 OFFCURVE",
"472 814 CURVE SMOOTH",
"518 814 OFFCURVE",
"584 780 OFFCURVE",
"584 706 CURVE SMOOTH",
"584 552 LINE",
"592 504 LINE",
"592 262 LINE",
"592 132 LINE",
"632 132 LINE",
"632 0 LINE"
);
},
{
closed = 1;
nodes = (
"506 -16 OFFCURVE",
"610 66 OFFCURVE",
"642 152 CURVE",
"590 312 LINE",
"566 266 OFFCURVE",
"524 238 OFFCURVE",
"488 238 CURVE SMOOTH",
"432 238 OFFCURVE",
"402 280 OFFCURVE",
"402 336 CURVE SMOOTH",
"402 410 OFFCURVE",
"434 426 OFFCURVE",
"468 426 CURVE SMOOTH",
"598 426 LINE",
"598 630 LINE",
"394 630 LINE SMOOTH",
"196 630 OFFCURVE",
"52 492 OFFCURVE",
"52 294 CURVE SMOOTH",
"52 116 OFFCURVE",
"170 -16 OFFCURVE",
"360 -16 CURVE SMOOTH"
);
}
);
};
layerId = "2D8F7115-C311-411E-929D-56333CF7FFB2";
paths = (
{
closed = 1;
nodes = (
"542 -16 OFFCURVE",
"628 86 OFFCURVE",
"654 160 CURVE",
"612 118 LINE",
"638 118 LINE",
"638 0 LINE",
"924 0 LINE",
"924 750 LINE SMOOTH",
"924 982 OFFCURVE",
"774 1098 OFFCURVE",
"522 1098 CURVE SMOOTH",
"342 1098 OFFCURVE",
"194 1038 OFFCURVE",
"98 996 CURVE",
"206 734 LINE",
"272 776 OFFCURVE",
"388 814 OFFCURVE",
"468 814 CURVE SMOOTH",
"546 814 OFFCURVE",
"600 778 OFFCURVE",
"600 708 CURVE SMOOTH",
"600 552 LINE",
"612 512 LINE",
"612 372 LINE SMOOTH",
"612 274 OFFCURVE",
"530 244 OFFCURVE",
"482 244 CURVE SMOOTH",
"432 244 OFFCURVE",
"380 280 OFFCURVE",
"380 342 CURVE SMOOTH",
"380 412 OFFCURVE",
"452 440 OFFCURVE",
"526 440 CURVE SMOOTH",
"646 440 LINE",
"646 652 LINE",
"474 652 LINE SMOOTH",
"224 652 OFFCURVE",
"52 528 OFFCURVE",
"52 324 CURVE SMOOTH",
"52 150 OFFCURVE",
"176 -16 OFFCURVE",
"392 -16 CURVE SMOOTH"
);
}
);
width = 1000;
},
{
anchors = (
{
name = bottom;
position = "{474, 0}";
},
{
name = ogonek;
position = "{730, 0}";
},
{
name = top;
position = "{476, 1060}";
}
);
layerId = "FD1CEFBD-BAB1-4C2A-A598-30E93F9A29F6";
paths = (
{
closed = 1;
nodes = (
"532 -16 OFFCURVE",
"632 60 OFFCURVE",
"684 174 CURVE",
"634 116 LINE",
"656 116 LINE",
"656 -2 LINE",
"808 -2 LINE",
"808 760 LINE SMOOTH",
"808 952 OFFCURVE",
"670 1076 OFFCURVE",
"466 1076 CURVE SMOOTH",
"352 1076 OFFCURVE",
"220 1036 OFFCURVE",
"130 970 CURVE",
"194 822 LINE",
"258 880 OFFCURVE",
"360 920 OFFCURVE",
"452 920 CURVE SMOOTH",
"564 920 OFFCURVE",
"648 852 OFFCURVE",
"648 744 CURVE SMOOTH",
"648 558 LINE",
"652 500 LINE",
"652 382 LINE SMOOTH",
"652 232 OFFCURVE",
"546 128 OFFCURVE",
"420 128 CURVE SMOOTH",
"316 128 OFFCURVE",
"244 200 OFFCURVE",
"244 306 CURVE SMOOTH",
"244 424 OFFCURVE",
"338 492 OFFCURVE",
"496 492 CURVE SMOOTH",
"680 492 LINE",
"680 628 LINE",
"490 628 LINE SMOOTH",
"246 628 OFFCURVE",
"84 508 OFFCURVE",
"84 300 CURVE SMOOTH",
"84 118 OFFCURVE",
"214 -16 OFFCURVE",
"394 -16 CURVE SMOOTH"
);
}
);
width = 932;
}
);
leftKerningGroup = LAT_ASS02_LC;
leftMetricsKey = a;
rightKerningGroup = LAT_A_LC;
rightMetricsKey = n;
},
